<mxfile host="app.diagrams.net" agent="Mozilla/5.0 (Windows NT 10.0; Win64; x64) AppleWebKit/537.36 (KHTML, like Gecko) Chrome/141.0.0.0 Safari/537.36 Edg/141.0.0.0" version="28.2.5">
  <diagram name="Page-1" id="nR5YQeN_prcHt_FxatDn">
    <mxGraphModel dx="1079" dy="1613" grid="0" gridSize="10" guides="1" tooltips="1" connect="1" arrows="1" fold="1" page="1" pageScale="1" pageWidth="850" pageHeight="1100" math="0" shadow="0">
      <root>
        <mxCell id="0" />
        <mxCell id="1" parent="0" />
        <mxCell id="lsIhl7qGzUJE_njerY9o-1" value="" style="shape=image;verticalLabelPosition=bottom;labelBackgroundColor=white;verticalAlign=top;aspect=fixed;imageAspect=0;image=data:image/png,iVBORw0KGgoAAAANSUhEUgAABUMAAAJPCAYAAABWwMVjAAAAAXNSR0IArs4c6QAAAARnQU1BAACxjwv8YQUAAAAJcEhZcwAAFiUAABYlAUlSJPAAAP+lSURBVHhe7N0HfBVV2gbwJ72QQkISEnoVUCxYsKAI9l5Q17bqrmvXta5+q65t17VX7GWtrLr23l0rKip2BKUTCCWk9wL3u88ws7ngBe6cGbxD8vx35yeZyUzOvPfMmTPvnJmbEArDevBX2trarH+npKQgISHB+rcbK1euRHt7u7Uut2FixYoV1pSYmIjk5GR7rnvl5eVISkpCfn6+PccdxoIxYRlYFreCEk+qrKy0YlpYWGjPcaczxaK2thaNjY0oLi6257jDMrAsrFucTLS2tlr/jWc8qaGhAVVVVejTp489xx0nFl6O1SDULWpubsbSpUvRv39/e447frRbQahbxHiWlpZasTAphxMLL8eqH7HwWreIZZg/fz569+6N1NRUe27suL7XdsuPuuXEwks8acGCBdZ5JCMjw54TOycWZBJLCkrdorKyMuTk5CArK8ueEzs/2q2g1C1i25mWlobu3bvbc9xx2i2vsSCvdctrLJYvX27tQ48ePew57nhtt4JSt4j9C5alqKjInuOO13bLz1iQad2iuro61NfXo6SkxJ7jjh/tVhDqFrEPXlFRgb59+9pz3HFi4cc5Md6xaGlpweLFi63+lsk2/Gi3glC3iOVgf4uxMNkXP9qtINQtx7x586z2gudWt/yIRVDqFi1cuNDK52RmZtpzYufHserEIt51i9hesN+ZnZ1tz4mdH7EISt1yy/xIFBEREREREREREdmIWCNDOTpwXZgtZpaWmL03yRb7sQ1mnDlxXS93EXgXlhnnbt262XPc4X5wf7gNTm4FKRYcAcjtmNxFoM4Ui6amJmsUSm5urj3HnSDEwo9tEO9I8w59Xl6ePccdr7GgIMSTeKeMo4ZNR/P4UT+DEgtug+cLxsKkHEGIBfmxDa7PESwc8WZy99KPWAQlnsR6wTvSJiOk/KifQYpFdXU10tPTrcmtoMTCj21QTU2NNULAdNSG11gEJZ7Evie3YTJimLzWzyDFgn1PloUjqE0EIRZ+bIPY92Sfy3T0tNdYUBDiSYwD64bpk3t+1M+gxIJ9T7af7G+ZbCMIsSC/tsH+FmNhsi+dKRZcn7HgtarJ6Ds/YhGUeBL7nsznmIyS5d9nOYj7sTEfZ8S+J+Ng8oRWUGLhZRum5w0rGcpHd9aFAWLBiB+SSYAit+ElQNwO/76XysLHUbi+SeecnMriRyxMt+HEgkzjSUx4cVteOucUz1j4UbeIj0MzGWraOXc+Ey/1MwjxJHZI2UE37Zx3pliwQ8qLWC+dc79iEc94ErfBxxsZC5NyOLGgeJ4H/IgFy8BOGDukJsnQyPoZhFh42QaxXvA8YtI59zMWFM94Ei9gmQg17Zw7sTCtn37G02ss2Hby+DDpnJPXY9XPWJDpNoh9T+6Dlxvx5Ecs4hlPYt+T++PlRjyZ1s8gxYJ9T/a5TG/EO/XTNBYUhLpF7IMzGWp6I97PWJhuw69Y8HFT3ohnLEy24UcsglC3iOVgf0t9z1UYC16rbsx9Tz+2QUwAMp9jeiPeiYXpZ+LsB8UznsS+J/udpjfivcYichvxiEVBQYH9L3f0zlADjAVjwjKYVNqgxJPYoDKmemeo3hkaSe8M7aB3hnZgPPXO0FVYBr0ztIPeGdpB7wztoHeGdtA7QzvonaEd9M7QDnpnaAcmyPXO0FVYDr0ztIPeGdpB7wztoHeGmjE/EkVEREREREREREQ2IkqGioiIiIiIiIiISJegZKiIiIiIiIiIiIh0CUqGioiIiIiIiIiISJegZKiIiIiIiIiIiIh0CUqGioiIiIiIiIiISJegZKiIiIiIiIiIiIh0CUqGioiIiIiIiIiISJegZKiIiIiIiIiIiIh0CUqGioiIiIiIiIiISJegZKiIiIiIiIiIiIh0CUqGioiIiIiIiIiISJegZKiIiIiIiIiIiIh0CQmhsLa2NvvHtVuxYoX138TERCQkJFj/diP8Z7By5UprXW7DhB/boMrKSmv97t2723PcYRlYFq+xoKSkJOu/bvkVi+rqauuz7dGjhz3HHa+xoCDULaqrq0NzczMKCwvtOe74EQuv23BiQaZ1ixobG1FbW4vi4mJ7jjvOfnj5TPyIp9e6RS0tLVi+fDl69+5tz3HH+Uw6Qyza29tRVlaGPn36GO2Ln7GIdzy5/sKFC61jJCUlxZ4bu84UC2K9yM/PR3p6uj0ndk4sKJ7nRD/iSUuXLkVWVha6detmz3HHOVY7QyzYdqampiInJ8ee445f/QOKd3+rqqrK+m9eXp71X7ecz6QzxKKmpga89igoKLDnuOM1FhSUvmd9fb3V5yoqKrLnuONHLLxuw4kFeel7NjU1WdclJSUl9hx3nP3w8pn4EU8/+lutra1YtmyZ1ff08pnEOxZ+xZP9LfY9TeqXn7GIdzyJsWB7wXOrW37Ews94eo3F4sWLrXxORkaGPSd2zn5QZ+hvsb3IzMy0+p8mgnBO9LINk2sxSroyzNn5dWHhyCQ45KxPXrdhur6DJ1sGOC0tzZ7jTuS+mApCPImJHm7LpBGhzhQLdjzYOWdDEi9BiCcxDqwbpg2qw0sZghILJgDZZmRnZ9tz3PGjDH7wI548QfHCjbEw2Z/IMniNRxDqFm+gMOFlctLvTLEg1gsmQpOTk+05sfMjFkGJJzEWvEgx7Zg5+9IZYsEkD+uEyUUbBSEWXsvg4HmE2zC5YUCR+2IqCPEk9i94PlHfc1V/i/1P05snfghCPEl9zw68Nmf7aXojyY8y+MGPeLKtYH9Lfc9VGAteq5omhh2m+xKUukXsbzGfY9L3JK/7EpS6RQ0NDRt939NLGUwT2tbIUDYy68KCMSFArGwmBeTfYMPOdU0rrLMNXnh6ufPIkQpc3/TuPGPBmHAbphfBQYgncaQCt2N6d74zxYIjIXmx0rNnT3uOOywDy2IaCwpCPIkNKkdu9OrVy57jjhMLL8dqUGLB0cLl5eXo27evPcedIMSCnG14iQUvVBYtWmTFwmRf/DhWgxJPlqG0tNQawWKS6OlMsSCOVOATBqZ3551j1bQTF5R4Ekcq8KLN5II+Mhamx2qQYsGRCrxQyc3NtefEzo9YONvwEgs/4kkVFRXWNjiC2oTXYzUodYs4+o/nE9MncTpTLJjYYJ/L9EkcP47VIMSTmPzjdYnpkzidKRZMCvMpA/a3vNRPL7EIQjyJ22B/i7EwOdb8OFaDEguuz1jwWtVkUFdQYuFsw0ssiNckzOeYDGTy41gNSjxpyZIl1k01k8E7nSEWpvXISoba/14r/go7LcQLFdMAMchc1/RihwHixJ01DTIxscEAm3ZIGQvGhGUwCXxQ4kl8ZQBjatoh7UyxYDKUHTHTDinLwLKwbpk2ZhwdQPGMJ7Fjzg4pH0kx4cTCy7EahLpFTIayQ9q/f397jjt+tFtBqFvEeLITxliYlMOJhZdj1Y9YeK1bxDLMnz/fumgzTYZ6bbf8qFtOLLzEkxYsWGCdR0ySoU4syHQEYVDqFvGVARzNY5oM9dpuBaVuEdtOXrCZvpbIabe8xoK81i2vseCNeO6D6WuJvLZbQalbxP4Fy2L6aLjXdsvPWJBp3SImQzm6yfTRcD/arSDULWIfnDcNTG8+O7Hw45wY71gwGcoba+xvmWzDj3YrCHWLWA72txgLk33xo90KQt1yzJs3z2ovTJOhXmMRlLpFvBHPfI5pMtTrserEIt51i9hesN9pmgz1Goug1C23zI9EERERERERERERkY2IkqEiIiIiIiIiIiLSJSgZKiIiIiIiIiIiIl2CkqEiIiIiIiIiIiLSJSgZKiIiIiIiIiIiIl2CkqEiIiIiIiIiIiLSJSgZKiIiIiIiIiIiIl2CkqEiIiIiIiIiIiLSJSgZKiIiIiIiIiIiIl2CkqEiIiIiIiIiIiLSJSgZKiIiIiIiIiIiIl2CkqEiIiIiIiIiIiLSJSRdGRYKhewfo+PylStXWv9OTDTLn3Ibzt8x3QbL4HUb1NjYaK2fnp5uz3FnxYoV1n8TEhKsyS0/48m/7yUWzc3NVlkyMzPtOe44+xGEWJCXWLS0tKCtrQ1ZWVn2HHe8xoL8jGdSUpL1XxOtra1W3cjOzrbnuON8JkGJhZd60d7ejoaGBuTm5tpz3GEZvNZPr7EgP2LBtq+2ttaKheln4tQLr8e7H7Hwsg2qqamxjhGTY83ZD/JSL/zYBnF9L7FgveB5JDk52Z7jjtf6GVkv4lm3qK6uDmlpaUhNTbXnxI5/369YkJd64Ucs6uvrrTrBeJjwGgsKQjypqanJimVGRoY9x53O1vfk/nTr1s2e407kfpjWz6DUC/Y92eeKZ98zCHWL2AfncZKTk2PPcSeyfprGwms8/YoF+55sPzf2vqfXukUsB/tbjIXJvkTWC9NYRG7Dy36Ql20QY8H2ojP0Pb3Ggn1PnlNTUlLsObHjPjjlML1mduLJfYhn3SL2Pdnv7Ax9T3K7DdPYJYT/YIgn4fUJQoCcbXitLJWVlVal93KCIS/lCEI8iQ0qT1T5+fn2HHc6UyzY6WAnrLCw0J7jjlMOP2IRz3gSbxjwBFNcXGzPcaczxYIXKhUVFejVq5c9xx0/YhGUeLJzvnjxYvTu3dsops5+kNfjPd6xYBkWLVqEnj17GnfCOkssiPUiLy/P6Cajn7GgeMaTli5dal2o+JHoMRGkWCxfvtxKhJreWOtMsaiqqrLW7969uz3HHT+O1SDEk9i/YOKrR48e9hx3OlMseLOVU1FRkT3HHaccfsQinvEk9sF5XaK+56pBCeXl5VZ/y4QfsQhKPHmdyv4WYxGvBGBQYkGMBa9VTZNeQYiFH9ugJUuWWPkc05uMXo9VZz8onvGkZcuWWf3Ortr3NDkeyKykIiIiIiIiIiIiIhsZa2QoM7Drwzu4xMedTLLWzDY7Q+VNRtEQ1+d2+PdNH8UjjlTgnSWOYjHhxILbMMl8M94cYUVe4+k1FhypwLKYjobkutyfIMSCTOsWcaQCR0Sa3pF2YsE4mNy5JD/rlpdYcJRCdXW18R1p51j1Eosg1C3i43y829avXz97jjt+tFt+1i0vsWA5SktLrViYlMOPdisIdYu4/vz5860RwyZ3I/1ot/ysW15iQawXBQUFRnfnI49V01gEpW5RWVmZ9ZinyWOvkbEwPVaDFAuOkuVoYdMncby2W0GpW8QnDLgN0ydxOlPfk/0LjnwzHQ3pR7sVhLpFfLSRTyaVlJTYc9xxYuHlWA1C3SL2wfn0Xp8+few57vjRbgWhbhGfSuKot/79+9tz3HFi4eVYDULdIpZjwYIFVt/TZF/8aLeCUreIfU9eq5q8fsaJBQWh7+klnrRw4ULrnGryur/Idqsz9D35hBb7nSZP4kTGgvth0m7Fu26ZlJmsI5Err2uKFG15rJPX9Tn5tQ2KtizWyY/1KdqyWCdHtGWxTn6sT9GWxTo5oi2LdfK6vl+T13I4oi2LdYoUbXmsk5f1I0VbHsvkiLYs1skRbZmbyes2vK7Pyes2IkVbHsvkiLYslilStOWxTI5oy2KdHNGWxTo5oi2LdfK6Piev24gUbXmsk5f1I0VbHssUKdryWCZHtGW/5eSItizWyRFtWayTI9oyN5OXbTiiLYtlihRteSyTI9oyN5Mj2rJYJz/Wp2jLYp0c0ZbFOvmxviPa8vVNkaItj2WKFG35bzn5UQav23BEW+Zm8rKNSNGWxzI5oi2LZYoUbbmbyRFtWSyTl3WdqbNswxFtWSxTpGjLY5kc0Za5mbxuw+v6nIKyDa9TpGjL1zdFirY8lilStOW/1eSItizWyev6nEy3Ycr8toSIiIiIiIiIiIjIRkTJUBEREREREREREekSlAwVERERERERERGRLkHJUBEREREREREREekSlAwVERERERERERGRLkHJUBEREREREREREekSlAwVERERERERERGRLkHJUBEREREREREREekSlAwVERERERERERGRLkHJUBEREREREREREekSlAwVERERERERERGRLkHJUBEREREREREREekSEkJhK1eutH+MLvwraG9vt/6dnJyMhIQE699u8G+sWLHCWpfbMMH1uZ3ExEQkJSXZc91bvny5tX5eXp49xx3GgjHhNlgWt4IST6qqqrK2U1BQYM9xpzPFora2Fk1NTejZs6c9xx2nfprGgoIQT2poaEBNTQ169eplz3HHj2M1KLFobm5GeXk5+vbta89xJwixID+20dbWhkWLFlmxMNkXP47VoMSTZSgtLUVJSQlSU1PtubHrTLGghQsXokePHsjIyLDnxM6PYzUo8aTFixcjOzsbWVlZ9pzYdbZYLFu2DGlpacjNzbXnxM6PWDjb8BILP+JJFRUV1jby8/PtOe54PVaDUreourraOp8UFhbac9zpTLGoq6uz+lzFxcX2HHf8OFaDEE9qbGy0rkt69+5tz3GnM8WipaUFS5cutfpbJtvwIxZBiCdxG+xvMRYmx5ofx2pQYsH1GQteq/Lc6lZQYuFsw0ssiNckzOdkZmbac2Lnx7EalHjSkiVL0K1bN6v/6VZniIVpPbKSoa2trfaPa8eCkekfYpA5kddtMMgmH5KjsrLSCrBJ55ycWHgpRxDiSUx4seKZds47Uyzq6+utZKhp59wphx+xiGc8iR1SJodNO+edKRbskPIi1jQx7EcsghJPniiZ6OGFiklMnf0gr8d7vGPBMrATxg5pSkqKPTd2nSkWxHrBDml6ero9J3Z+xoLiGU/iBSwToeyUmvDabgUpFrz5zAs2k845daZYMMnD9bt3727PccePYzUI8ST2L5gM5Q0UE50pFkyEcioqKrLnuOOUw49YxDOexD44r0vU9wR4bc4b8aaJYT9iEZR48jqV/S3GwiRZ5OwHeT3e4x0LYix4rWpyIz4osfBjG8QEIPM5Jjfiyeux6uwHxTOexJvP7Hd21b6nyfFAVkmdP7iuKVK05bFMXtZ1Jke0ZW4mr9vwsn6kaMtjnbyuz8kRbVmskx/rO6Itj2Xysq4zed2GI9oyN5OXbUSKtvy3miJFWx7r5Mf6jmjLY538WJ+iLYtlckRbFuvkiLbMzeR1G36s74i2PNbJ6/qcvG7D6/qcHNGWxTp5XZ+T1204oi2LdfJjfYq27LecHNGWxTr5sb4j2nI3k5dtRIq2PJbJEW1ZrJMj2jI3k9dt+LE+RVsW6+R1fU6OaMtinfxY3xFteSyTl3Wdyes2HNGWuZm8bCNStOVuJi/biBRteayTH+s7oi2PdXJEWxbL5Ii2LJbJEW2ZmykI2/BjfUe05bFOXtfn5HUbXtfn5Ii2LJbJEW2Zm8nLNiJFWx7r5Mf6jmjL3UxethEp2vJYJi/rOpMj2rJ1TaaskaH2v9eKv8I7uMQRMCZ/kNlmjiriuiajaIh3hjgx22w6/JZ4p413lkxHQzIWjAnLYJL5Dko8iaNkGVPT0ZCdKRYcqcARkaZ3pFkGloV1y+TOJTmjtOMZT+IoBY5i6dOnjz3HHScWXo7VINQt4mPyHOnVv39/e447frRbQahbxHjy8RzGwqQcTiy8HKt+xMJr3SKWYf78+dZIBdPH5L22W37ULScWXuJJCxYssM4jJnfnnViQ6Z3doNQtKisrQ05OjvFj8l7braDULWLbyZGhpqMhnXbLayzIa93yGguOkuU+mI6G9NpuBaVuEfsXLIvpaEiv7ZafsSDTukV8TJ5PJvGVKyb8aLeCULeIfXA+iWP6WiInFn6cE+MdCz6VxCcu2N8y2YYf7VYQ6haxHOxvMRYm++JHuxWEuuWYN2+e1V6YPibvNRZBqVvEVzQxn2P6mLzXY9WJRbzrFrG9YL/T9DF5r7EISt1yy/xIFBEREREREREREdmIKBkqIiIiIiIiIiIiXYKSoSIiIiIiIiIiItIlKBkqIiIiIiIiIiIiXYKSoSIiIiIiIiIiItIlKBkqIiIiIiIiIiIiXYKSoSIiIiIiIiIiItIlKBkqIiIiIiIiIiIiXYKSoSIiIiIiIiIiItIlKBkqIiIiIiIiIiIiXYKSoSIiIiIiIiIiItIlKBkqIiIiIiIiIiIiXYKSoSIiIiIiIiIiItIlKBkqIiIiIiIiIiIiXUJCKKyqqsr+ce1WrFhh/TcxMREJCQnWv90I/xmsXLnS+ndSUpL1X7e4PrfDv89ymKqrq7PW79atmz3HnSDEwo9tUENDg7Wd7Oxse447XmNBQYgnNTU1obW1Fbm5ufYcd/yon0GJRUtLi1U38vPz7TnuBCEW5GzDSyza2tpQU1ODgoICe447fsQiSPGsqKiwYmFSDj/qZ1BiwTIsX74ceXl5SE5OtufGrjPFglgveB5JTU2158TOj1gEJZ7EPlVGRgbS09PtOe54bbeCFAu2nSkpKcjMzLTnuOO1fgYpFux7chtZWVn2HHf8OFaDULeosbER7e3tyMnJsee442cs4lm3qLm52Zq6d+9uz3HHj/oZlFiwD15fX99p+p5etsHjo7q6Wn3PMJaD/S31PVdhLNhebMx9Tz+2QZWVldY5VX1PWO0F+51dte/J6zETVjJ02bJl9o9r5/UAdgLk5YP2YxvEJA/X58WKCeeDMo0F+VXhvMaCCUBuxzQx3Jliwc4oE1+miWE/Y2G6DScWZBpPYoeUdSOeieEg1C1ih5Sdc9MLFT/qZxDqFrEcPNnyhGOyDT9jEe94cn3GghfzJvXLj1j4GU8vsSDGgucRJr7ccvaD4nke8CsWtbW1SEtLsyYTQTgn+rENYtvJCzavnXPTzyQodYuYACTTxLAf9TMIdYvYv2BZTBPDfsYinnWLePOZfa549j2DULeIfXAeJ+p7rup78gaK6QW+Uz/jHQu/tsGbjIyFyb74GYt4x5MYC7YXXpKhXvbDz3h6jQVvuPKc2hn6nl62QWwvmBTuqn3PoqIi+1/uWMlQ+99rxV/hCYpY2UwqLXeMDTvXNamwxA+JE4Nj0gA4ysvLrQ/a9M4jY8GYsAwmH3ZQ4km8o8KYFhYW2nPc6Uyx4AUsO2HFxcX2HHdYBpaFdcu0IWGHmOIZT+INA55s+/TpY89xx4mFl2M1CHWLmCRfunQp+vfvb89xx492Kwh1ixjP0tJSKxYm5XBi4eVY9SMWXusWsQzz589H7969je5Ic32v7ZYfdcuJhZd40oIFC6zziMlNRicWZBJLCkrdorKyMitJbpLo8aPdCkrdIrad7Jib3kxy2i2vsSCvdctrLDiah/vQo0cPe447XtutoNQtYv+CZTG9ePHabvkZCzKtW8QLWN40KCkpsee440e7FYS6ReyD8ymDvn372nPccWLhxzkx3rFgknzx4sVWf8tkG360W0GoW8RysL/FWJjsix/tVhDqlmPevHlWe2GS9PIjFkGpW7Rw4UIrn2Nyk9GPY9WJRbzrFrG9YL/T5MaaH7EISt1yy/xIFBEREREREREREdmIKBkqIiIiIiIiIiIiXYKSoSIiIiIiIiIiItIlKBkqIiIiIiIiIiIiXYKSoSIiIiIiIiIiItIlKBkqIiIiIiIiIiIiXYKSoSIiIiIiIiIiItIlKBkqIiIiIiIiIiIiXYKSoSIiIiIiIiIiItIlKBkqIiIiIiIiIiIiXYKSoSIiIiIiIiIiItIlKBkqIiIiIiIiIiIiXYKSoSIiIiIiIiIiItIlJITC2tra7B/XbsWKFdZ/k5KSrP+6Ff4zWLlyJRISEpCYaJaD9WMbVFlZaa3fvXt3e447LAPLwm2wLCaCEE+qqamxypKfn2/PcaczxaKurg7Nzc0oLCy057jjRyyCEE9qbGxEbW0tiouL7TnudKZYtLS0YPny5ejdu7c9xx0/6mdQ4tne3o6ysjL06dPHaF86Uyy4/sKFC61jJCUlxZ4bOz9iEZR4EusFzyPp6en2nNh1tlgsXboUWVlZ6Natmz3HnSCcE/3YBrHtTE1NRU5Ojj3Hnc4Ui6qqKuu/eXl51n/d8qN+BqW/xf4Frz169Ohhz3GnM8Wivr7e6nMVFRXZc9zxIxZBiCc1NTWhuroaJSUl9hx3/PhMghKL1tZWLFu2zOpvmQhKLPyKJ/tbjIVJTDtTLIixYHvBc6tbfsQiKPGkxYsXW/mcjIwMe447QTgP+BULtheZmZlW/9NEEGLhZRsm12KUdGWYs/PrwsKR6YfkrE9et+GlohBPtgxwWlqaPcedyH0xFYR4EpN/rHSmjUhnigU7HuycsyGJlyDEkxgHJgFNG1Q/BCUWTACyzcjOzrbnuONHGfzgRzzZVvDCjbEw2Z/IMsQzHn7VLd5AYcLL5KTvRyycbXiJpR+xINYLJkKTk5PtObHzMxYUz7pFjAUvUkw7Zl4/Vz/j6TWWTPKwTphctFFnigXPI9yGyQ0DitwXU0GIJ7F/wWsP9T1X9bfY/zS9eeKHIMSTvPY9/ShDUGLB44Ptp/qeq/qe7G+p77kKY8FrVdPEsMM0FkGpW8T+FvM5Jn1P8rovQalb1NDQ0KX7nqZJXGtkKBuZdWHBmBAgVjaTAvJvsGHnuiysyTa4PrfDdU0rPXGkAstgcneesWA5+F9uw/Qi2M94eokFRypwOwUFBfYcd7gfnSUWHKnAi5WePXvac9xxYsE4mByQXDcIdYvYoHLUcK9evew57nA/+LmYxoKCULeINwzKy8vRt29fe447fsbCS91yYmEaT+KFCu9I9+vXz6gcfhyrQahbxDKUlpZaI1hMEj2dKRbEesFRXibJDScWZHqsBiWexJEKvGgzuaD3o90KUiw4UoEXKrm5ufac2PnRbvlRt5xYeIknVVRUWNswfRLH67EalLpFHP3H84npkzhBigWZboOY2GCfy/RJHD+O1SDEk5j843WJ6ZM4nSkWTArzKQP2PU224Ue75cTCNJ5cl+XwEk9iOdjfYixM9sWPdisIdYu4PmPBa1WTQV1Bi4WXbdCiRYusfI7JQCb+fa/HalDiSUuWLLFuqpncQOkMsTA9pqxkqP3vteKvsNNCzDabBohB5rqmGWsGiBN31jTIxMQGA2zaIWUsGBOWwSTwQYkn8ZUBjKlph7QzxYLJUHbETDukLAPLwrpl2phxdADFM57Ejjk7pKaP5zix8HKsBqFuEZOh7JD279/fnuOOH+1WEOoWMZ7shDEWJuVwYuHlWPUjFl7rFrEM8+fPty7aTJOhXtstP+qWEwsv8aQFCxZY5xHTZChjQaYjCINSt4ivDOBj4abJUK/tVlDqFrHt5AWb6WuJnHbLayzIa93yGgveiOc+mD4a7rXdCkrdIvYvWBbTR8O9tlt+xoJM6xYxGcrRTaaPhvvRbgWhbhH74LxpYHrz2YmFH+fEeMeCyVDeWGN/y2QbfrRbQahbxHKwv8VYmOyLH+1WEOqWY968eVZ7YZoM9RqLoNQt4o145nNMk6Fej1UnFvGuW8T2gv1O02So11gEpW65ZX4kioiIiIiIiIiIiGxElAwVERERERERERGRLkHJUBEREREREREREekSlAwVERERERERERGRLkHJUBEREREREREREekSlAwVERERERERERGRLkHJUBEREREREREREekSlAwVERERERERERGRLkHJUBEREREREREREekSlAwVERERERERERGRLkHJUBEREREREREREekSlAwVERERERERERGRLiHpyrBQKGT/uHYrV660/puYaJ4/9boNltMpq5dyNDY2Wuunp6fbc9xZsWKF9V8v++HEIikpyfqvW04sEhISPMWiubnZ2k5mZqY9xx1nP1gOTiaCULeopaUFbW1tyMrKsue4E1mGeMXCj7pFra2tVt3Izs6257gTWT+9xiLedYvHe0NDA3Jzc+057rAMfsUinnWLuI3a2lp0797dqByR9cJLHQ9C3aKamhrrGDE51vyIRVDqFrFe8DySnJxsz3HHa/30I56R2/ASi7q6OqSlpSE1NdWeEzv+/SDEwo+6RWw7WScYDxNeY0F+xZO8lKOpqcmKZUZGhj3HHafvafqZcB+cWASh78myeO17sgym9TMIdYvY92Sfy7TvGfmZmMYiCNc1xD44j5OcnBx7jjt+xMLZDz+24aVe8DOpr6+3+lsmnFiQaTn8iIXXukXcD/a31PdchbFge2F6rHmtn1yfsSCvdYvre4kF+548p6akpNhzYsd9cMoRz3Ni5Da8xIJ9T/Y7Tfqe5LVeOPtBXuuWSSxMY5cQ/oMhnoTXJwgBcrbhtbJUVlZald5LcoO8lCMI8SQ2qDxR5efn23Pc6UyxYKeDnbDCwkJ7jjtOOfyIRTzjSbxhwBNMcXGxPcedzhQLXqhUVFSgV69e9hx3/IhFUOLZ3t6OxYsXo3fv3kYxdfaDvB7v8Y4Fy7Bo0SL07NnTuBPWWWJBrBd5eXlGNxn9jAXFM560dOlS60KlW7du9hx3vLZbQYrF8uXLrUSo6Y21zhSLqqoqa33T5IYfx2oQ4knsXzDx1aNHD3uOO50pFrxhwKmoqMie445TDj9iEc94EvvgvC5R33PVoITy8nKrv2XCj1gEJZ68TmV/i7EwSVo5+0Fej/d4x4IYC16rmt5wDUIs/NgGLVmyxMrnmN5k9HqsOvtB8YwnLVu2zOp3dtW+p2kS2KykIiIiIiIiIiIiIhsZa2QoM7DrwuUcEUR83Mkka81sszNU3mQUDXF9bod/3/RRPOKdNt5ZMh0NybvZxG2YZL79jKfXWHCkAstiOhqS63J/ghALMq1bxJEKHBFpekfaiQXjYHLnkoJQt4ijFKqrq43vSDvHqpdYBKFuER/n4922fv362XPc8aPdCkLdIm5j4cKFVixMyuFHuxWUWHBfFixYYI0YNrkb6Ue7FZS6RaWlpSgoKDC6Ox8ZC9NjNUixKCsrsx7zNHns1Y92Kyh1izhKlqOFTZ7E6Wyx4BMGtL7RkPx7bFs+//xz/PDDD5g9e7Y1+oX9E5aDTGJBjCl5XZ9Mt0HcR27LNJ5+lCNIseDnalo//YwF+RVPtqNsA/n0xKBBg7DFFltgm222wZAhQ6zl0bCO8+m9Pn362HPccWLppQ13zgOm/QOu67XdIj6VxOOe/S2TbfjRbvlxTvSjv8VysE1kLEz2hXFgPLzEIgh1i7g+Y8FrVZPXzzixoM7Q9+Q1CfM5Jq9c8eNYDUrdIj6hxTbX5EkcP2NB8ahbJmUmKxlq/3ut+CtOY8adMw0Qg8x1vQSIEyuLaYUjP5KhjAnLYNKYBSWexE4HY2qaDO1MsfAjGcqysG6ZNmbOKyviGU9iMpSJctMOqRMLL8dqEOoWMRnKC/r+/fvbc9zxo90KQt0ixpNJL8bCpBxOLLwcq37EwmvdIpZh/vz51g0D02So13bLj7rlxMJLPImdc55HTJOhjAWZPuYSlLpFXpOhXtutoNQtYtvJCzbTR8OddstrLMhr3fIaC74ygPuwtmQo+x9TpkzBW2+9ha+//nq13+fFDctvEgOReOCxx+OX77Fjf5L/Likpwbbbbou99toL22233a8SGDwGeNOgb9++9hx3nDbcj3Oiaf/Ar74nk6FMbrC/ZbINP9otP86JfvS3WA72txgLk33x45wYhLrlmDdvnnUsmSZDvcYiKHWLvCZDvR6rTiziXbfIazLUayyCUrfcUjLUgNfGLCjxJCVDOygZ2kHJ0A5KhnZgPJUMXYVlUDK0g5KhHZQM7aBkaId1JUO/+eYbvPrqq/j444+tdyby3MuRdBxFp2SobIx47DnJUD5dM2fOHPz444/WeZPXX0yIHnDAAdaoUefYVDK0g5KhHVgOJUM7KBnaQcnQDkqGmlEy1IDXxiwo8SQlQzsoGdpBydAOSoZ2YDyVDF2FZVAytIOSoR2UDO2gZGiHaMlQbvejjz7CpEmTrEfieYG78847Y/vtt8fw4cONv1RHJEh4DPJ6Y/r06Vbi/5133rG+BGbMmDE47LDDrMfn+SoNJUM7KBnageVQMrSDkqEdlAztoGSoGfMjUUREREREXOONtk8++QS33norvv32W4wdOxYXXHABTj31VOvfSoRKZ8GLWtbnXXfdFWeffTb+8pe/YNSoUdZI6AceeMD6LwckiIiI/JaUDBURERER+Y00NTVZCdDrrrsOv/zyC4488kicd955VhKUo4pFOiuO+Bk/fjyuvPJKHHroofjpp5/wyCOP4Msvv/zfyCQREZHfgpKhIiIiIiK/AT5GNmvWLNxzzz3WFyWddtppOOmkk6xXboh0FXzkmaNEDz/8cOuGwOOPP269bkVEROS3omSoiIiIiMhvgF8m88Ybb1hfmHTCCSfglFNOMX6HvcjGjO/P5THAx+cnT55svTuX74sTERH5LSgZKiIiIiLyG+CXyLz44osYOXIkLr/8cqMvHRPpLPhlSb/73e+w1VZb4c0338RXX31lLxEREdmwlAwVEREREdnA+Bjwhx9+iOrqahx33HHo1q2b0be2inQWrP/bbbcd9t9/f+sbjd9++217iYiIyIalZKiIiIiIyAbGdyN+8803GDBgAA4++GAlQkXC0tPTsdlmm2HzzTfH1KlTrXfqMjEqIiKyISkZKiIiIiKyATG5M3v2bJSVlWHbbbdFYWGhvUREeINg9OjR1jt1P//8c6xcudJeIiIismEoGSoiIiIisgHV1NSgtLQUycnJGDVqlD1XRCgvLw/Dhg1DdnY2vvjiC40MFRGRDU7JUBERERGRDYgj3srLy9G9e3cMHTrUnisixJsE/Hb53r1746efftpgI0PLf3gLr0+6HbffHn268+4H8diLH2PqnArUtdkrSVg9ls//Ai/f9zDue38B2le4TVYvw0/vv4wn/v0G3vlxefjnJtRX/oA37roHk76oQG0zP+8l+OHt5zHpyXfwwfQKa63QimY0LZ+FyR/PQEVrO1ZYc0VE/JEQCovlhNPWtuqMwJOVyTuOeIevvb3dWpfbMMFyrlixAomJiUhKSrLnurd8+XJrfd6FNMH94P54jQWlpKRY/3XLiYWXeFJVVZW1nYKCAnuOO04sGE9+Lm5FxiKedYtqa2vR1NSEnj172nPcYRz5uZjGgoJQt6ihocEaxdKrVy97jjtOLLwcq0GoW9Tc3GxdwPIbT0340W4FoW4Rt7Fw4UIrFib74ke7FYS6RVyfX4ZSUlKC1NRUe27sghILP+oWsV7wQtbkm7GdY9VLLIIST1q8eLE1uikrK8ueEzs/2q0gxYIJwLS0NOTm5tpz3PHabvlZt7zG4q233sKtt95q1Y0HHngA+fn59hIRoWnTpuGaa66x3hv67bffuj63xtJufXfvcbjm7hfx7vJi9O5fiNVb6RbUVVSjOW8kdtzzCBx7xO4Ys0UJslw2PV6vmam1tRVLlixBv3797Dnu+NFuOfHk+omJZfj+rUdw6TEP4/Oj7sP8W8cjM3X92+1ow7/Do3++Crd/nIVRf74YD53UC4umP4e/bPt/mHbpZLx82iYYkP8N7v3Dpbjrx74Yf85fMPG4TdFaXYrpb96FM/+VjolPXoDNCrKRZm87Vk4s4n1OdGKxKp7m/S32PXmtynOrW0E5J65et8xjsWjRIiufk5mZac+JnRMLimc+xo+6RWwv+KWM7GO4FRkL03bLj1h4qVum9chKhrLBXR8Wjkz/EIPMibxug0E2+ZAclZWVVoBNO+dOLLyUIwjxJCa8WOlMO+WdKRb19fVWMtT0PV5OOfyIRTzjSY2NjVZyuLi42J7jTmeKRUtLCyoqKowTw37EIijx5ImSiR6O3DCJqbMf5PV4j3csWAZ2wtghNelEdaZYEOsFO6T8Igy3/IwFxTOetHTpUisRyk6pCa/tVpBiwZvPvGAz6ZxTZ4rFK6+8Yo0869OnDx577DHjiwWRzopfMHbTTTfh5ZdfxsyZM10ne2I5Vr+//w+49p4pWDh0An5/+t4YYc9fpQrzPn8PL7/xNj6dlY9d/nA2Lvzrkdg2x91x77XdIl6b80Y8+1sm/Gi3Vt9GOWZ/8Qbuv+p1TNv9Qjz7562RnrL+/evoY8zEm7c9hGe+y8TQw36Piw/sjrLpz+OiHS7GtIs/wgunDsWAvFl46Zr78fycIow64micu/cA1Mz9Eq9eti9O/O5MfPTeBdiqKMd1MtTZD4rnecCv/hb7nrxWNbkRH5RY+LENYgKQ+RyTG/HUmfoYvPnMfmdX7XuaHA9kldT5g2ub1hTtd2KZHNGWxTJFirY81skRbVkskyPaslimNUX7nVgmL+s6kyPaslgnL+uvKdrvxDI5oi2LdXJEWxbLFCna8lgmR7RlsUxrivY7v8UUKdryWCcv668p2u/EOnlZP1K05bFMjmjLYp0c0Za5mRzRlsUyeVmXU6Roy2Od/FjfEW15LJOXdTlFirY81snr+py8bsMRbVmskx/rO6It/y2mNUX7nVgmL+tyihRtuZvJyzYiRVsey+SItizWyRFtWawTO/i82OBFghKhIr/G44SDVZzRRW6nSNGWc4L1a9ko6rMptt9tV+y62nQIjvvr7Zh40UHYZ9gC/PDz9/j4p7aO9cNrhlrrUbWsDIsWllrvAF60eBkqa5vQutLevmNFM2orlmLxooXW75UuLMOS5dWoa1nJwvH/4akFNUvKsLSqHnV1taguX4yF/N1F4XkVtWi2H0X/398PrxNqa0J9dTmWlK36+6ULF2FxeQ0a20MIhUu46vfa0FRbgfKly1FR24DG8O+X2eUtXbgEy+ta0LoiYrtYgfaWOlQsWbTq74enhYsWo7ymES3h7a4qQw/02+JQXHj/bbjvj5tbiVCWv3bZEiwLl7W2rg61y5dgkbX+QixcXI6qppXhMq2SkDAQY/9wIa657iyculu/8M+cuWoZsRQJCYOx+2mX4Pp/nooTdukVLlMDapYtRWVjOGbttVi6aBGWVDehprIc5YuXoiJcvvCnE17PmcLbCTWhajFj2oimcNmdZdbf+N/vuZ8iRVse6+TH+hRtWayTI9qyWKZI0ZbHMkWKtjzWycv6a4r2O7FMXtblFCnacjeT6TbWFO13Ypm8rMspUrTl65qMhTtn6xXuvIVaWlqsif82ET6xWeu3trbac9xrb2+3ttHW1mbPMbNs2bJQRUWF/ZN73AeWg/tkIijxJMaB8TDVmWJRU1MTWrx4sf2Te6yXLAfrqSknFvGMJ9XX14fCnSH7J/ecWHg5VoNQt6ipqSk0b948+yf3/Gi3glC3iJ/J7NmzjcvhxMLLsepHLLzWLeK6c+bMsbZjgut7jYUfdcuJhZd40vz580ONjY32T+44sTCNJQWlbtGiRYtCdXV19k/u+NFuBaVu0ZIlS0JVVVX2T+75FQtOpvyKxXPPPRcaM2ZM6Nhjj7XniEikX375JXTaaaeFCgoKQs3Nzfbc2Dlt+LqO1W/uOTZ0+GZbhQ46+9HQVHteJOucOOeJ0BVHbhcasduZoYtf77hGWtnaGKr45LbQGbv0DfXslhxKTEwL9Rg8LnTs1c+GJi9bEWIrtaoNbw41zX0x9Pejtg9tkp8RSklMDKVkFYdGHHB26Nr/Lgw1Wc0ZzzNvhy7arF9o9J9uCV1/3WWhs/YcEeqenBhKzesf2vSgv4b+9eH0UHtk27eyOVQ+9ZnQXWftFtqsOC3895NDqZk9Q0P3vCj06I+1oar/NXPfh5654pjQntsdEDrimodD/z5v91D/jMRQUmJCKCFn09D+174d+nxBo1VeWtmwIPTzm9eHfrd5USgjXNak8JReMDy016X/Dr32U3moqY1lXRD67o2/h/brPiCUf9rboYYWzvsg9I9xm4d2Oury0N+uvyZ0+YQtQz3TEkOJKVmhrEF7hU56blFoaU2T9ZmsWPFF6KEz9g9tufmRoT/c/1143fLQwmn3hI5Mzw5tdvWPoTkVPF99Hrrn+PC+jTohdNajn4Zmvndf6JwhiaGEBOZUE8L7mxga9OenQ1ectFdo78Hbhg6/8MnQN5Gn65Xhz73uP6FTh/cObXPyY6Hnf1h1HvbjnBhL3Vofp7/F8ngxd+5co+ODgtI/cOLptb/Fa9WGhgb7J3f86G85sYh33aKysrJQbW2t/ZM7fsQiSH1PN8zGsIqIiIiIiIh0Im0LZmFxZTma05KRk7HqNTht1aWY8cAEbHvElXi5aSwOv+hGTLz5Qhw+sglf3vV/uPD0v+P50vAvhlqBhg9w5eHn44EvkzDid3/FP2+7BVecsAP6zXoC911yBv7+7uqvpyt/6QZce/Mz+CpjLE69+p/4v8NGInnyA7jsTxfivtkrUbfqVX5Y/PYNuPKyi3Hla/XIH/8XXHf7NbjqT1sjcfI9OG/cQbjtv3OwoHHV71L9Tx/izXuux+WTu+GQK+/BvdecjvHFS/D5jWfjzpc+xpeV4V9qW4CvX38El5x6Jz5MGYPTrrkfd99zDc7cNgHzHjkH1979PN742S7AWlS8fQ/uuPs/eGfF9jj5qhvwjzP2wuD6T/DkKYfi1q+rsKTZ/kVXMlE4fBz2O/cS/H7rNKDHXrjohom4+sjt8cdDx2HQ0Hr8smAavvrJ/nVa0Y6W91/FZ/X9sM1OgzG0n9njwiLSdSgZKiIiIiIiIl3XilbUTn8D9z74Fj7+OgNDBw3HNptlh+dXoHLhW7jjpi+xcvy1uOP2y/B/px6Ho487E5fedCOuPH0c8ud9iIee+gxtbc3A1JfxamkqdjrjYpx93qn4wzG/x8n/91ecderhGFlXislTv0dkOrSlMg2jjzoL519+Kc458U8485JLcf0NR6Nn2Ve49rY3sby2CaGq/+Lpp97D+8u2wN6nXYY7rjkLfzz6j/jThdfhP8+dhe1av8fjj76Dn+eV/+8b11e0dEffwfvjr3fdggv/eAQOO/Fi3HfXn7FjSTOmfTcXsxfWA0tmY8GP3+HHrC3xp+tuwl9OPAxHHHEizr/9Wvx+VB+0zJmBmQvKsK50aGt9H+x88Gn46zV/w5knnoCTz/k/3HH9MSiq+gH//XwhaupNvpY/GVlFA7D5LuOwY78UoPsIjD/wQOwxqgS9x4zFdgMGIH3ePEz97hf790NY0d6Ej15/H9UlozF6UDH6uv3mKxHpcpQMFRERERERkS5gLr545Tacd/DBODhyOnQCjj3rStzzaTN6H/gHHHf0Ptg2Pwmoq0Dtd5/g5bIm9O1XANSXo3TWL/h5xlwsXNKOlclpSGkuxbz/fo5pzL9lpCA5VIWfvvoWcxbWoj01Bz36bIldfncurrrzFvzjkIGIfGtwaPO9sftu47DH5n1RUliIngNGYcvt98fum9Wh7PkP8UNjC5b8+DG+nLkMuZttj732HouRA4pR0KMAhX02xcid/4hj9klG65R38fWCpVhmZ0NDheHtjR6LQ7YajN6Fecgr7IMhO22HTXPTUbNgMZaXVwMpiUhMbUdT9UJM/fQ7LG5KQVpOAUqGjsexl9+G6//6exy0ZY91JgxCg7fAqNHbY9ywviguDJep/2AM32EURoRaMGv6fDQ1tdi/6U5ScioysrKRlRoOalIGcnK7IyczHNuczbH5lv0xcOUcLPjyG/zC731Z0Yj2ig/xwrtV6LH1LhhcUogsZTlEZD3UTIiIiIiIiEgXkISUzBzkFRWjuKgQBbkJaJj2Ad56/X3MTN0SB5x8Ni446wjsuXU/5CUBbQ21WD7rRyxub8X8d+7FxBuuxt//fhWu4vSP63Hfc+/jm7JaNC6diRl16cDgA3D02HzUfvk07r/2Yvzl3PNw0eV348lPypE4eBR2Gr56cjFv+Jbo37cYec6XISekIzO7FzYfkYOEpV/i52UtWF46H9UNWeg1oB8GD8gJ74EtIRmJ6f2wzVZFyGiYg9KKOlQ7ucdu3ZBeEN6/yMxrZjd045dUNTWjtbUN6D4Yg7fYAbv3r8Tnk27EFRedjbP/fAEuv+FFTG0oRP/hQzC4Z7d1JwzyC5DdPRs5TqESk5AY/ju54X821TdYX4jlq4QcDNlyJIb0bcPiOV/hs7nAyuZ6VE19De8vHoBtdxmGXoWZHTESEVkLJUNFRERERESkCyjEoK32wtHnnINzOJ17Hi74v/NwzHZ5yE5oRGJRP/TuVYSeGasuk9vb21BfX4fEpCIM3nobbD16O2wXMe2672H4/Zln44wTd8Pg5FQgfzQOP+UcnHvC7hjVowkLpr6N5x67D3fedhNuuvNf+Nd78xE5VjIrOwupaU4mdBV+q35ODt95WYGahpVoaW5GaGUmMjMzkJG+6nciZWVnh9dpQktLe7i89kxe5ies51I/vRgDtjkQJ//5dJx2wAjk1vyMT19/Ag/fewcm3nIjbpv0Lj7+uRLrfNDd+hu/bUqh+yZbYdjQ3khZNhuffbsILQ3l+OHtj1BaMhY7jyxAYbZSoSKyfr9tyyUiIiIiIiISFxnI7dEHQ0duik1Hbo4tth6LfU+6EBeeeTCGLnsXrz7+MJ758CfMq1k1opGJyfSMbkhMycLmR12Ciy77B/7xjzWnv+HCsw7HdjlcIx19x/0R51x4CS67+EKcd9bJ+P2Esdg8dxl+evle3Hr/O/ilCVgRsjaPpuZWtLWvPnpyxcoVqKtrDP/xEvTIDv/99HQkJDahqak5/Pv2L0VoqK/HypXZyEhPQcqq73yKUTKySjbDjr87H/+48m+49MLzcNapx2PCHsORXfYuXnp0Ep7/cAaWrP6dT/HXYzhGDB+B4UmVmPHpZMxb/jPe+aAUPcfth5FF2VAuVERioWSoiIiIiIiIdEEJ4f93w4ijL8HJh+yE4tmv44UnX8SrXy9G3UogOTMbPQYMQn57GT77cDYqGlr/9yVF/Pb42sWz8MOnn+LT7xahbkUbGhZ8iU8//BIza9LRY/NxmHDShbj6pjtwwyUn4dABDaj+6mN8XduRDK2eOxfLyqvQwHdf0oomNFYvwo8/1yKh347YojANhb37IiezDmXzF2DugvqIv9+OlS2L8O33S9GYOgS9CnOQE2Xk6Nq01S7Bgh+/wGdfzcby9IHYdLfDcMbFN2Di3XfhkqO3wSZNv2DBrFmY12SvEBgFGLz5Jhi1SQg1H7+Gd76agvfmFGPsATuiOCdztXeyioisjZKhIiIiIiIi0nUl9cb4E0/CHtsNRN3Hb+GNl9/F1PJmJOQWIn/bvbBfXiK+e+JBfPD1T5iztBJVVRVYuvAHvP/Ezbj81LNwwZ2fY1FLHZa993ecdcyfcdMLn2Lq/HJUVNWguqoaNfXNaE/phpTcPOQmAwn2l523f/EuPv3sc0yZtxTLKytQvuAb/PjJi3jzp3wMPHYvjMhKR8/Nd8Y2gwpQ+cOXePedyfhl0XJUVVehcslM/PLFo5j0ehsSt9oOw3v2QL6LL1FvnP8p3rzzIpx66t/x+NfzUba8BjU1NaisqEZjGxDKzEFGZiYy4zTSkruSmBgCWquxvLoWtU3taLeTxnmDRmDoFn2QVvoGnn/8a/yUuxf22T4T2RkuAiAiXZqSoSIiIiIiItK19doPxx87BmM3XYCP3nsFjz//A+pRgPw+e+Os87dAYeWjOPf4P+NvtzyIxx67F9dfGP737U/hp6ItceCJe2N4WjoGjtsfm3RfgueuuBCX//023DvpaUy6+5+47oY7cN+0Agw+5Ajs2wNIcXJ2oe/xwp1X4apLrsU9D9+HO665HKf/3yuoGLAPJp6zPfKz04D8PXH0MeOxa/4XeGniZTj1/+7EI089iodu+Asm7H8TPsWmOO60AzFqcE+4GBiK3H6DMGSrTZA8/z1c98eTcPHdT+PZZ5/Gg1efjr898AWm5++IbbbfGltk2Sv8xpJTkpGXm4aUBS/hvn+/iFe+LEN5nf1S1Lyh6Dt4FEYkV+CjKdORsffeGJ+TrG+RF5GYqbkQERERERGRLq9kr9Nx+PhdMbr8LXz++uOY9DOQmtcPW5z1Cj6970xMGDgH/733Clx00d/x4Id16LnvFbj6lltw4fZZQFImMOAk3P/k1ThpTCpKX52If/7lLFxw3ZOY3LQ1TrjiLjxz4Y5Is/+WZZeTcfqhW2FI6bO46W9XY+KblSg+6jLc/sBfsEf3RKTbV+sle12EK/9xHa7cPxtV79+Iv55zMa54+Fus3PfccDlexgW7DUI/fueSGzlbYJcjLsD9d5+EnVN/wHNXn4UzzzwLlz3yA5J2uQA3XnUWTtljIFy9htRH3Qr6YNsjL8CuhYvx3xsvwBm3vYQv5lTYS/PQr98g7Dy2CN2yumGvffZCt5RkazSpiEgsEkJh9r/Xir/S1rbqe+RSUlKQ4Izrd2HlypVob2+31uU2TKxYscKaEhMTkZxs/jaQ8vJy62XY+fn59hx3GAvGhGVgWdwKSjypsrLSimlhYaE9x53OFIva2lo0NjaiuLjYnuMOy8CysG5xMtHauuoN5fGMJzU0NKCqqgp9+vSx57jjxMLLsRqEukXNzc1YunQp+vfvb89xx492Kwh1ixjP0tJSKxYm5XBi4eVY9SMWXusWsQzz589H7969kZq6+rfAxoLre223/KhbTiy8xJMWLFhgnUcyMjLsObFzYkEmsaSg1C0qKytDTk4OsrLcD6Xxo90KSt0itp1paWno3r27Pccdp93yGgvyWre8xuL555/HLbfcggEDBmDSpEn2XBFxzJw50zpGnn32WSxcuNBqO9xw2vB1HastNUtQWd2KUGZ39CjMWT0pGbbqnNgW/r1q1NY1oj09B7kFRejO5iPcPq9orER5Zfh6oaXdeudnQlIqMrK6h9u4bHRLTfxfGx5qrUddbR3qm9vQHv7FUEK4TGndkNM9H3nZqUi03vr5X/zfyJPweMmfcMV5B+HQzXNR1xyen5yKhJRMtIe3MXRg/4i2L/z3WxpQX1uD6vomtLaHkJCYjJRuuSjIz0NGSgISrV9tQU15BSrC+5mcV4B+BZHnoiZULlyGWnRDbl4u8rqFzxEr29DaWIuKyho0tKwI/5WwhPB2M8P7np2J7MxUJCeF0MLfWVKL5qwiDCzMDJeL2yoPbyuzY1uWlVjRXo/yuUtRndYDvXtkoltGCPXLq1DdnIi03Dz0zE229m/5guVoye+LXrkpSEkKl3tpBapbkpHZPQ+FOeGgh1agtaEKU6d+h/yevZGYU4ySHtnISlt1jq6f9jJeuv1KXPj+9pj45d04ODd83lvjVOHHOTGWurU+fvQ9ad68eSgpKXF9fFBQ+gdOPL32t9hOMJ+TmZlpz4mdH/0tJxbxrlu0ePFiq9+ZnZ1tz4ldZ+t7umF+JIqIiIiIiIhsBNJyi1HSv5/1RUNrTyUlo1uPYvQeNAT9e9mJUApf5Cd164HivgMxaMhQDB06FEMG9UfvolwrERopITULPUr6YUB4G0PCvzd0yGAM7FuMHlYidE1JSM0uQFF4u4OHDsHggf3QuzAba2wyLPz307KQW9gb/QcOWfX3Bw9E/+L88N93EqGUhqz8nujTvxd6dV/zofkM5PfpjwF9CjqSl4kpSM3qgRI+Ms+yWuUdiD7cr7Qke6RlMtIy89Fr0AAMKmIilPO4rfA+Rm7Lkoik5BwUh7czuCQbaSnckTTkFPVCv37F6JnLyCchOTUXxeG49M9PRUoSN5iO3J7hfevXc1UilBKSkJjeHUV9BmDwkPA+9+r+v0QoQlVYtGAOvpyZgO577ofdchOQ7D6HIyJdmEaGGvB6Zyco8SSNDO2gkaEdNDK0g0aGdmA8NTJ0FZZBI0M7aGRoB40M7aCRoR0COTJ03jt48sV38NpXZcgdvC3GHHEWjhkZfR8bZ76H9998AU9OAXr03hknXX8UNgvP72hBV6Bh8c/47tMP8P7kbzFzWSPCtTD84eWgz/AdsfuBe2HbwQXIS4toc+sWomzKf3DRoz8A/Q7FX8/dHZsUZmH1T6oFNQun4d0778YLOBRXXLw7BuSmIwXz8PFjz+PNaUnovdchOGOXLCz/5V1cf90rWBJea90XNzwutsUptx6PbQqzYT1Z3FKJ0p++wCcffIApPy7E8hbOTEBGz02w+U77Yr9dRmBAYbfVki1NFQvw3ROX4J4vw3vvfBN4pIQUpHXviyGj98QRh+yCgXyK2l6/7ofn8fLrn+PnjO1wwHFHYHReO9qayvDfa6/EiwsSMeiw83DoziMwJG+Nc1RrPUI/Poo/3zcV/Q75G47YcRAGRh5eoVY015Tixw9fx6v//Q7zq5rRxrIlZaB7yXCM2nlX7LrzVhjS3bwubyi/xcjQ9fHaP4i9DY8cGXoK/nn5CfjjLh197paWFmukF/tbJm2fH+2WH+dEP/pbLAf7W4yFtS8N8/D9l99j6hcf44tPPsG3S3ti7HUP4vrxBfYaq/PjnBiEuuXQyNAOGhnaQSNDzZgfiSIiIiIisnGq/AXffPQq/v3vf+PR/7yK5z+aBfurSdbQiEU/foa3Jz0a/t3n8eJr36yecFxZjTnvP4lHb70W1977BF74fBaWNyciYSUTpFPw3uN34dZ/XIbbn/kM3y5qwv/yhi01qJ35QXibk/Dvf92M+96bi4XVqy7IOqxAc81CfP/aM3jitekob2qz16/E3Kkf4o3XPsanM6vChWlHe+MyLJr5C2aFp1+s6Wt88vYreP75N/D25G/teZxmhaclqG4PX3iFt9S69Eu89cRduP6ft+P+/7yPr0obrH1LaKvCzE+fxcN3XYurrnkEL06Zi2URxWtvrMb8T57EU098jJn1rWhLSETi/6Z2tFTPw08fPov7Jt6Kv//zJcyoa8Gq9H5415f8gK/ffxVvffwdSps4ZyVWtlfh5zf/g+eeehz33vEM3v9+ASpYwEgrWoCFn+KFZ5/Cf6dXoKLZnh+2smkp5n35Iu647Cpce+u/8Opnc7C4IbzdUCJaa+Zi2gdP47FbrsdNdz2GF6ZV2muJbGTalmDa+6/gqQeexvvzkzFgv+Pw+22iJ0JFRNbFGhlaU1Nj/xgds8XM0hKz9ybZ4shtmGZ6mXHmxL/v5S4CRwAy42wyaoOY9SY/YmG6Db9iUV9fb22Ho1hMcD+4P4wnJ7eCUreIo0J5JzYvL8+e447XWFAQ6hZxNCRHh/bo0cOe444fsfC6Db9iwZFJbCNNR0/7cawGoW4Ry7F8+XIrFiblCEos/NgG1+dTBrwjbdLu+BGLoMSTWC94HjEZfce/z3JQPPsHfsWCT1xwhKzJKNnIWJgeq37Ewo9tUHV1tTVCoFs3t9/qsYqf58R49z1fe+013HXXXRg4cGBwRoZ+fRcuuvou3PHGXCT32AJDdj0Z/3nkJGyy5qCOphl49fbbcOstj+Hzhu4oGHgcHvzxeuwWXpSEFVjy5eN4bOL9eGVmIlJH7ILxO26N7TcfhsLUFtQt/Rpff/wdJr/zEmbkjMEex52NEw/cASMLwp/H8mmY8cxfMeKMV60/03OPv+Omq0/EAVv3Rvf/laERS6e9i7uPOg7/wGX45J1TsU1xNtLwNR475yrc9l4KNj3rb5h08iZoLP8Zn3z4M6rCa61K1M7Eu/c+jbfm5GLYPgfipN2cJzx4fPfFdgdsjb6h+Zj87zsxcdJXmB/qgx12G4ttt90SW/XNQmJbJWZ+MxlTvvgQb3/YgJ5jjsSJZxyOA0b3RXa4OtaVfo/X/7Itjn9uHC568WLs2acHOgZptqCxciF+/uw9vPzis3hxxghc9ebTOGWbAhSlJ2D5O1fh2pv/g0+yJ+Ci26/GYb1a0VI3HfftvhOu/r4R5dgUe11wOS486QDsMTDi+GmqQOids9Hnjy9g80s/xNXHbIdt+UDTigrM/+otPDnxYTzy3nIMOWgv7Lz1aGw5sj+KuqWivWYWZv/wFSa/9SG+nNeGwgP+D7dcdhiGmR2aG4QzMvSZZ57BTz/95Hrkmx/HqtfzQOxtOFP6M/HydU/hy5wdccDeo7H94I7aw1FafEKL/S2Tti8IsSC/+p7sbzEW1r40zcbkl97Gh1/MRfvArbHD3gdhr03WPjIwKLHwYxu0bNky61rVZPRdZP3sDP2tiooKK59jMko2Mham9TNIsWB7kZ6eHre+Z7zrVm5urv0vd6xk6JIlvL+7biwYefmQvG6DQebEAJl8SA4mvVgGVhgTQYoFeSkHk14si8nwcnL2w8tnEoR4EhOh7HyYJsn9qJ9BiQXjwLphMtSe/IxFvOPJhp03DUwbWT9i4Wc8vdYtJob5yKtJOZz9INNyBCUWxEQPjxHTDpDXcvgZCy/bIN5k5HnESweIvMaC4hlPqqurszrmpo9l+1E/g1C3iDfVWCdMLlSoM8Xi7bffxn333RfIZOikb5uQnzcIK0P98Ofn/oXTB64eq+afn8Qdt72ER1/7AakZVahIiUiG1k/Hvy89Bbd+0IySfc7E2ScdhvFDs7FaS7CyFt9O+huuufkZTC8+Gsefcw5O37c/sipWJUM3Pet19B4+DPWzkzD+4n/gvD/ugR37ZdnbiDEZetpW1m+v7kvc/6dLccfXxRhz9kW4948j7fmOlVj64TW45JJnMCVpBxx21mk47cBRKFnjWrJp/pt46B/X4Z7/tmPokWfgovOOwI5FKXYydDSOf+4Q3P3z7Th0cE+s+QKu1mU/4btJp2OPCz/F5jdPw8PHDcbQHknrTobOKUK31OVoHHAQjjv1HJx7+Gj0cZKWa0mGNi38L1669xZce98c5B76F1x/3YkYnRf+fCKrbKgW8z6YhIdvvB9PL94O5z99N04eavY444bgJEOffvppfPPNN67bUD+OVae98GMbXtot9T07sAzsb3WWvqeXbRD74bxW3Zj7nn5sg9j3ZPLP9LFsv2JB8Ywnsb1gm9lV+56mrznUO0MNMBaMCctg8mEHJZ6kd4Z20DtDO+idoR30ztAOjKfeGboKy6B3hnbQO0M76J2hHfTO0A6BfGeonQx9uaovNttkKComT0H+X17Fs3/oGfEerVbMevJS3PxCGX5qSscWzW/g5cUdydDWKZfh2NMew/eDz8D/nXciTh6zlv7kytl49pyzcPNzFehz/Lm45PJjMKpxVTJ0i/PexSFX3Yr2p27AJyt2wsl/PQenHbw1+nbjcbgBk6Erl+KZsw/Eta+nYNTpl+L80/fDZms5bOs+vwn/d/l9eGfl3jj+gktx8b4laIohGYr6+Sj94HqMPfh+ZF8xBf85bXOMKEpddzK06Tj8fqef8f1nM1A37GSceP45OH6HHsjgIRA1GdqCmS/ejLtvvAOvpByAC+97AKcOW/Xnf6V2Gr5692Xc/2oTdjj7/3DiVsEZGhqZDP3iiy9cH7M8TnnM81g1bcPZXjjnRNP+gdOGs70wabeIbR9HAJr2wxkHp90yjYUTTy+xcOLpJRYsx6JFi6z+lsm+OLHg3zdtw4NSt4jvySwqKrKOD+4Tb8rHmjTnPgShf8AyOHXLNJ6kd4Z20DtDzSgZaoCxYExYBpPGLCjxJCVDOygZ2kHJ0A5KhnZgPJUMXYVlUDK0g5KhHZQM7aBkaIdAJ0NX7IJ9d90Bma/fgMd7XoHvJh2F3HC4rdaxfRae/duleGpuL+SP6IP+k2/G/RHJ0J9u3BF/vHMRBpx6O8476VCMKeJK0S1/5Tz85Yan8G3fE3H23/6BE4umr0qGXvAhDnl4Ic6rORNXTHwVi0ZeiHP/fDKO37EQaYkbMBla9zzO3/OveDrhQJz/t9Nw9v5DVx/RGmnFN3jkjEtx+1uJGHHaX3D7X8chfT3J0NCKNjQv+gbfPnoexlz1Pfaa+AXuOmooBucnrycZ+mfcfsd2qPrPg/jXs1XodfQZuPzqo7FdTvh4jpYMLZqJ12+4ATfc9j1WTPgrnrn7UJj1ZOPLSYY++uijOOmkk1y3w2w/ecyzrfBybud2uL5Jm0NsL8jLeYTbYF/c9DVmQYmFH9vg+rxGYyxMttGZYkF8+oTJP9Yv/nePPfbA+PHj7aXrxjIEoX/gV39LydAOSoYaCu/8eoV3LtTS0mJN/LeJ8I5Z64c7tvYc98IBtrYR/rDsOWaWLVsWqqiosH9yj/vAcnCfTAQlnsQ4MB6mOlMsampqQuGGxP7JPdZLloP11JQTi3jGk+rr60OlpaX2T+45sfByrAahblFTU1No3rx59k/u+dFuBaFuET+T2bNnG5fDiYWXY9WPWHitW8R158yZY23HBNf3Ggs/6pYTCy/xpPnz54caGxvtn9xxYmEaSwpK3aJFixaFwhcr9k/u+NFuBaVu0ZIlS0JVVVX2T+75FQtOpvyKxXPPPRcaM2ZM6Nhjj7XnBMDUO0MXHjoiNOygc0PXP/Xf0Cvn7xIq6HtC6N+14XOfE/J5j4X+duT+oSPOvD304LMPha7eoyTUb7OLQm+HF/FIeeu8TUIji3YPXfDYx6FZ1grr8MUtobP23yTUc/fTQ5e9Ee57lv8Ymn73AaGUjOzQEU/VhBZVzQ49cdJOoa3zNg0dcuHjoU8qWIiG0JIfXwpdPjInlDDyxtDkxbWhZmtjU0OPnn1QaNRmh4WOvecba86vfRG678Q9QyO3Oi506kM/2PMizLojdMyofqERv78j9OiX1fbMtVkSevvKo0J7FY0K7X3yI+Eth0K1C74LPfW7tFBq0u9C9/9SFloWriusL9bU2hKqX/hd6P07zwztlJMZSk49OHTPL1WhSrt5KX/7ytD5e48IjT780tCzizinJdRc+23o9u0yQ4Uj/y/0xJQFoaVf3R26cMJmoawtDw8d98D08HEQ/rXG5aGVLx0T6pWfEdr75i9CX7Lbuvzd0L8u3DfUf8juoT1unMKNrWblyhWhFZFlc6YVZsfVhvLLL7+ETjvtNA7SCSUlJWnSpGkdU0JCQujAAw8Mvf/++/YRtH5B6R/41d/itWpDQ4P9kzt+9LecWPjR9/TaxygrKwvV1oZP3gY6W9/TDbPbIyIiIiIi0imkFfdGnx22wuDmyXjx3RY0t656cKzsiymYu7InikdsjdW/sJnvBivF4jltaG5cNWe9evVHYfce6B5etW3Vq8VWl9Qfh57/R4zbMRVTXnsd/372K6z7K149Kp2LhS3NqLd/XLdCFPXqhh5FHGm8arTxKhy9/DIuHLMVRvbpYz1RY039+mPw1rvjsCtfxKyBh+Hqt+/FEf1ykOtiEFTGFr/DEQeMx0FJ/8WXz03EvdPtBWsKx7I9PGXk5FhPK6zp27uOwlFjIsrGafOx2ObyyQit9/nA3x5Hes2ZM8ca9eVm4tMac+fOtf4bbXks07x586xt8GmHaMtjmbg+Jz5JE215LBP3/7PPPou6LJbJiQX3J9ryWCYnFl7i6cTCSzz59z/55BPjcvBve42FE08vsfCjbnFivWD92HPPPa0RdJxExIyOHhERERGRLiwhswQFA3fELv1q8d4r/0VDSytCmIcvP5qJ1oz+GLLpMOStdtXAx+jykNMjCSmxvoGgcjmqGupRH95OcrQrkIQkpA+egOOP2Am7dP8MH7zxNB7/vM5euAHkFCArOQWxPdBXhcqqJtTU8tG9yIwmd2QIxv3xNJx+7gW44NyTcfS44eid1IwVeSOx70X34NUnr8aJo4uQl5ro6sIrISUPI/c5HAfusyu6T52Mp254HDNWPYEdFR+r5qvA1pRRMgLDRm2P7XfkNBLDBmRhxbJylNeueg1F0DC507NnT+u1VW4mruNM0ZbHMvm1vpdtcOL6fPWM17JEm+9mCsI2/IqFH+vHswzOxFgUFBRYr6DhsWLySLOIrOLmnCwiIiIiIp1NYjfkFQ7G+B1KUPP2y5hS24L6+V/g41lJSO8zECM2yVstBbgqGZqJvgO6Iz1jAcqWVqGiatWStakum4va6irk5uegV/FavvAjNR/D9j4GB4/dAoXT3sWrjz2LzzfU8NC+/dEvLR2tpWWorqzCOvKMwMrFKFtYi/KEAuT07oUSe/aqxOgg7HzI4TjyuGNx7HEn4axLr8bfzjkK+/SYi28+eBmvzk9BYUYiEl3nLBKRUbQ1xu53IA4cl4afPn0C/3xqtr0sQm4xinKL0KuuDvVzF6HCnu3ou8sJ+MM5V+GqKzmdj1OPHI+h9jIR2fisjHj/qEaGipjT0SMiIiIi0qUlIiOvEMPGjcaAJW/j/e8a8MvH7+LnlcXoPXgQhhVG+zKDRAzeYQeU5DXhu6kz8NMv5WtPKK5ciu++/AWlC/IxoGQoNu2/9uGk6cWjMO7AA7HHVhmY/f7zeODZKVhPntVM3mhst2kOcss+wbTpMzBrHc/Lt8z8Aj8sWIDKXv0xYMRQdHztKDOcGcgrKkLPXiUo6dUPg0Zuj92PPB5HHLATes98GU/eeRMe+aEJTe0Gz6QnZaPn5uOw54Q9MS7nG7z34O14ajrC27KXU2o/DBzcF5sVlaHi58/xaZk939ataBAGD98SW27BaVMMHdAT7r9iQ0SCQslQEX/o6BERERER6eISu+Wj+8jx2K3XfHz8wXt456XP0VqyCYYMGYDiteQu87b+HfbcuhihGW/hjbc+whfz63+dEF3ZgNnvTcJz732HZUXbYevR22PT7vayaBIy0WvL3bH3IeOwTffZ+OD5l/FJBeD76y2TB2DXg3bBZtlLMPXNN/HyxzOwJMqT463LvsQbT7yGj2eloN+obTB2m15Is5dFl4zsvlthp4OOxpHjBqDxw6cx8Y7XMa2mBS0m+dCcvhi20774/YFboeCHl3H7iz+ioTkyG5qN/luPxo5jByL1l/9i0sNv4vuqdqxY82+F2lG/cAHmTZuOOfYsEdn4rFix4n/JUD0mL2JOyVARERERkfXgxWd7e2QSqpNJykJmwVY4YJcCzP/oATz/UT0Khg7HkIGFWOs4zh474qAjD8G+JUsx653HMPFfT+G5dz7D9z/Px7w5szD963fw2hMP475b7sNH9cXYbMKB2GvsMBSu7/q920CM3GlfHLnvZuhb+SO++fWrMH2QjMHjj8GhB26LzEWf48V778MjT7+B/345HXP4hSszf8Cnbz+Dx/91B25/di5ae++JQ/bfFTsNXHcq1JKQgYLB22G3o47FPoNa8N1Td+KR92djWT3fxepWMnJ6j8T2B/8Bv9uuB776/Hu0trbZy1bpPnh7jD3oGOw1NIRvHr4Jdzz4CJ58/X189sMszJo9Bz9//zk+ePUZ/Pvex/Gf17/D0p5DMGbLklUDW0Vko6KRoSL+0NEjIiIiIrIeHI2zfPlyfPfdd6isrLR+7lySkJZZgB0P2AkFP0/B1y3DMXBYP/QvWtc3JCVj0D4n44QTjsaePZfjp5fvwj+vuRG33/svPPjAA7jr1r/jH/+4G+9VlWCLwy/EyYfuhp36xvaVRZn9R2H0Pr/H8Tv2Rro9z3d52+OQP56APx22KbIXvo8nb7oa195yFx548EH8677bceM1V+Cmp2agecCeOO7sY3HI7iOQH+vVU3oxem2xD047ZUcMwkd4/O4n8fnMKtStnseMTVJ3FA7eBceefwS2KgRS1ixDShE22WE/nHTBCdhnWDN+fPxa/P2f/8QNE+/DvQ88iLtvvwHXXnk1bntiMmalb4NDf3ccLjx0hHKhIhshZ2QoR4VqZKiIOSVDRURERETWgxegCxcuxD//+U+89NJLmDFjBqqrqzfe0aIZ+ejZbyiG9itGDzvbmJiWifxdD8NeW2yFrffZH6OHlKDYHgiZkpmHwgHDMGxIT2StmrVKYhG2OPIiXHzTrbj2lL2xTcYSfPPuC3jptTfx4fRklBzwZ1x811O49ewDMW5IdscXMSWlIS2/PzbbdFP0zU389TfMJ2Sh94jtcfhZJ2LnzUZg5JACZIZ/adWlfwa6l/TD4CH90Cd/banSDOT3HoAhg/ugV97aR3Om998bJ1x0Le649QIcv2sREud8iFdffhkvvv0FlnTbDoefcxMefOAynL7fSPSL2ExiSjpy+26KzTbri7zU5DW+YGqVtB79MPywS3DB7ptieOV7mDK/GksbgeRuRSjuPxSD+vZEjvU61gQkJKajx+Dw7w0pRm5myq8u0pKyi1Gyy6m46ncjsd1WIzGgIAMZka9y7dYbQ3Y7ETc+/iju/dvJ2KOkDYumvo23XnsF//2qFM3F22Cf0y/HjXfchQeuOBrb5dvrichGRSNDRfyRED6Q1vu0Bn+lrW3VbcyUlBSjOxA8aNlZ5Lrchgl2QjnxoE9OjvYi99iUl5cjKSkJ+flmvQDGgjFhGUwaoKDEk5yRDYWFHa+Cd6MzxaK2thaNjY0oLi6257jDMrAsrFucTLS2rnpZVTzjSQ0NDaiqqkKfPn3sOe44sfByrAahblFzczOWLl2K/v3723Pc8aPdCkLdIsaztLTUioVJOZxYeDlW/YiF17pFLMP8+fPRu3dvpKaua9RUdFzfa7vlR91yYuElnrRgwQLrPJKRkWHPiZ0TCzKJJQWlblFZWRlycnKQlbVauigmfrRbQalbxLYzLS0N3buv6wWRa+e0W15jQV7rlhMLnhNOOOEEvP7669h8882tf++5557o1auX9TfW1qY8//zzuOWWWzBgwABMmjTJnisijpkzZ1rHyLPPPmvddGDb4YbThvtxTjTtH/jV92xpacHixYut/pbJNvxow/04J/rR32I52N9iLEz2xY9zYhDqlmPevHnWfpx44onWNeu5556LUaNG2UvXzY9YBKVuEdsJ5nMyMzPtObHz41h1YhHvukVsL9jvzM52//V4fsQiKHXLLfMjUURERESkC2En/89//jN69OiBKVOm4Oyzz8aRRx6Je++910qEi4iIbEhMGDGBxaSRSeJKRFZRMlREREREJAYcxbLttttihx12sEZgcPTq999/bz06f8QRR+C6666zRkqLiIhsCByF5yRDOYmIGesxeWdY7Lo4B52XoczOMGLTg5Z/n+Xwsg3io+Hcj9zcXHuOO37Fgky34VcsampqrLKYvjIgsjE2vTPlNRbktW5RfX09mpqajF8Z4Ecs/KpbXmPB1wXwtQGmrwxw6qcfsYh33eKjSvzCDD4ObcKJhZfPJCh1i48/cOQTX59gsi9+xMLZhh+x8LINrs/Hc3iMmDwO0pliQawXPI+kp5t9zYnXdiso8SQ+Gs5Hlbp162bPccdruxWkWLDt5KOuJo9tkVM/43lOXFs833jjDVx66aX48ccf7Tmw9rWoqAgDBw7EHnvsgcMOO8x6LJ5tBN8xetttt+kxeZG1iHxMno8Cu321hR/tltPm+LENL+0Wb7IsW7bM+HVVa2u33AhKLNiGs7/FWJhsx49YONuId90ixoK5m9NPP906n/BJhc0228xeun5B6G/5FQs+Gs7X8Ji8ook6U9+T7QX7nZ2h72myDdNH85OuDHN2fl1YODL9kJz1yes2vFQUYsKL23D7LhpH5L6YCkI8ie++YqUzbUQ6UyzY8eDJxeS9I34JQjyJcWAS0OSdd+TnfnjhRyyYAGSbYXox70cZ/OBHPNlW8KYBY2GyP5FlMI2Hn/XCC26jrq7O6nSYnPQ7UyyI9YKJUJN3/Pgdi3jGkxgLXsSbdsyccnSGWPDGGjvWpu/rDFIs1ly/oKAAP/zwg/UeZZ4vif1p3kjkxeqcOXPw9ddfWzcK2K/gf/kzL9wmTJhg/b6IdOBglc8++wzTpk3DOeec4/qi3I92y89tmLY5xLaE7af6nqv6nuxvqe+5CmPBa1a+t5o3oUePHh3zQB4/YxHvukXsbzGfY/p+Sa/74mc8veL3fbDf2Rn6nibrmyZxrZGhsSRDmRAg/iGTAnLnnL9jWmHZGDrZYtMdpoqKCuviNS8vz57jThBi4WzDayz4LajcDt99ZYLrsiymsSC/4uk1Fjy5sOPRs2dPe447TixYt0zviAShbhHjwLrBL4Qw4RyrXmIRhLpFvMjl3ba+ffvac9zxo90KQt0iboMX+f369TMqhx+xcLYR77rF9ZkEKSkpMep4OMeqH7GId92iRYsWWecRk5GhTiwonv0DZxteY7FkyRLros307rxzrMazf+BXLD7++GN8/vnn1ghRE9wXMj1Oyes2nPVpzW189NFHmD59unUREvl7Dv4+R+5stdVW1ufJ5Ok222yjkaEiUUSODOUX5rgdtOJHu+VH/8CP/haTXTyXsL9lwokF/348+wd+xILlYH+L/XCTfeE+BOGc6EfdIsaC12lnnnkmNtlkE+u91cOHD7eXrpufsYh33SLeZGQ+x2RQlxML6gx9Tz6VxH6n6UAmr8dqvOuW6d/Ut8kbYCwYE5bBpNIGJZ6kb5PvoG+T76Bvk++gb5PvwHjq2+RXYRn0bfId9G3yHdg517fJr/LII49g4sSJxhf1jAeZxMGxIbfBm+t8TI/nzHXhTRO2Fexz7bjjjkqGikShb5PvoG+T78By6NvkO/AVEjznnHXWWRgxYoSrZGhQ+gd+1C1iO6Fvk19F3yZvRslQA14bs6DEk5QM7aBkaAclQzsoGdqB8VQydBWWQcnQDkqGdlAytIOTDOVTBscff7w9N3Ysg3OsuuHEjetyGxT5mUYup8if14w548mJ8yO3we0+/fTT+PDDD62+VDR8fyhH7jABym1/8MEHGDZsmJKhIlEoGdpBydAOLIeSoR2YDOXTjHxX6MiRI61kKM8zsfAjFkGpW6RkaAclQ80oGWrAa2MWlHiSkqEdlAztoGRoByVDOzCeSoauwjIoGdpBydAOSoZ2cJKh48ePx80332zPjZ3TbnmNBXmtW2vGgsf/iSeeaD0q7/wN4u/wsT0mgHfZZRccffTR2HLLLfHWW29ZiR59gZJIdEqGdlAytAPLoWRoByZD+SozvleX5xYmQ4cMGWIvXTc/YhGUukVKhnZQMtSM+ZEoIiIiItLF8MLhueeew9y5c63OP7Hjnpuba12UMgH65JNPWomdnXbayfj9sb+Jlc1oqC7HwvnzrYTDmtOC0kVYsrwG9c3hCzZ7lehWoqWuEuWL5qN08TJUNK77t0Mr2qzfX1a2EAucv7egFIsWL0d1QwvaVlt9JVauaMBylqe8AS3t0bcdWtGOxuULULqgHHVtK1aVd0UT6iqXrnX/ShctRnlNY3ibax8bsrKtMbyNZViyqNQua/hvLCwLx6Ua9S3r3s9wqcJlb0XdkvDfWjAfi6ua1/K3ViK0shEVC8LbXqOM/5u4rGwplte1oH1lxDZWNKO+atm6P8OKWjS0rO8zFJGNARNGPA8xaWSSuBKRVZQMFRERERGJAS9A+Ygik50cKc8LUV6QctTS6aefjpdeegm333679S4309ERv6nKL/DcTSdjhwEDMGDgQAwaNKhjCv88dMuxOPScifjPZ3NR0xbC2lOGtZj6+BU4Y+cB2GqfP+D/Xqlc+++GVqJx8Qx8Fv79P+29NYYPXPX3Bg4eiZ32Ows3PvMlZla2hmNt/z7qULvsBZw7aCBGnPYsvplfa89fXePyuXjr7MHYdOgZmPTzYlRwZsVHePjy32P0gIEYGGX/NhtzAE699U18NqcBkflFR2jlCtTOfAOP/e2POGTHrTBiyGAMHjIMI7fdHUecdSOe/KraSs6uPS5taFj2HR46eAA2GzIAe1/zEb4sbbGXRWpEU+1ruHDTYdjMjsfgweG/9b9pEIZsshm2Gn80zn7oSyyoacX/cqqVk/HEP/+A7dfyGW6y1Tgcfv7deO6LBagNr7T2sorIxoCj8JxkKCcRMaOjR0REREQkBhwJ+vjjj1uP5/HfW2yxBf7xj3/g+eefx6WXXmoloDZKmQUo2HQ3HHXMUR3ThPHYqkcdZr16A84/41ycdfPrmLm274qq/g7Tfp6PGUuT0bp0Ab598VXMsxetqfKb/+BfVx2HCZc8gU/KC7DdoUfhyKOPwoRdegML38Kd5x6HP19xH56f0WSv4V1ifl/03/Gg1ffv0F0xoH0ePrj1T/jL9fdi0jf19m/TSqxsX44vrt0Hex16Oi55cQFSdjoB5193D+698VKcc0AftH16Oy46fFtse97L4f1u7EhORmqtQuPCD/DiN2lIzUjALy+9jOnzS1FjL45qiyNxwRW34P577++YJt6Ma846AJutnIwXLj8Ee1z1AaYvWuPD6FaE4s13X30fJ4zD5t2rMOPFf+Ls087H+RPfwexG+/dFZKPkjAzlzTiNDBUxp2SoiIiIiMh68OKT7xd/+OGHrS+suPHGG3Hffffh5JNPtr7Nl+/r+q3ec+W7vIHov/cZuPaf13ZMN92Hx196E/+59jjsX/gT3n7h37jt2WlY9Wax1ZV/8QF+/KkCOZuPwd7js7Bkxot48Tt7YaTWn/DVh+/jlXeBPntejMfffA4P3hz+W9dci5vufw6vvXQLzhrTE+VvvYt33piCpfZqXnXrtxXGHHfZ6vt38wN4+rkbccr2/VE/ZSq+/no6quzfb69fjgX/Ph1nPTgFtZufjWvufhD3XvsXnHXC4TjsuFNw5hV34L5H78fVe6Rizn8uwBn3fYEZi3+dZWyuWIpZrz2PqStG47hTxiOv5W28/918zCy3fyGa3qOxy94HYsJhEzqmo47DH8+/ChPvvwMnFlag4qlH8P7Ccixd9f1gq/QYiiH7nrX6Pt50Pya9/Bae+seR2D33W7z23JO4+8XpUT9DEdk4aGSoiD909IiIiIiIrAe/0ImPxp9yyim4+uqrceyxx2LUqFHWl4eZfkFTYCSnIa17Cfr169cxDRiCTTbdCmOOOBW/23sMtqiYiqmvv4Mpv3pKvQzffzodMyq7o9+4fbD/mBEoWTILT7/0OfgVWKsNmGxYjsVLl2JJRgmGj98Xu205AkMH9EP/8N8bMGQERo4+GIfsG56XtQBzf5mBmdGfiHctKb0bcor6/Gr/hm+zC7Ye2hPd2+tQV12HZv7yyhrULf0A99/4Hn7KPhqnn3wYDt19a4wY2As9C/KQ16MIPfsOw8id9sEhZ/8Np/ZbiOn/fgjv/lSGJas9AV+P6vKZ+OD1+WjcYi8ccMS+GJvVjG8++Ao/zSpDZB5zNSndkJWTi+553Tum/B4o6DUYI7Ycj8P26YuU+p+xcHkjGlZ9x9gqKelIz/v1Zzhss1HY+cgzcNQe22H40i/w1dvv46s6ex0R2egoGSriDx09IiIiIiLrwW+9LS4uxoQJE6wvRiopKdn4k6DrlYi0whHYcacdMXZ4CMvmfYEpc+xFjtIv8PFPc7AkbyCG7bAvRo/YFmN6lWP26y/g4yqgNfJbe9KykJXRDdmt9agpX4yKNZ+ET87H8P1OwtlX/hVnHLkj+m3I8K5sR8XsrzF98TK0lfRFrwF9kBOeHaqvQNU3b+A/MxowcK/fY9yWA9EzO2WNi6YEJKV1R/HIPXDqEdshdfmHeP/bBSitjBhzWbcEy2ZMxksLQhi2z14YNvQg7L9NDhJnfIBvps3EfNdvAUhECKloa6kPFzIp/FNC+H+xSER6z5HYeecdsNOQNiyZOxVfzrUXichGR1+gJOIPJUNFRERERNaDj8AzGVpQUGAlRruOVBT27Y2+Q3ugoWEJfpqz+rDCRVPewQ9zG5G3yTBsudVw9O8zDGN26IHGOe/j2a/r0dwWMTY0ox9GbrMtdhzSjnmv3I3rrrse19/zBJ777xf4buZiVDe0IXPgGOx6yJE4ePyW6Jdur+eY8TIevvNG6z2ta07X33o3npkGtEYZctm8cBq+eubW1de5+mpcc/19+KBhEEbtuy/23rYv+L3/bQ11KJ8+DfMTC7D92GEoyEpD9E87EUkpORg2bmf0zKjFt9PmYcnyjveO1i+ejxmTP8SshKHY/6BNkZs1FOPGb4qemImpP87CtLLIYZ3rsbIdLVWl+Pmz5zDp4yo09tkGQwuzkBvzd3Slomf/vugzKBe1dUsxY56GhopsrCKToRoZKmJOR4+IiIiIiKxVYrccZOTmI6WtHeU1Ec+ut5fi8/e/xoKGXhgxYji27JuGrJ69MWyHMejbMg/vPvMlyptaOx4JTyjAoB33xuF/Ogi7D2jAtNcexj0Tb8INt9yGO+66F/c/8C88/tIH+GJWOera7XUizf8Eb770H0z696RfTU8++yLenxMuUuRIVFtL+VzM+ODp1dd57EE88p/JmFGZiLT0NKQntIF/sqW5GYsXlSEhoRD9S1KQmrKOkVeJScDA4RiUkoLqJctR32gP91xZg7L5P2Hy5MVIG7gbDtk6C+nJCei30x4YXpyMpd9Mw7RpixD1u4wWTMYbzz+Bhx56aLXpwfvvCcfnIbzRvCN2P24Cth+Qh1wXr6hNzMpFRk4+kltbsbxGyVCRjZUekxfxh44eERERERFZu6QUJCelIs3+0dFa+gben7oM1b22wbBNhqI/k3O5vdBjs11xQEETZr/0EL5c0oj6iMRmSo/NsOOEs3Hdrdfg8j8fjyN2Goge7csxb+pbePLef+CKq67BzQ++go9/WITaNUd5DhiPQ485EaedftqvppNOOAZ7DQaSo1zdpBQNwYi9jl99nZOPx1EH74PhjZ/gzSfuxcNvfovSRmBFezvqq6vtNdeDj6hmZyMvMREpHABrD4JdUfML5k37HJMX5aPXbnti23DgkplTHToOY4f0Qu6cT/HDN1MxJ9q3889+Fy88fj/umHgH7rj1Bvzz8gtx9pln48Lrn8QndZtgrz9djGvPGItNirLWMmJ1LfgZJqags7/YQaSz02PyIv5QMlRERERERNZqZXUVapcvQ0ViAtJSnOGI7Vj0xqv4atkypBVmIqGlBtN//BE/TitFaXkyem7WhtDSZ/H0x8tQXrdGVjOpG3L6boPd/nAJbvzXc3j9tVfx0qT7cMNfj8fePRdjysMTcfPdL+DL5WsMDx22L4764xk475zzfjWddcofcMimQGqUDGFm7+HY5uDTV1/n/67BXY8/iYnn74dRzR9h8ntv4L057UhNS0VRSVF4rRY0Nq3EytW+AWoNK8P7VToTc9vC+5qZhuRk/vGVqP1lOqZ/Phmz05MxuGcGfgnHZRpj81MrUouT0S3tW3z341RMnt64+hdM0aaH4rQLrsSNN9yIG6++BOeesD92GDEI/YbsiqPPvx4TLzoQm+alI9VlDmRlVQVqKstRmZiItFQXQ0pFJFA4MpSYCNXIUBFzro8e3oXwwuv6QRCEGAQtjkHYJz/W97KNeJef/NgG+bUdPwSpLPEShLoVNH7s08YeF32uG4bqlv/lN9le5DpB+Ez8jsnGJYT62mpUV1YiKzMLmwzoGZ4XvhhfUYb33/sRFVWtmPXSdbj0mDHYYYcdrGmPw07Cle8lIjWhBS89/ToWLqsCXx26orURjXU1qGtoRntkSJNS0a3/ltjzD9firpsuwPG7J+Ln6VPw6pQK+xc2kKRMbD5mDAYN64slyyowY24l0jO7od+QIUhaORdTvguXtXHFrxOWjhVtaJ32PWa1rsCQYQNR2CM3HJoazJk1C1OnLkRd2S94/eKx/4sLp+Nv/RSfl67AjO+n4ZPJX6NxzY333AJb7zwOe+y1B/Y4+Hj8+YqrccNlR2HEgldw45/OwL3fN6AmHEx3NTKEupoq1FRVIzcrC0P6MtkraxOENqczCEIMgvY5eCmPsy5HhjIhajoyNN4x8evvczum24p3DDaEzrhPG1pCOGih1tb1v8DbuQPh5e6D123wA+bEg97LkPDKcGeOL77PzQ13WAwEKRbkpRw1NTVWg5qfn2/PccfZDy+fSRDiSfX19WhqakJhYaE9xx0/6mdQYsE4sG7wiyJM+BmLeMezpaUFFRUV6NWrlz3HHT9i4Wc8vcSivb0dixcvRu/evY22E7RYeC3HokWL0LNnT6SkxPwNFv/j7AeZfiZ+xMKPbRDrRV5eHtLT1/y2k9h4rZ9BisWyZcvQrVs3azLhVywonvGkSZMm4c4778TYsWNxww032HNj50e7FYS6RS+99BJuv/12DBgwwIpLYCz/CI/ddgsumVSB/n+6AZMv29FeEKkWXz96HW7/5xP4uu8fcM1LV+LAjGbgl5ux1/634pOcvfDHQ3bGLkMj+5JtaKqZjTdvuAqvLN4e57zwCE7dbTjaXj4ft97xNn4ZfDL+ds85GJdh/3qkindx75U34v6pRdjpwptw56HpqF78Cs7qczxeOORhvHfDwdhhcHf7lzs0LJ2Jt8/bFMc/dwhumHorDh/ZB4XL3sLEv9+Ee6cWYtyFt+LuCUzkrmHGQ7joiol4bOlo/P6Cq3HTvsCSaY/jlFF/xbsjr8Lzz56CXTcpwK+LugKtdQvw8kmb46zXhuLIhx/CmfuNwib1b+MRxvSh+cgedwyuOmio/fuOKnz70iS89u5C5OxzOi6Z+FfsX1CPxuo3rH18do+JeOnaCRg/oof9+yGsrJ6Bb1+5E8f98THMKjwcD390K/Yf1B25HIha/h7uv/5mXPViKzY9+Rq883+jV622mhp8cf+VuPWGlzFz+En4x38uxr5mTdQGM3PmTNxyyy145plnMHfuXKSlrflShnXz41j1o3/gR7vFa/Py8nKrv2XCj1j4GU8vseB1KvtbjIXJF9c5+0HxPA/4UbeIsfjmm29w9dVX4+CDD8bpp5+O7t1/3R6uTRDOiX5sg5YsWWLlczIyop1I1q8zxaKr9z1TU81eAGNWUgNOcDqTzrhPGyPVLf+pbndeQfhsVb+Co7PVB9VviaTPwg9tKP/4UTz/8nN4NWkTDNh7f+wWvtZa0daKGa89g7l1zdhlwtGYcMzvccDBB0RMh2LChN/jbyeOQlbaNLzw1s+Yt7ABffoORmHPEL787DXce++HWPKr8RiNmP/pR/j2x5/R3qM7hvUvsOdvKA347pOPMXvGXBQVdcfQAT2A5B7I63MA/nrRUKQtuA2XTHwNn/1caY1s7dCOpvLp+Oy203D+W01IOeRcHLz5AAzMBJZO+wa//PAdMoaMxNGnnrVGXDgdi9OP3RPjtg7h51nf4/UPFtvbXJsEJOYMwZAxx+CKU3qjtfw5XH7rfzG7rI7jc2PQhmXvP4BnXnkVb2dsikF77o1dw+UU+a2oLfaX6TtD9TlsGIrrxssaGbq+D5DLOSKIeEfGJNvLbDMPXEpOTjbKfDtDwrkut2GKd9q4HyajIYMWCzIZleSoqqqy9sd0NGRbW5v1X8bB9G6dE0/TWETG00ssamtr0djYaDwakvvB/fEjFvGsW9TQ0IDq6mrjO9JeY0FO3TKNhR91i5qbm627bf369bPnuONHuxWEukX8TBYuXGjFwqQcQYgFea1bxP1YsGCBNWLY5G6kH+1WUOJJpaWlKCgoMLo7HxkL02M1SLEoKytDTk4OsrKy7DmxizxWTWMRlLpFjz76KCZOnIhx48bh5ptvtufGxo92Kyh1i55//nnceuutwR0Zete3SN52X5yx90B7QVjLcsz5YQZm/fwDZtSXYMheJ+GKi4/C+N6JaK7+AhN3PRA3VOyBix+6GseOH4HiNZrCUHsdWufei6N3vhofpf0elz14Do7eIRWzn7kNE+99Em+VF2OzTQag38jtsHl45cTWcsz6fhp+mf4D5qaOwq7HnI0rT9sDg7rVeB4ZestL5Sjc9QAcsVWO/dtUjdJvvsX3X3+FaSu2xD5/Og9X/nk/DMlk2ZvRuHAyHr/iDNzwWRK69dkSY3ffHWO2HIxeiRVY/MvneP+d9zFleikWDTsDE684GfttWYzuaaV49/qrcMt9U9E4/jTcdMcZ2DZKU9Be/g4ev+Zm3PjQchRN+AvuefAA9K9b28jQVVa2VGLx98/hiiNPwTPN2+D4Gx/C2fuNxND291eNDH3oF2SO3hsn79HfXiOsmTGdjtnhz3B6Y3+MPPBk/O2CwzC2d/Cyoc7I0GeffdY6p7gdGRqE84Af7RbxqSSOemN/K17tVlBiwW2wv8VYmOxLEGJBfvQ9WQbG4ssvv8Q111yD3/3udzjjjDOsPkcsIs+JnaHvyWsS5nMyM923Z5Gx4H5srMeZg09osd+ZnZ1tz4ld5LFqGot41y2TMpN1JHLl9U0OflDRlscyEf/rxzbiNTll91IObsMRbXksk7ONaMvcTH5tw+tnStGWxTp5Xd+vyUs5/KwXFG25m8nrNhzRlsU6+bE+RVvmZvK6Da/rc/KyDdWLX09B2IbX9Tl53YYj2jI3k9dtOHQuCc5++LUNirZsfVNku+VHvfC6jWjz3U6BVr8US6e+jPvvu79jenASXvlsBpYX7IJDTz4Pfzt1X2zfOxOhpho0fvECnpjThPzxEzBqYAl6RLknlJCcibQBR+DQ8dnIqnsLU39eiIXtfbH5Pn/C2eefi1PG5KN65qd47z//wgP3h//ev/6NVz+fjeYhB+H3Z5yDMydsh34+PcrdVj4bM96ZtPr+3fcYnvvvNFT32x/HnXUuTj90e/Szr6kTktOQ2X8MDjv/dlx39n4YnVmGb154ALddfRku+8dNmDjpY/zUMgy7nHEj7rvsj9hvy57IzUjCipmf48sff8KsvOHYdOfxGLGWeyLJ+Vtji623wLZ952Px7Pfx6Vx7wTokpuWiaPieOPfiI9C/aSZeu+dZfDa9FDXOmJa6Miz68sXV99GK6UxUFe+OI087F5ecuCe27RX8YaHRjp/1TY5oy2KdHPFuczhRtPmxTl7X5+RlG87+e9mGM3nZBsvhiLY81skRbVmsk9f1nX1h8oqYPOMU7XfXNlG0+W6moGzDyxS0ekHRlv1WkyPaslgnr+tzMt2GqaQrw+x/rxOztOQccG7xoHUyvaZZb26DE7cRWYHd4ug/ru/H+yVMgx+EeBLfDclt+fF+iY09FrwLy7t2JqN5iGVgWRgL0/rp3FGJZzyJceCIyFjvNK7JiQX/vmksnP2Idyx4p4wjZd28jycS4+BHLIJStziCmrEwKUdkLEyPVT9i4UfdYhn4Xl0eIyb7wvVZDi+xiIynH7Ew3QYxFjyPmNwNdmJBfsQinnWL6urqrBFNpu8vioyFSf104hnvukXffvstpkyZgoEDB2Lvvfe258bOabe8xoLiHYvp06fjs88+s9rPCRMm2HMDICERyd2KMGDYlhizyw7YdpttO6btdsTY3ffBvgcchAN33x6jhvRAOj+GleGYtK7AygHbYO+DD8CO4fk5adFiE56X1B0FRdnoPXIrbLXN9tikpAcKCwrRs/8m2GToEAzedEtsvdVW2HrbbbFN+O/tuue+2P+gQ7DfLlth017dsOpTC1/sJKajW/cB2Gq3XTFmRE9kp/961EhCeF9Ss3ug76jx2HnMcPTKTENKQjJSupVg8IgtseNOo1ffv212wM677YP9wn/v4N23xsh+3cO/b2+MfzO8brfiIRg6ZCAG9R+AAQPC/x0S/nnTzbHldmOx274H4oAD9sDYTXogIyV8PuFqLc1YkdMbQ3cajz12HoUheWsZ3ZKYiW7h80evIQMwdNQ22HzYCPTJSUNmTj9sOW4X7LRpMXIz12xPE5GUkomigQOQVzQMm47YFFtvPQjFPbKR2a0YA0dshTE7//ozZEz3C3+GB+y+HbYclI8094fSb4Lf6cBj5KeffsL555/vemSQ04Z7OVad9oLrm7Q55LUNJ7Z9/C4DthembZ8fseA2uH6848k+hpe+J7fBv296HnBi4TWe5CUWxCf3ODr0k08+wRZbbIHRo0fH3N/wIxbchh+x4Da4vuk2iNckzOeYjkR0PhMvfQwnFvGsW8T2gvXA7Yh6hx+xCELdcst6TN7+91rxV5yh3axsJgFicJhU4Lpehs5yYnBMhyKTl8fkibFgTFgGkw8qKPEkdjwYUy+PyXeWWPjxmDzLwrpl2gg4X2YWz3gSk398hUKfPn3sOe44sfByrAahbhGTwkuXLkX//hGPnbngR7sVhLpFjCcfXWMsTMrhxMLLsepHLLzWLWIZ5s+fb71KwvQxea/tlh91y4mFl3gSO+Y8j5g+Js9YkGkCMSh1i7w+Ju+13QpK3aJHHnnEekx+/Pjxrh+TJ6fd8hoL8lq3vMaCj8nzEeDAPSYvEhCRj8nz8Ve3F/VOG+7HOdG0f+BX35MDNPjYK/tbJtvwo93y45zoR3+L5WB/i7Ew2Rc/zolBqFuOefPmYfLkydaXEh5//PHWY/Kx9r38iEVQ6hZ5eUzej2PViUW86xZ5fUzeayyCUrfcMj8SRURERERERETkN8GEERNYTBp5SayKdHU6ekREREREREREAi4yGWoyik9EVlEyVEREREREREQk4PhIskaGinino0dEREREREREJOCckaEcFaqRoSLmlAwVEREREREREQk4Z2Qov3xII0NFzOnoEREREREREREJOI0MFfGHkqEiIiIiIiIiIgHHkaFKhIp4p2SoiIiIiIiIiEjAcWSokqEi3ikZKiIiIiIiIiIScEqGivhDyVARERERERERkYDjY/L84iR9eZKIN9YRxANqXRNf0OtM0ZbHMgVlG5yCUA4/txFtWaxTvMvgrB/vbXAKQjkoCOXguhRtWSyTX2XwY30v2+DE9YMSCy/bID/K4Wwn2vL1Tc7fp2jLY5mcbZiWgZPX9TlxfTLdjlMGL+XwYxvOPnjZBidnO9GWrW9y/j5FWx7L5Oc2OEVbHuvkZf3IMphux+v6nPzYBieH6Xa8rMvJ2QeKtjyWydmGl3JwcsohIusX7Rha3+THserX+l62wYnrk+l2/ChHkLbhJRac/CiDX9uItszNRM7IUIr2O2ub/NyPeG+Dkx/rk+l2nH3wUg4/tsEp3mWI9zZMJYT/WKi1tdX+ce2cP2J6B8LZMfK6Da/DwisrK5GUlITc3Fx7jjtOLLyUIwjxpJqaGqtBzc/Pt+e405liUV9fj6amJhQWFtpz3HHK4Ucs4hlPamxsRG1tLYqLi+057nSmWLS0tKCiogK9evWy57jjRyyCEs/29nYsXrwYvXv3Noqpsx/k9XiPdyxYhkWLFqFnz55ISUmx58auM8WCWC/y8vKQnp5uz4mdn7GgeMaTli5diqysLHTr1s2e447XditIsZg0aRLuvPNOjB07FjfccIM9N3adKRYvvfQSbr/9dgwYMMCKi4isbubMmbjlllvwzDPPYO7cuUhLS7OXxMaPY9WPc6LXdot4bV5eXm71t0z4EYugxJPXqexvMRa8fnfL2Q+K53nAj1gQY8FzyLPPPouzzjoLJ5xwgr1k/YISCz+2QUuWLLHyORkZGfYcdzpTH2PZsmVWv7Or9j1TU1Ptf7ljVlIDXj7coArCPsW7DM7fj2c5VLf8F4SYBqFuUWerX0H6bOMlCHUrKPWqs9WHoOxPPMsRhBgEhWIhsnGK17GrNmPDCEJc410G5+/7UQ4mrrgdt0mnIHwOfgvCPnXGuLq1scbAGhlq/3ut+CttbW3WvzkCxmRnedByVBGZZm55Z4gTD/zk5GR7rnu808Y7S6ajIZ2RtCyDSebbj3g6seC6JqOSHBwly+2YjobkfnB/GE/Tu3V+1S2vseBISI6INB0NyTKwLKaxIK91K/I4M40nNTQ0oKqqCn369LHnuOPEwsux6tSteB5n1NzcbI306t+/vz3HHT/aLa/HGXmtW8RylJaWWrEwKYcf7VYQ6haxDPPnz7dGKpic05xj1UssglK3aMGCBdZ5xOTuvB/tlp91y2ssysrKkJ2dbU1u+dFu+VG3/DjO6JFHHsHEiRMxbtw4a8SXG5GxMD1WI+uW176nl3jS888/b8VAI0NFonNGhnLE28KFC12PDPWj3fJ6TvSjDSc+lcQnLtjfMtmG0255iYUf50Q/+p4sB/tbjIXJvvjRhgehbhHXZyweffRR62mDc845x9XIUOec6CUWQalbxGuSHj16IDMz054TOycWZHqsBqVuEdsLjgrNycmx58TOj3YrKHXLLbNWyQOT4AZNEPYhaHHsDJ9rZ6DPoXPS5/priknn1Fk+1419P/wuv8n2ItcJQjw39s9URGKn490fart/zUt5nHWdhBGnrsyPWHYmnXGfNrSufQSJiIiIiPxGOAKDk4hEpwt6kXVzRiPqWBHxRslQEREREZENiI98ceJFLB+BFZHVOceGyRfxiXQlfCSZidCuPjJUxCsdQSIiIiIiG5DzLa9NTU2oqKiw54qIg4nQmpoaFBQUaMSbyDpoZKiIP5QMFRERERHZgPLy8tC9e3cr2cMvHBOR1fHLO/klIIMGDVKSR2QdnJGhOk5EvFEyVERERERkA+I33paUlFgJn2nTptlzRYSam5tRVlaGZcuWYcstt1SSR2QdnC9Q0nEi4o2SoSIiIiIiGxAfkR8wYADS0tLw1VdfWckfEVmFI0K/+eYb69877bST3oUosg4cGUo6TkS80REkIiIiIrKBDRkyxEqIfvnll5gxY4Y9V6Rr4yi3X375BZ9//jl69+6NXXbZRUkekXXQO0NF/KEzjYiIiIjIBrbppptizJgxWLJkCZ588kmEQiF7iUjXxUfjP/nkE8ycORO77747UlNT7SUiEg1HhuoxeRHvlAwVEREREdnAMjMzsd1221kj35599lm8++67aGtrs5eKdE0ff/yxdSxw5PQBBxxgzxWRtdHIUBF/KBkqIiIiIrKB8cJ1s802wx/+8AdkZGTg73//uzUaTglR6aref/99PPXUU0hKSsLRRx9tfdGYiKyb823yep2EiDc6gkREREREfgNMgo4aNQonnnii9d7Qq6++Gj/88ANaWlrs3xDpGjgi9P7777deG3HggQdir732UnJHJAYaGSriD51xRERERER+I/n5+TjooIOsEaKfffYZbrrpJrz99tuorKy0f0Ok82Ii59VXX8Udd9yBBQsWYJ999sHhhx+OwsJC+zdEZF14DOmdoSLeKRkqIiIiIvIbSUlJQf/+/XHKKafgiCOOwM8//4z77rsPjz32GL755hvU19fbvynSeXD089dff4177rkHt99+OxYvXoz99tsPRx55JAYPHmz/loisj/OYvJKhIt4khMJqa2vtH9euvb3d+m9ycrL1X7f4jZnOkG6+F8YED3zn29O8PEbB/eX6WVlZ9hx3uB/cH+6HaSMUhHgSO9zcTm5urj3Hnc4Ui8bGRqujlpeXZ89xx4/6GYR4UnNzMxoaGozf3dSZYsF3uVVXVxuPWAhKLPzaRnl5OXr27Gm0DT+O1aDEk+vzG3B5jJjUr84UC2K94HnE5FuA/YhFUOJJHN3HL8pJT0+357jTmfpbfBcgEx8777wz/vnPf9pzY+e1fgalbhH7ntxGdna2PWfVtpkQev755/HWW2+hqanJeqfoDjvsgBEjRqC4uNhqY9hf5bFlEgOReGD70draal1nVFRUWI/Cz549Gx999BGmTp1qnS/4ZUmc+vXrZ63DPnhdXR0KCgqsn93yo93y2uaQH31PboPnkqKiInuOO37EIijxZBnY32IsTMrhRxselFgQY3HppZdi6dKlOPPMM7H33nvbS9YvKLHwYxu0fPly65yalpZmz3GnM/W32F7wNTycTGzsscjJybH/5Y6VDGVHbH24c8SCmRzADBB3juuaftB+bIOY9OI2TCsLy8CyeI0FmVYWv2LBpBe3wws3E15jQUGoW8ROGBNfpklyP2LhdRtOLMi0bhHjwLoRedHmhrMfXj4TP+LptW4RTw5sM0wbWecziXcs/NoGL+h5EWOyDT9jEe94cn3Ggu2FybHmRyz8jKeXWBBjwfOIaWK4M8WCF/9MXJkmhlkOMi2Hn7Hwsg1iku+BBx7A9ttvjyuvvNKeGzuvn4kfsfBjG8REJ62t7zl58mS88cYb+Pbbb61zV9++fTF06FBrxBxvQPH48vL3RX5LrMO8qc4k6Jw5c6zRzwsXLrRuEm233XbW+0GZ+I/sc6vv2YHb4LnEdLCKH+2WH7HwaxvsY7AfbrIvfsYi3vGkmpoaXHLJJdZNhpNPPhm77767vWT9/IiFn/H0GgvePGGbwqct3HL2g+KZj3Fi4WUb5KXvSV7bLT9i4WUbJSUl9r/csZKh9r/Xir/ifNMlK5tJgLhjTCpwXZMKS/yQODE4Xu62cQQLKz3f2WSCsWBMWAaTDzso8STeRWBMTUe9daZY8ETLpBdHYphgGVgW1i3TRpV30Sme8SR2YKuqqtCnTx97jjtOLLwcq0GoW8SOOe++8pFGE360W0GoW8R4lpaWWrEwKYcTCy/Hqh+x8Fq3iGWYP38+evfubdTx4Ppe2y0/6pYTCy/xJL73jecRk5uMTizISycuCHWLysrKrIs2kxtrfrRbQalb9Mgjj2DixIkYP348br75Zntu7Jx2y2ssyGvd8hoLjmDhPqzriQte2PExYr4/dMqUKdZx5dyoZRk6C9ZzTqbtb2fSWWPBus52lMcMzwu8UOUI8T333BM77rhj1LaJfXAmeHgjwITThvtxTuT6Jp8J1/XahhOPew5WYn/LZBt+tFt+nBO9xpNYDva3GAuTffHjnBiEuuWYN28eLrzwQispet5552Hfffe1l6yfH7EISt0i3mBhPsdkUJcfx6oTi3jXLWJ7wX6nyc0kP2IRlLrllpKhBrw2ZkGJJykZ2kHJ0A5KhnZQMrQD46lk6Cosg5KhHZQM7aBkaAclQzvEkgyNxJGkbGM4oo51in0U7g/LYRIL1i2uT35sw8sxwn1jTE2OEeK6ZLof5HUbfsWCSS9Opk+fsAwsC/eB+2JiQ8SC/+VFea9evbDJJptYI5zXFyclQzsoGdqB5VAytAOToeeff751vDAZ6uYxeT9iEZS6RUqGdlAy1IySoQa8NmZBiScpGdpBydAOSoZ2UDK0A+OpZOgqLIOSoR2UDO2gZGgHJUM7uE2GEsvPOsHJaxseGQvTeDqx8FK3iP0L1nPT9yF6bbcij7N4xpPY92Sfy/QRPycWXurnhqxb/De3GUt8lAztoGRoB5ZDydAOTIaee+65Vh1hMpSvnIiVH7EISt0iJUM7KBlqxvxIFBERERGRDYIXBLxQ5EUBLy74X9PJ6/qc/NhG0KZ4x8WvzzUIZYg2sf6aXFiLyNo5CTgdWyLeKBkqIiIiIiIiIhJwSoaK+EPJUBERERERERGRgOMjyUyEenncXkSUDBURERERERERCTznHZMaGSrijZKhIiIiIiIiIiIBx8fkSclQEW+UDBURERERERERCTiNDBXxh5KhIiIiIiIiIiIB53yBkt4ZKuKNjiARERERERERkYBzvkBJI0NFvFEyVEREREREREQk4JyRoUqGinijZKiIiIiIiIiISMApGSriDyVDRUREREREREQCzvkCJb0zVMSbhFBYe3u7/WN04V+xDjoy/eayyG0kJSVZ/3WL63M7/PteDv6KigqrDN27d7fnuMO7MeRHLEy34cSCTONJ1dXV1v706NHDnuOOEwvTzyQodYvq6urQ1NSEoqIie447XmNBQahb1NjYiJqaGpSUlNhz3HHqZ2eIRUtLC8rLy9GnTx97jjt+xiKe8SSeKxYtWmTFwuRYc2JB8TwP+BELlmPhwoUoLi5GamqqPTd2kfUzCLHwsg1iveB5JD093Z4TOz9jQfGMJy1ZsgTZ2dno1q2bPSd2kbEwrZ9+xtNrLB577DHceeed2HXXXXHjjTfac2Pn53kgnnWLKisrrX3Iy8uz57jjZyziGU9i/6KtrQ0FBQX2HHf8aLeCULeovr4eDQ0N6Nmzpz3HHad+BiUWptsg9sGrqqrQq1cve447fsbCdBt+xaK1tRVLly61+lsm2/AjFkGoW8S+J/tbjEVycrI9N3bOflA8z4l+xIJlYCwmTJiAIUOG4LzzzsPo0aPtpevH9Z36GYRYeNkGlZWVWefUjIwMe07sImNh+pkEpW4R2wv2O7Oysuw5sfMjFpHbiEcsTNoGspKhbHDXJzJAJrhjnMjrNhggkw/JwQ4pP6Tc3Fx7jjtOLLyUIwjxJHZI2SDl5+fbc9zpTLFgh5QdscLCQnuOO045/IhFPONJTIbW1tZaiR4TnSkWTIbyBopp59yPWAQlnuyQLl68GL179zaKqbMf5PV4j3csWAYmAHkBm5KSYs+NXWeKBbFesENqmgz1KxYUz3gSO6TsjJokQ8lruxWkWEyaNMlKho4dOxY33HCDPTd2nSkWTPJwfdMb8X4cq0GIJ7F/wWSo6Y34zhQLJkI5md6Id8rhRyziGU9iH5zXJep7rkqG8kY8+1sm/IhFUOLJ61T2txgLkySLsx/k9XiPdyyIsTj44IMxfPhwnHvuudh2223tJesXlFj4sQ3izWfmc0ySoeT1WHX2g+IZT1q2bJnV7+yqfU+TgSlkJUOd7Py6OKNH2QiZfFDcMefvmGZu+SFx4t83zTgTExv8kEzvznemWHBkKPfHy9157g/jaVLxI2MRz3gSR4YyCWh6d95rLCgIdYsYB9YN0wSgH7Hwuo3IWJjGk5gM5Qmmb9++9hx3/DhWg1C3iNvgHWnGwmRfghILP7bB9UtLSz2NDGU5vMQiKPEkds55U8307jzLQfE8J/oVC3bOmQw1vTvvxIL7YXKsBqVuEUeG3nHHHdbI0JtuusmeG7vO1N/ijXgyvfnsZyxMt+FXLJjwYrLH9OazH8dqUPpbvBHPyTQBGLRYmG6DmAzlcWKaAPSjfgYhnsTjg+cS9rdMttGZYsFyLFiwAP369TPaFz9i4WzDSyz8iCex73nggQdi5MiRRslQ51jtDP0tjgzlDcbMzEx7Tuw6WyyC0vekeMTTNP5WMtT+91rxV3gHlzgCxiRA3DE2iFzXZBQNMcCcWFG8dDx4p40BM+2QMhaMCctgUmmDEk9ip4MxNe2QdqZYcKQCk4CmHVKWgWVh3TI9IJ1R2vGMJ3GUAkexmD4a7sTCy7EahLpFzc3N1kiv/v3723Pc8aPdCkLdIsaTnTDGwqQcTiy8HKt+xMJr3SKWYf78+dZFm0kylOt7bbf8qFtOLLzEk3ihwvOISTLUiQWZ3tkNSt0ids5zcnKMO6Re262g1C165JFHMHHiRIwfPx4333yzPTd2TrvlNRbktW55jcXy5cutfTAdDem13QpK3SL2L1gW09GQXtstP2NBpnWLeCOeyVDT1xL50W4FoW4R++AcsGJ689mJhR/nxHjHgjfi+cQF+1sm2/Cj3QpC3SKWg/0txsJkX/xot4JQtxxz587FQQcdhC233NJ6TH6bbbaxl6yfH7EISt0iDtBgPsc0Ger1WHViEe+6RWwv2O/ka5rc8iMWQalbbpkfiSIiIiIiIiIissEx6cTkFRNGJkkrEemgZKiIiIiIiIiISIBx5BwpGSrinZKhIiIiIiIiIiIBxRGhkSNDOYmIOR1BIiIiIiIiIiIBxpGhekxexB9KhoqIiIiIiIiIBBhHhhK/eEjJUBFvlAwVEREREREREQkwPSYv4h8dQSIiIiIiIiIiAaYvUBLxj5KhIiIiIiIiIiIBFjkyVMlQEW+UDBURERERERERCTCNDBXxj5KhIiIiIiIiIiIBFvlt8npnqIg3OoJERERERERERAJM3yYv4h8lQ0VEREREREREAswZGcpEqJKhIt785slQHrziXdDiqM9VRH5LanM6p87yuap+rs4kHpHrBCGe+kw7p3h/rqpXwaTPpfPobJ+lsz8aGSprUrvlXkI4aKHW1lb7x7VzhmR7eTeF123wA+bk9U5IZWWl1YDk5ubac9wJQiyI2/Aai5qaGusOU35+vj3HHeczCUIsyMs26uvr0dTUhMLCQnuOO37Uz6DEgnFg3SguLrbnuONHLJxtxDsWbB+XL1+OXr162XPc8TMWXrbhRyza29uxePFi9O7d22g7QYmFsw0vseD6ixYtQs+ePZGSkmLPdcfrZ+JnLLxsg1gveB5JS0uz57jTmWKxbNkyZGVlITMz057jjh/HKrcRhFhMmjQJd955J8aOHYsbbrjBnhs7v2JB8axbVFVVZa3fvXt3e447QYgFea1bVFtbi7a2NvTo0cOe444fn0lQ4tnQ0IDGxkb1PcOam5tRXV2tvmcYjw+eS9jfMuFnLLxsw49Y8DqV/S3GgtfvJliOeMfC2YaXWNCHH36IM844AxMmTMCf/vQnDBgwwF4SG6+fiZ+x8LINWrJkiXVOTU9Pt+e405liUV5ebvU7u3XrZs9xx49jNZ7xTE1Ntf/ljrej0QXuWGcTz31y/na84xqEcsQ7BhtCUD7XeApC3aLOVr+C9NnGSxDqVlDqlZ/lMN1WEMrgJ5YhnuVw/nYQYhFvnTEGqlvB+Fz9LEMQ9of0uXaUQbHwVzz3J2ifqZdycN3IL1BymzCKdww2hCDsk8qw8dYta2Sok8VdF96houTkZKOsNQPEUUVcl9swwXKyAeDBb3pniDjKi+vn5eXZc9zhfnB/vMaCvIwoYiy8xJM4UoHbKSgosOe448SC8TS9CxCEukUcqcARkRzpZYJx5OfiJRZBqFvEkQocGWo6GtKJhZdjNQh1i1paWqy783379rXnuONHuxWEukXcxsKFC9GvXz+jcvgZCy/b8KNucf0FCxagpKTE6G6kc6x6abeCUreI9YKjvDIyMuw5setsseAo2ezsbGt0qFtOLMj0WHViEe940qOPPoo77rgD48aNw0033WTPjZ1zrJrGIih1iyoqKqxymD6J41csKN59T47+4/nZdDSkEwsvx2oQ6hbV1dVZfS7T0ZB+tFtBqFvEPjif3jMdDenEwsux6kfd8qPvyaeSOOqN/S0TfrRbQahbxHKwv8VYmOyLH+1WUOoW13/77bfx5z//GUcffbQ1MtRNHXGOVS+xCErdIo4YZj7H5EkcJxYUz3OiH3WL2F5wVCj7nyY29lyfaT2ykqH2v9eKv+IEiJXFJEDcOSdAphWOwXECZBpk4jBiBti0Q8pYMCYsg0nggxJPYqeDMTXtkHamWDAZykeVTDukLAPLwrpl2pg5r6yIZzyJHXMmyvv06WPPcceJhZdjNQh1i/jY1tKlS9G/f397jjt+tFtBqFvEeJaWllqxMCmHEwsvx6ofsfBat4hlmD9/vnXRZpIM5fpe2y0/6pYTCy/xJF6o8Dxikgx1YkGmj7kEpW5RWVkZcnJyjJOhXtutoNQteuSRRzBx4kSMHz8eN998sz03dk675TUW5LVueY0Fb8RzH0wfDffabgWlbhH7FyxLUVGRPccdr+2Wn7Eg07pFTIbyNU28sWbCj3YrCHWL2AfnTQPTm89OLPw4J8Y7FrwRzxtr7G+ZbMOPdisIdYtYDva3GAuTffGj3QpC3SKu//rrr+Pss8/G8ccfjxNPPNHV8eJHLIJSt4g34pnPMU2Gej1WnVjEu24R2wv2O02SoX7EIih1yy2zI1FERERERERERH4TTDoRE0YmSSsR6aBkqIiIiIiIiIhIgHHkHEfyKRkq4p2SoSIiIiIiIiIiARY5MpSTiJjTESQiIiIiIiIiEmAaGSriHyVDRUREREREREQCzBkZyi8eUjJUxBslQ0VEREREREREAozf2M2RoUyEKhkq4o2SoSIiIiIiIiIiAcZEKHFkqN4ZKuKNjiARERERERERkQDTO0NF/KNkqIiIiIiIiIhIgPGdoUqGivhDyVARERERERERkQDjyFBSMlTEOyVDRUREREREREQCLPIxeb0zVMQbHUEiIiIiIiIiIgHGx+RJI0NFvLOSoby7sL7J4bynwmSiaPPdTH5sw4/Jazkc0ZbFOjmiLYt18ro+J6/bcERbFuvkdX2/Ji/lcE5uFG15LJMf23Amr9twRFsW6+TH+hRtmZvJ6za8rs/JyzZUL349BWEbXtfn5HUbjmjL3Exet+Hw2segaMtinbyu78fkiLYs1snr+pz82gZFW7a+KbLd8qNeeN1GtPm/9eS1HI5oy2KdvK7Pyes2HNGWxTo54l23/Jgo2nw3k9dtOKItczN52YYj2rJYJ4cf9SLaMjeT1214XZ9TZ9mGI9qyWCdHtGWxTl7XZ72MHBlqsj2TddacgrINLxNj6Yi2PNbJEW1ZrJMj2rLfanJEWxbr5HV9TqbbMJUQXjnU2tpq/7h2ToUxHY4dWVCv2+BdEC93QiorK5GUlITc3Fx7jjtOLLyUIwjxpJqaGqtRzc/Pt+e405liUV9fj6amJhQWFtpz3HHK4Ucs4hlPamxsRG1tLYqLi+057nSmWLS0tKCiogK9evWy57jjRyyCEs/29nYsXrwYvXv3Noqpsx/k9XiPdyxYhkWLFqFnz55ISUmx58auM8WCWC/y8vKQnp5uz4mdn7GgeMaTli5diqysLHTr1s2e447XditIsZg0aRLuvPNOjB07FjfccIM9N3adKRZVVVXW+t27d7fnuOPHsRqEeBL7F21tbejRo4c9x53OFIuGhgZrKioqsue445TDj1jEM57EPjivS9T3BHhtXl5ebvW3TPgRi6DEk9ep7G8xFrx+d8vZD/J6vMc7FizDvffea51Pr7zyShx++OGu+hpBiYUf26AlS5ZY+ZyMjAx7jjtej1VnPyie8aRly5ZZdaGr9j1TU1Ptf7ljVlIDXj5cka5Gx4tsKEGoW6rfwdHZ6oPqt0TSZyEbiuqWiMSDk7RiYljtkIg31shQ+99rxV/hHVxKTk42yvbywOWoIuIoGpODl3eGOHFdk5E4Dt5pYwNiMhqys8WCo2S5HdPRkIwFY8J4mt6t8zOepncFiHejOSKypKTEnuNO0GJhWreIo2Srq6vRp08fe447LAPLwn3gvpgIQjypubnZGunVv39/e447nSkW3EZpaakVC5Ny+NFuBSGexDLMnz/fGqlg0u44x2pniAUtWLAABQUFyMzMtOfEzokFxfOc6Ec8qaysDNnZ2dbkVuSx2hli8cgjj2DixIkYN24cbrnlFntubPxot4JSt2j58uXWNkxHQzrHameIBUfJcn9MR0N6bbeCUreIo2Q5MtS07+kcq17acOcJwXjHgn1wPonTt29fe447Tiy8tFtBqFvEp5L4xAX7W/E6Vr3WLb9iwXKwv8VYmHyufsYinnWLWIZbb73VOp9ed911OOyww1z1uyKPVdNrZiee8Y4F8ZqE+RyT0ZCRsTBtt4JSt4jtBeOQk5Njz4mdH8eqE88gxMIN13tqUlEicX0/thEvQSl/PGMQTRD2yY/1vWwj3uUnP7ZBfm3HD0GKi4kglD9In6dfNvZ64Yeglb+zfCYb+34Esfwm24tcJwj75HdMfmtBiGEQxTsuQYip1zKoXkTXGT5bL/i3u3oMoomlPLxB4STq1sRkEZNXTBiZJK0o3jHx6+9zO6bbincMNgQ/9imecYnH3zY7gkRERERERERExDd1dXV48cUX8eSTT1pPp0XiSEQnGRqZPGICdfbs2fjXv/5ljbBm0lRE1k3JUBERERERERGROOMXAvFVds8884z1RUn/+c9/rC/IISZDiY+XMyHKV5t99dVXuOOOO/D3v/8dP//8s/WIcWcc+SjiNyVDRURERERERETijO8B3WyzzayE5r///W/rPaH8BnmOFuU7lznqk9918cknn/zv2+XvuecefPjhhxgzZoz17kglQ0XWT8lQEREREREREZEAYDJ0p512sr7oaMqUKbjzzjtx44034osvvrC+bOztt9+2vqCQiVKOIOUXRG+zzTbYbbfdPH0pkUhXomSoiIiIiIiIiEgAdO/e3Upujh492hrl2dLSYiVFORq0oaEBzz77LF5++WUsWbLEWt63b18ceeSRyM7O1qhQkRgpGSoiIiIiIiIiEhAjR47E3nvvjfT0dOtnfnESJyY7OfFxeU58LH7zzTfHfvvtZ/2eiMRGyVARERERERERkYAoKCjA1ltvjS233NL6siQHE6BMihKTosOHD8fBBx+MrKwsa56IxEbJUBERERERERGRABk6dCgOP/xwKwG6JiZC+U5RJksPOugge66IxErJUBERERERERGRACksLMTOO++MTTbZ5FdfjMTRoXyvKB+lz8jIsOeKSKyUDBURERERERERCRAmQPv164ejjz56tdGhHBXKd4luv/322HXXXa2fRcQdJUNFRERERERERAKmR48e2H///VFUVPS/0aEcFbrttttil112sd4tKiLuKRkqIiIiIiIiIhIwfC/o4MGDMWHCBGs0KEeB8rH4cePGYfTo0at9uZKIxE5HjoiIiIiIiIhIAPGb4k844QTk5+dbyc+tttoKO+20E0pKSuzfEBG3EkJh9fX19o9r197ebv2XQ7NN3knBodwrVqyw/p2cnGz91y2+J4MT//6aLxB2o7q62lo/OzvbnuNOZ4pFXV2dVZbu3bvbc9zhutwfNsqmd6WCEE9qaGhAS0uLdZIx0Zli0dzcbNUNvrTbhB+xCEI8qbW1FVVVVejZs6c9xx0/jtWgxILlWLZsmRULk3J0pliwDEuXLrUeTTI51rg+94XieR7wI57EepGbm4u0tDR7Tuw6WyyWL1+Obt26GX2ZQWQsTOtnUOJJTz75JO6++27ryx+uvfZae27sgnBO9CsWNTU11jZycnLsOe50pljwuoP7o74n0NjYiKamJusxWBOdKRbsg9fW1hr3Pf2on0GIJ7W1taGiogLFxcX2HHc6UyxYDva32Pc02ZegxMKPbbBeMCH62Wef4fTTT8cxxxyDPn362EvXz49jNSjxpPLyciufw9GybnW2WLC9YL8zMzPTnuNOEM4DXuLJmwUmrGTookWL7B/XjgUjLx+S120wyJwYIJMPycFOB9df34HDv8XfZfKUiSF2WHiidipLZ+AcgF46L52FcwB2tliwrnOfmKRgA8mTBpMW62osebJlXTdtWPw4Vp32wo9teGm3eIzw2De9eeJHLPyMp9c2nBexjMX6ysHfZdvJBABvNLAtZb1yytEZMFGekpJi/Jl0Jvxs2c50plg4xxs/Y3Yw2R6y7eR/OW9tWN/5SNu6fmddvB6rTntB8e5vvfjii3jggQesL3i4/PLL7bmx86vdonjHgjcZyeSijZz98FKOINQtYv+CZTH99mM/PpMg1C3ieYTtJ2+gmPAzFvGOJ6+veJyo77mq78lzienNEz9i4Vc8mcgsKyuz+oGmeJzwvCrA+++/j/feew+/+93vsPnmmxt/Np0B204mzbwca0HCm2IjRoywf3KH7QX7nabHidd2y2kvyOs2TNqc3r172/9yx0qG2v9eK/4KKxuZXvgxwDzJcV3TCwSeGDgxwF4SVryLwANnbSMAWVZWKF7IT58+HZ988gl++OEHzJs3z1qXjbnzYYkEHes6O9m80z5w4EDrxLnjjjta/2VSixcjazZarP8cDenmbmMkHus8jrwcq2xzeIxxfZNG1Y92i9gxZ0euf//+9hx3/Gi3nHjys3R7p8zBjiSZxpMYz9LSUisW0crBmLOsTIBWVlbigw8+wFdffYWZM2daHWG2qc7nKhJ0Tn+FCVB2soYNG2a9m4tfWMC2kRfs0TqdrOu8gDW5oPej3QpSf+uRRx7BxIkTMX78eNx888323Ng57ZbXWJDpBYJfseCIYe6D6QjAIJwT/ahbxP4Fy8IvAzHhxML0nOhnLMhLkoaDLXiT0fRRV5bBa/8gCHWLeOOZo5v69u1rz3HHiYWXYzUoseANg8WLF1v9LZNt+NFu+VW3eEPs9ttvx8KFC5XQFFkL9nf23HNP6yayCbYX7HeaDN7x85zIdU37B371t9xQMnQNLCcv4l944QU8+uij+Prrr62/xQufkSNHol+/ftZFjskJUiQeeNwxCTV//nz89NNPmDt3rjUyZbvttsOJJ56I/fbbz3pULfK4VjK0g5KhHRjPtSVDGW/G6pdffsF9992HJ554wrpxlJeXh+HDh2Po0KHWha/z4neRoHPqNF8B8PPPP+P777+32kbeVDrggANw1FFHYZtttvnVsaBkaAclQzsoGdpBydAOSoZ2UDK0Q2dMhm6yySbWDUUJpsh6xnq8rp+J8xxctubPtL7fibYOmWzLwfnRfo6cv+a8aP+NFDkv8vco2rpuf4fH2ZQpU6w2Q8lQ7/0tN5QMXcNLL71kNdjffvut9a1t+++/v5Wl55Bl58TIfTCJgUg88PjlxGOHF/KzZs3CG2+8gVdeeQV8RcYee+yB8847D1tvvfX/Ht9TMrSDkqEdGM+1JUNZrx5//HE89NBD1sXdPvvsg4MOOsgahcyEKH/faT9FNgZsQ4jHHo9hJrP4pMjLL7+MqVOnWjeRjj76aJx88smrJbiUDO2gZGgHJUM7KBnaQcnQDkqGduiMyVC+45LnSwkmt/WMdZ0i11tzXqy/E+1vm2zLT2v7exvib3300Ue44447rDZDyVDv/S03lAy1MeHBl/w//PDD1mPDvIhnEnTQoEFWpTJ9x5NIkPBYZgeLjzFztBO/3IIj+PgI/amnnooDDzzQekG5kqEdlAztwHhGS4ZOnjwZ999///+zdxfwVVtvH8B/daeOF4q7uw8bNpzh25iwDdhgg/n+c9/wMWfoHBju7u7eQqHUnbo3b540oZcu0HuTvOOufb6fPZ+VnJvT5Gly7rnnniQ4cuQIGjVqhMcee0waXKdBULpFg9ZtZsya0HlMgxY0054eXkBtJ31x2qVLF7z++uvS1SN0bvFgaBEeDC3Cg6FFeDC0CA+GFuHB0CKlcTB02rRpmDx5slzCGFPQPWBnz54ttRk8GKq/v2UJbZ+ISxl646XR+O+++06aDfrGG29gwoQJaNGihTRIxAOhrLSgBoqOZxrwpEErGgB95513pAErGsyiwdHo6Gj51YyVbNeuXfjmm2+k+ysPGzYM77//vjTbmDrwNCCktQPNmLWhY5nuH0rHNs18njFjBh599FHpdjpvvvmmdBm9MnjHGGOMMcYYs15lfjCUZon+/fff0v1BGzZsKH1jRTNCaUacnm96GbN29K0LfainAawXX3xRmq1C30Zt3LhRmhnKWEno/jbUdtJsUbqlyJNPPommTZtq+laSsf8SukSenpBOxzzdO5Tuxzxz5kzcunXrzmwxxhhjjDHGmHUq04OhdFkKfZj/5ZdfpMs5p06dKl3uxh/kWVlCx36fPn0wfvx4aeYoPTyMLndm7H7ofrN0mTA9MKlr164YO3asdHN8xsoKmmVPT5inY3/o0KHSvZhXrVolfcnKGGOMMcYYs15lejCUnqpNs+DosmCaEdqtWzfpfqGMlTV0jxEaEKWgD/I0IEr3FGXsXnbs2IH9+/dLM0HpUmF6WjxjZQ3dF4lm2D/99NNo0qQJVqxYgbNnz0r3vmOMMcYYY4xZpzI7GEqXAdN9vo4dOybNaqIP8//WjVoZs0Z+fn7SA5Rat26N06dP8+xQpopusq3cXoQG0emYoQFRxsoquqUOfRlA9xClh9Pt3btXeogSY4wxxhhjzDqV2cHQ69evS09ApvsmjhkzhgdCGRPRQ5V69uwpzZDes2cPMjMz5RLGCtHTAumphxcuXJCeEK08QZuxsowGROmLgbZt20ozQ0NCQvjeoYwxxhhjjFmpMvsJlp58fOXKFemDfI8ePeSljDG6B16LFi1w8eJFKRgzRYOhGzZskO6XSIOhgYGBcgljbNCgQdKXSPRk+ZiYGHkpY4wxxhhjzJqUycFQ+jBPM0PpcjaaxcEYK1KjRg3pUnk6Pw4cOCAvZaxQbm6uNGuYBszLly8vL2WMEZpZT7ccoS+SQkND5aWMMcYYY4wxa1ImB0OjoqKk8PX1RcOGDeWljDFCl8gHBASgUqVK0uWejClycnKkWfX0cJhmzZrB29tbLmGMER8fH9SvXx+JiYnSwxkZY4wxxhhj1qdMDoYmJCQgKSkJXl5efIknY8XY2NjA09MTFStWlGZQM6ageyDevHkT+fn5qFWrFjw8POQSxhih++fS0+XpIY00IMoYY4wxxhizPtJgKH3AvV/QB196gjCFWrk5odRBl6irlZsTRtRBQZf/0gcVNzc36XI2xtjdaHYofVlA97xTO4dKCjpH9Z6rSh103quVlxRGtFsUSj1qZeaEEe2W3lxQKLnQUwfNDI2Pj5e2p0KFCtJ9Qxljd6N+BZ0rKSkpqufR/cK03dJ6rhrR5hhRBwWtT7TWo+RCrcycMM2nWrk5YWQu9NRB69J2aD0uKJRcaK3D2nKhtQ4jjws9dVBQPUbkQuvflMKIOpRc6KlDyalamTmh97ig0JsLZR/07AeFUo/e7XiQuaCgOhhj5tF7vuptL/S0W0a0OXrq0EoaDKVfWFIoCVI2UEsYtb6eOijoQwrd987BwUEa9GGM3c3Ozg5OTk7S5dBq51BJYcS5asS5bsR2UBC15eaEEdtgZB1qZeYGvUnRw2GIq6urdJwwxu5G/Qo6V6ivoXYelRRGnKt661DW17sdCq31GLEdRq2vpw4Ko7ZDrcycUNbXUweFNdRh5DZYy3aolZkTyvpG1KFWZk4YsQ1KELXl5oQR22HEfhixHRTWkgsj6mCMmUftPDInjDpXjahDrcyc0LMNWkmDofSB9n5Bl33RpbMU9LPaa8wJpQ61MnPCdDvUys0NQklW9ocxdjfl3KDzRO0cKimU81TPuaqc71rbHNP2QmsdFLQuUSszJ0y3Q63cnDBiP/RuAwX9fuUNR9kvxtjd6NxQ+hhq59H9wrS90Hq+m9ahVm5OGFEHBa1PtNRjRC4olDrUyswJI3Ohpw5lfa25MCKfSh1a11dC2Q61MnNC73Yo6+vdF737QaG3DmV9I/bjQeeT1iVqZeaEsg0UauXmhLIv1pILI7ZDrdycMGI/lDoYYyUz4nxVKyspTNuLB9nm6KlDK7MGQymM2jmtCaYwog4KqoMxZh61c6ikMOJcpfUp1MrMDSPqoNBThxG5MDKfeuqgYIyZR2u7oZyramXmht5z3Yg2h4LqIFrqsbe3150LZT+MqENvLmh9PXUo26FWZm7ozQWFEXXozYWyDUbUoVZmTih/Dz11KKFnP5TtMKIOtTJzw6hc6KnDiFwYsR9G1EGhpw4jjwu9dTDGzKP3nFdbbm7Q79bz+ykeZJujFbdQjDHGGGOMMcYYY4yxMoEHQxljjDHGGGOMMcYYY2UCD4YyxhhjjDHGGGOMMcbKBB4MZYwxxhhjjDHGGGOMlQk8GMoYY4wxxhhjjDHGGCsTeDCUMcYYY4wxxhhjjDFWJvBgKGOMMcYYY4wxxhhjrEzgwVDGGGOMMcYYY4wxxliZwIOhjDHGGGOMMcYYY4yxMoEHQxljjDHGGGOMMcYYY2UCD4YyxhhjjDHGGGOMMcbKBB4MZYwxxhhjjDHGGGOMlQk8GMoYY4wxxhhjjDHGGCsTbARRbm6u/M97y8/Pl/5va2sLGxsb6WdLiL8GBQUF0s92dnbS/y2l1EG/n7ZDq5UrV2L+/Plo2LAhfv75Z3kpY0xx+fJlzJkzBxs3bsTNmzflpeaj85TOVz3nqlKHEW2O1jpIdnY24uPjUaVKFXmJZawhF0RvG04SEhLw8ccfY9GiRTh8+DCaNWsmlzDGFEuXLsWsWbMwduxYzJgxQ15qHiPaLaUOI9ocPXWQ5cuXY8GCBejatSu++uorean5SlPfMzExUarD29tbXmIZ5W9iRC701qE3F8nJyaDPHn5+fvISy+jNBbGGY4ukpaUhIyMD5cuXl5dYRsmFnr+J3nya5kLP3yQzMxO3b99GpUqV5CWWsYZcECP6Wzk5OYiNjZX6nnr+JkbkQk8dlAv6rE2fu6dNm4bJkyfLJYwxxc6dOzF79mzpvWTVqlXyUstQe+Hq6gp3d3d5ifmMaMMfdJvj4OAg/2QZ6bfQLy0pTKmVmxMKtTJzQ6FWZm4wxsyndg6VFKbUys0NPesXp/Yac0PP+qbUys0JhVqZuaFQKzM3GGPmUzuHSori1F5jTuhZl8KUWrm5YUqtvKQwpVZuTijUyswNhVqZuaFQKzM39KxfnNprzAk96yqhUCszN4xYX6FWbk4o1MrMDSPWV6iVmxt61i9O7TXmhp71TamVmxtGrK9QKzc3FGpl5oRCrcycMKVWbk4wxiyjdh6ZG1rXL07tNeaEnnUpTKmV3y+0kgZD7e3t7xs0Sk0jtBT0s9przAlllFetzJxQtkNPHRRaR6sZK2vofFM7h0oKOsf0nqtKHVrbHKPaLaUetTJzwhpyQaHUoVZmbtDvZ4yZR8s5b0S7pdRhRJujpw4KqkNrLij05oJC734YkU8KWl9PHbSunlwo+2FEHf/1XFDozQVFacmF3jqU40Lvdij1qJWZE8p+PMh8Gp0LvdvxIHNBodTBGCsZnStq55E5Qeea1vNdaS/0nO9Gtjla6tBKGhVUkne/UBKkVmZOKOs/6DooGGPmUzuHSgojzlUjznUj6qDQmgcl9G6Hsr6eOojeOigYY+bReq4ZcZ5aUx0PMhfK+kSt3JxQ6tCzHRR667CGbaCwhjqU9bXWoXd9CmV9PceWEkZshxF1qJWZG0bUQaEnn8o26NkOI/bDiDoorCUXeutgjJlH77mmttzc0HuuUzzIOrTiT7aMMcYYY4wxxhhjjLEygQdDGWOMMcYYY4wxxhhjZQIPhjLGGGOMMcYYY4wxxsoEHgxljDHGGGOMMcYYY4yVCTwYyhhjjDHGGGOMMcYYKxN4MJQxxhhjjDHGGGOMMVYm8GAoY4wxxhhjjDHGGGOsTLARRPLP90Qvyc3NlX52cHCAjY2N9LMlCgoKkJeXJ61LdWiRn58vha2tLezt7eWllvvzzz8xd+5cNGzYED///LO81IrkpSPx1nnsXvcXth68gsh0MX/iYnv3Sqjb6REM7NsF7ev4wUkeys7NuI2z3z+GWQfy4f7wW5g8sDVaVHEuLFSIdeZGbMLrr/yG9IffxosDm6BxRSe5UFSQjYzEEJza9jdWbD6BG0nZyBN/qZ1bBVRt2gW9+3RHj5Y14CWnXSjIk37n/D1V0Gnqs+jXoS4q2xWWkcz4mzi+cLK4TeL2NZmIj5/rjuaBXkWj7/lxCLuwDd98sAEXOs/AsueaQTjyFWavOInTtzLlF6mpiP4zXsOgjvVhe2IJ1q46iBDf/nj6naFoKL+iRAXisXxpKV6YuQ03Ehth+IujMKBXfVRQOazP/vgEvt0dgA6TH0O/LvVQQV4uyctA7q3d+OyDn3EmwR+dJ0/BkK6NUf7WRmxc/QeWHkySX3gPAR3QdeBYvPFILXmB9bh8+TLmzJmDTZs2ITw8XF5qPjrX6ZzXc65Sm0NtD61P9VjKiHaLZGVlISYmBtWrV5eXWMaIdkvJp52dnRRa5OTkSP+nbaDtoXxYuj0JCQl47733sGjRIhw+fBjNmjWTS6xPRtgZHN21CRv3nEZQTDryxNbHxsEDlet1w9AnhqNjbV94KY0oYhF8eCuWffQ7TspL1LmiUr2OGPXmdDzsnwfEbMYH7/yByMZP4vHBndAp0EV+nZrLWPfZImzYfxH3P6PEtuTxiRg6oDMaeMiLREJ+DjKu7sCfq7fj4LmbiEsT22g4wsO/Npp36YtHBj+EJn7096S39LNY+uJ87LgejQRp7fspj4cmTsaQ3m1R111elJOIpOANeONVcd/Ef+YXLr3D1tEDvjWao1PfoRgptp2e4iFZdHbdwL4lf2DVX/sRLC9R541m/UZg+NBmcL+0Cp/9dAFZfd7Cosdqw81J/RjPSQxF8KoP8PoaB4z8/FMMqOcLX0e50IosXboUs2bNwvjx4/Haa6/JS81T2vpbS5Yswfz589G9e3cpJ5ZS2i29uSCOjtoOFqNyER8fL+2Dr6+vvMQy1vCeaMSxRZKSkqRtKV++vLzEMkoutL4nGpkLovXYIqmpqUhLS0OlSpXkJZYxon9gDccWycjIkPoZAQEB8hLLKLnQc65aSy6ys7MRFRUl9T211GFEu2XUsfXTTz9h3rx5mDZtGiZPniyX/FdcwIp3fsSWk9cQJS9RVx49nnsBg3u1Rh2x93Nix1os+OkUcqr1xvTZT6K5+JHbvtifMf78Nmz/bRm2JvfEtG+fBPWobWO3Ytanf+JwUDQyCl9WxNYejl6BaNNvDEb2bY5AHxc4lHhoXMXGmUuwPtQfzYaMwKSe1eTld7u29iP8sjEeTh2HY/SErqghL6fP+8kXNmPFqo04cDESCRniMWHjCHe/mmjaqQ8GDu2BZv6m7wWXsfbTn7HxwKUS+7pdJjyLof06ob5HHK4f24al7/+KE3JpcbZOnqhYvz26DRiC4R2rw9XyU9Oq7dy5E7Nnz5bajDVr1shLLUPthbu7Ozw8TD48mMnI90Ral+rQwqj+liVK2aFUCuTGiR/K1+Dbt9/FzIUrsel8BJJSU5CaHoXgY1uw+qcv8MHnP+LnrZeRRCOkooLcbMSd34Jd28TGasF32HAsCKHFW1AhFwVpITiyYxv2X45DUqa8MsmIRsjBFfjy1dfx4bzl2H0tH07lAxBQ3R9u6Tdwat0izHz3I3yxYDWOxRV2/Ii3EIWjB1dhx6kwRN417peBtMTL2Ll4MzZvFmPZFpyKTESy6bB7ejziL+3Fyt37EFHgK37YtkV25GkcP7ALRy5eQ1hSqrjPapGDzNwC5Iubnx4dhIuH9+Hw6Zu4LVdrjoL8XATtWoLte7Zj15al2LD/Ai5HmuTDROLlPdi38ziCom/DdIhWyE5E7MW/8fGrn2PJ5quwrd0CNav4w1N8V8pNCkXI6b3Yc+gEghPU9kGOjExk5hTlk7F/S2JiIrZv346NGzdKHzxKm6TTf2HJN5/hw/m/Yf2Bi1J7kpIcj7ig/Vj/6zf47I238f2Wi7iepJx/mUiOCcLx7bux83QoUtNUzlcpMpCemYdsai7EjgMyQnFq3y7svxCBmNSSzuXbuHnmKPbvO4lzIdEqdSuRJbYL+chT2kshH5nxITi08FW88OanmLf2JCLyPeFXORAVPfOReHUXVn79GT79bA7+uKy0UjnIyUxH+p06ExF94xJO7tgttktBiP3H7xPbVNP2uSAb2YnB2C+231uOBiMqPqno9cmxiAg6hj0rF+LrLz/C9JkbcOV2HsRmWZaCqKAzOLT7CI5diTT5PcUjE+nZ+ci1c5Ta5IQDm7Hp5+24lCXmV67pbulIjruA9T9uwOYrdnBztIGjts9mjDHGGGNmSELIiUPYu/8MLt6MUenLKJGNDOpLUV8oNwVxoWexZ9MarF2zGF/8egHJ2XnSV9WmMhPDcO34Luw9cBXx4r+l8sxwnDu8F9sPnMWV0Nii+lOTcDvqKk5u/R2L5ryHVz/7BdsvRCGlxI+Rt3Hr3DHsP3he/KybJi/7p+Sbp3Fy3yGcCRLrlJflpScgdONHmPHuF5i/fDuOB0chLiUVt2Ou4cLBtVjy9Rf49OO5+OtiptQlLpSEm6ePYN++UzhfYl+3QO7rZiIlNhgndh3AnlCgWkAgAqubREUvOKQE4ei67zBv7hx8uv6W9JsYM4Ld+yL55/ui0V5C3wxpGS2mEWeqg9bV+u0S1UFBdWj5tk5x8eJFHDlyBP7+/hg8eLC81DpkhB7Ert9/wA+bbsCl2+N4YuQQDHy4O7p0bodWjeqjav51XDxzClfSyqF6kzao622L/Ox03NgyG2suFSAxIhIJTtURWLsG6lRyw50x9YIs5CecxNJFe5HVYiQGtgtEdW8HiAsRenwr/liwFL8fTkZAn2EYPuRRDHmkB7p1bIMW9Wsj0F9sJK+dw9G9FxENP9RpXQf+9gLc7W5h6/rDCPfsgBaN6qCe8s1QdixiL27B/O8Owa99c9wOCUflh3qhYc3K8JO/PM+OCcKFnavwy+lyePS1aegRYI+cCyuw5mA8PNoMxaOPjcPQHp3QqVPx6ICWTeqgipczUq/sxNFDlxFdrjUeHtUBZn2PLGQjN+0cfn1/Dg75dkDNvDAk51dCxZr10bxWuaJ8yW5unYuN5/3QYEB3Mf9V4SUuy0+LxI0Tq/HDgmVYvDUbbZ6ZhGefHYUudfzh7WSDrLBjOHHkOC7mNcSgF6bjsYfV9kOMdq3RukF1VPYuNovXCtAMFjpHgoODMX36dHmp+ehc13uuKm0Ora+lzSF62y1C33Klp6fDy4v++pYzot1S8knra62DvmkjtD7t0/79+7Fu3ToEBQVJs1+9vb3h6uoqveZeMjMzsWfPHpw+fRrPPPMMKlasKJdYkdxr2P3DXPyw7gbSAjphxNgRGNTvYXTv3B7tWzVC3YB8BG3YitNxvghsUBO1qpaDA5IReeUUdm24gvgOT+DLqcPRuVNnlfO2I9q3bYEGgRXgZS8eW7dP4o9f9yOxei/0aNcADSqYzLb/h3AcXbkDJ1KrotmgMXhhXH+V+ik6oFXzBqju5w4X8a0yJykUV7Z9h8+/XoZ9dj0wYNAAsY0eiD4PdUaH1g1RP9AH9ik3cWbPPpxLLI+mnZvC39EBHt4BqNu6LdpJdbZADbc8sR2PQmrgYLzy1uN4WFzeWSrriFbN6iHA1036fZK8NKRFHsfSxeK+NX8crzwzHAP7dC/cvo7t0bZVM9SvJO5r6F78sec6Miu2RJta3vBwEs8zxODizv04FGQD/4fH442nB8n7VTw6om3LxmL+K8BDyELe5R3YeDwaNYeORGMfx6JtUWREIfzUGnzx43F4jPwULw0IRHlXe6v8Rvfs2bPSzOmmTZtK+2opve0WtRVUB637oPtbZ86cwdGjR1GjRg306dNHXmo+pd3SmwvyoHNBs96ojpLa2XtR9oO2QUsuiDUcW4Tec6geNzc3eYllTHOh9W9iVC6InlzQ7GcKLbN5CG0DbYsRuXiQxxahmUnUz/D09JSXWEbJBf3+/3ouqO2jGcPU99RSB+XBiFwYcWydOnVKeh9o37492rRpI5f8V9zCwV+34lReXXQYNhrPj+5XrC+jhNh3E/tS1cS+lHNuFK6dPYKNm08hIScJt8IyUK9LDwR6O8HZpKlICT2NM/t243R6Mwyc1EuajWmbfBprVuzHFeeW6PfoaDzzaN/C+jt2QId2rdCsYS34J+zDpgNXEGFbFbUCq6Kaj7PJ1TnFReDE6p04FuuJmh06oV8z8UO9iqijf2LPiRQ4NOiILj0bo2JBGlIiDuG3tz/A/IuV8dCwYRg2TOx79ngIXdq3QvMGFeGWEYZTW47isk1D9O1ZA67isWaDMBxdsR0n0gPQYvBYTBl7775u62b1UU3q6yYjOug0dq27hJjOz+PbGSPQoX07tGsnR+uWaNKgKjzEvAbtPYjjMRXQY1hr+Ii51HZUWp8bN25I/UZqM0aPHi0vtQy1F3SVgpPT/T6L3JvedovaCqqD1tX6nmhEu2Wp0nIMlRrJN64g+OwlpFbshJGvvoFXnxmDIYMGYeAjo/HElBmY8fI4DKhXgLiLJ7DzfPEZXYFo0MAWYafWY9POY7gUWzjd+X6yIs7g8Oa/sPZYIqoNfRmvvPEmJo/pic7NG6Nxw5bo0PdRPPnCNLz6XB+08rqFLcuW47cT8YCNLezrdkJzf3ck3wxFVFwilN+Wl5yA+Isncdm+HgZNHorGXlG4eDEK0XHKfJ88pCTE4PrlKNj7t0OPhvZwujMK6YbK9Vqjc5+B4j6rxUNoFuAFD60zp3PSkB20HqtP5KJi53EY2LkenMOP4cy5c7jxj+sR/ik/ORzBh1Zj4Y+/YulBW7R/aiqmv/IEutTxQrm7rpJygodvLbTurbYPcnRvi1Y1tA2wMaYHDXzWrl0bycnJWLBgAWbOnIkffvhBmi1KtwSgwdL/rLSLOHIiBFGOLdFz7GRMm/IUxgwdiEGDh2PEE1PxxtuvYUIXb6Sd2oczV0NxVzPpKHZia3YWz09qc1XO2Uf6omfnpqiubSyjkHcgarfqqVK3Ej3Qpk5F+FB7UpCCuGsHsXHJCmxJboPx097EW1Mex5DurdGiaQM0a9sLA8c9jxdfGI/BjRxwZeMKbLshfrDO90f9rj3R+06d/dG9bSME+njAvWorPHzX7+uOVrXKg74b+wfqC1VpJXaM+xW9fvCjGD1hEqa+9hpemtAHLTP24vcf/sbpqFSkm15P71ERFZt0M/k9xaMXOjYNRAVnJ3hVrImOQ9qgUs4JbNgdipT0f753ZcZGIOTQXvF9pQ4GjWoNP1dHaB9+YIwxxhgzk/iZrl7b+/XdxL5UTX94mfSl7N3c4VOrJiqd+wM/LdmPq/Hp97jyRYVvHTRsJ/bxlPoHDcXQUU9iymvv4s0Zz6Cv3y2cXr8Be06FIK7kj/uWy0tBaswprNuXCNfWT2DSSy9g4mMjMWLwQAwZ+TienjIdL00cim7lE3Bm7QacTROQYzr11bsGarfuYZKf4tEDrZW+rsLOCfa+NVC/YQM0MI3mbdFt4Dg8NmYk+lbPRcrpPTieLG5i4dgdY7rwYKiVyS+gKfaOcHLwRnlP8bOwvLyQPTybPISu/Uahd7O68HNMl5crmqHvmIfRwS8Ip7ZuwPr9IUi4bwOZichTh3Fs30Uk1+qEUZMfRTs/e9gW/zLApRqadu+PEaNawuP2aaxcdly6LF3waITmdd3gFB2CmNh4+TL4fKQnxeD6uSBkVumDLv0ewsPVHBB1PggR0UmQhliEVCTGh+PKtVy4N+mAFuVgxj1PjFCAnPREhGzaijMFVdC+dTs8PKgNariF4fy5MzgUUjyfd8tLDkPQwZVY8vMf+OWEK9o/MRWffDhOzJkTXPhMYv8xLVq0wEMPPSR9i7d792588MEHUixfvlz6djI6OvrO/WP+U/IEqZ1x8HaDm7sbHEwbURs7wK0Z+owXO2K9a6GClxOsedxXSLuJmxd2Y/UxG1TrMQ3T+1aBn6vd3TMA7D1RtVEnDJ/4OPr1agC3nFzYmHZI/1/Ywsm3Jur3mYhpnbyQf3wV9lxPQUKWXGwhe6/yqNB+ALr7ZuPIWrqXcxqyTfdBSEdseBAO7r0GhxqPYEhrR7g6/StvGowxxhhjFnP0qYSa/R/H4y3L4fTPX2PV4WuIStXTrxb7PTaOKN9jMp7p2QAB8Udx9uI1BFlyrzhziX0wQewf59nbwL2Sr/g51x62pv0yBz9UbtgZw57sjZ4tvZAt9v+E/8++p40r3D19UaWqEwrEPmGG+JH9//X3sTJDGsJRpqTeLxRqZeaG3vUpjKrDWvlWqYHaDSoDt49iza/7cOLcBVwJiUB0/G2kZuYi364eejz5P3z9zTt4q69ye+MiVbpPxNiHOyMgZB92/r0Wu26k/ePhF0WicO3qTVwM8UOFml3Qvaa8WI1vPdRo0BEPl0tC0p7dOJljg1yhMpq1rADvlOuIiIpBDD3nQGygkhLCcPpKKjwfeghNXVqgW2cf2IVdQlhUbOF9TnPjEB99E5fjyiGwcwvpoUT/ylhiQSZS44Px16pzEPyGoFt9TzTo3hMNavgh/sJFHDsSjMx7HB45KVEI2rcc3y74BvP3ZKJK72cx880hqOcG2Kl+Js9HVlo8Qi+ekS4TVIsrNyIQb8Zs1AdN7RwqKUyplZsTCrUyc0OhVmZJ6K1D7/oUeutQKP/28/OTLldq2bKltJwGPg8ePIhXX31VeujLb7/9Jl3uGxcXJ5UVr8dq+dRBi1oB8I46j9O7t2D3iYu4FByK8NhEJNNDh8Q2KGDIF5i9aD6mD26N2qbPPMrPRm78NZw5q37OnjkfhOBbt+/MgtckIwGxoZfV66e4FIaY25lSu50bE44osQ257uWHTkN6wMfOVr2t9KyFuv1n4OefPsULbdzg8q98u+QAt3IV0WtwGzg4XMbZK2lifk1GnrOTkRwRpL6PFBdvIDyOHmwlsvWEu29bDOrjCafD67BbzHFs4XNzJELGDURcO4Y91/1RbeQAtBI759ofV/LvUs4bS0KhVmZu6F2fwqg6iFqZOaFQKzM3FGpl5obe9SkUamXmhhHrE7Uyc0OhVmZuGLG+Qq3cnFColZkbCrWyfzOM2Aa9dSjUyiwJPXWYUis3JxRqZeaGQq3MktBbh971KYyq4z8vPQ7RN+7XdwtHfGr23Z+57TxRrlovTP5gFBp57cfCxRtx8EIs0nV/Ce+JDj1bokKlZNyIiEFY9L0/6Wvm6A63yo3Qs6an+Ln/T2w/cBTHzl9FcGgkYhJTkJGVC5eqLfHQS4vx16/vYWB527snBmXEI/bmFfVcUYh93djkrPuMUZgQaDJTPG6FiP3zoBTYl6uOyh5i17EUfieudv78W6FQKzM39K5PobUOraTDlj7o3i+Up8lR0M9qrykpTOtQKzcn6P4peuugoPWtlUv9LugydCxGVwrD9o8fRc/OPTHyufcx8+dV2H7sCq6HxyMpNQNZ95obblsZPSaMRZ/eFXDz8DYs+2U/ou6at24iLxHJqclIdPOFe72aCJQXq3OHu6cPqgZmIifzEs5FFk5Pr9OyE3x8EhEWGY3IOPH35MQgLvISTt/0QPtubcSG0RnNO7aGd8Z1BIVFIzxNPMBjwxAdcgXXyvmie4fiT1IvQHZGKm4nxEmDMHdHItJzxGNA4/EuZMYhKWg7Vlx1hN+4IeIbUzl4+LdE27oBqBcfjLCT53FR9fqFHIRsn4MPvvoBP+0Oh627Ixw9XcQP4/fbkFTcPLUaHw7pgA4d1GP06/PFbZFfbqWocVE7h0oK5Vyl/6uVmxNKHUa0OVrroKB1teaBwoh2S1lfTz6VOkxz0aBBA+m+ycWf2Ef3dnrllVfw9NNPY+HChbhy5Yp0ST093dTq2TXCgMmPok+rbJxb/BrGDeqL/k9Mx/++/hXrdp3C9bAYxCalIytXpS1JDkP8Xy+io8r5KsXDEzDx052IlV+uyeW1+O3dMer1Uwz7FMv2XBdbELHvnZYmtnvpcHauisZ1HK2u42dj7wCnilXhYmOLm1ExYufY5PgIPYh9cyao7yPFwDfw5Z9nUPjsPVu4ie8HfcaOho/TYRw4FIu4BOXTgoCcsBCEnj6PEL+6GD+0hZiH/0YPWMv5akS7ZVqHWrk5YUS7RUHrE631KNtQGnJB9RjdhlsSprnQW4ee/aBQcqpWZk4o61tDLvTsB4XeXCjb8F8/tihoXSP6W3pyYQ3HFoWSC611KPtBoVZuTijr6z229AxUWI0Lf2Lh6yPV+zMUI2ZhxZFQFL/G0NbZE1493sCHw6ui/NGv8Mu2EzgWKeZFLtfKwb+i2Dd0QULibcQnK488MpBNOXhX7oxJ88aiedpWzH72EfQbNAqPv/oZ5v+6CftPBiE8Jgm307KKHvhp6tIa/PLOaPVcUQz7DMvlvu4dBeIxm5mM+OKf/yNDcWnPb/jr9yX4M7oaKvZ+BD19Acd/ZSbVv0tP+6fnXDWi3TKtQ63cnNDTbmlVCg+j/zhbHwR2fRqv/7ULe355G893qoiUY8uw4J3nMap3KzRp2BH9X/weK84n3Xt2UsV+GDW8N0bUu4CT2xdh7o67HvVeJCkRsSkpiJD/WRL3ch6oWr2yeKbm0MTHQs3aopmPA/Ii4xAZI74FxEYi8VIQLrrWRJe2vrC1s4Fvy/aoUS4CIcFRCInMQ2psFGJDbsPFvQM6NpbruSMSm2dNwbAmVVG1qmlUE6MbPtl7CxEaL8XMFH9v8Nb1uGVfHcMeaQRPD7rBsD9adWiE+g2icPX6Qew8rpbVfVi74gAuJLdHn2HDMLrGebGN/xwfbL/3U/kAO3iUr47Wg8dgzDj1GNC1Bep5yy9n7AHw9fVFq1at0Lx587tudk1vxhQXLlzAe++9hxEjRmDWrFmIiDC3tXiwXOuPw1vf/Y6NK2fjzcH14B2xA8s/m46nRnRD07rV0GLsJ1h+LAIJJrMPJQ7ucKnVFaPHqp+zYx59GL06VNE3K9GrBup36KteP8WQ1qhfrfBhbmliBzcuMlJ6oy66r7IVsbOHjZ/YPtvY4B+3HHWvhCrNe6vvI8WwTmjVwLcoly7usG8/EMNdHXBu935ExcbLbzPpuHb5CvYfiIVX9e7oX1vso5fC2QCMMcYYs1LeddCkc3/1/gzFkOaoVdlD5V7mtrC190HPt7/A4GpeuDBvEbbvOo5IvaOh3hXg7+QCd/mf/x9sXfxQocfn2HFmO/74ahKG1crCrR0/44vpj2Fg9xZo3K4Hhn6wGueS6GvrYrxrosH9+rpDW6Oe3Ne943YoEpaORmD1gLvHAGrWR9uhr+DrI05oNe4N/PHxwygnvpy7gswINuIHXiL/896UEVeaQaT1CVM0YkwcHNSe1FAyZbSYfn/xmUyW+OuvvzB37lw0bNgQP//8s7zUuggFecjLTkdqShrSs3KRmRqF8HOHseXPX7Hl9E1kNxuDcS+8jXf7VEJ2cgx2vVQVE1YMwGvbvsLYjnVQPv0a9iyahfmzN+NW/afwyc9T0TPpB3Tv/CFuP7kSP7z4ELpUPIPlH3yJz//OQo3nPsKGGa3l364u5sQK/P7RRHx0ujP+t28DngsAXG1v4M8Xn8L80Mbo+/SLmFzlOP6Y9wXm3BqP33e9hlbin8k27zS+Gf40fszthwkvPY2Beevww49/YG+1t7F9/kAoz4yMXP4oJnyxExdQG/Xq1kD5ux6GRsMB1fHI6zPQt4G/+AYAXF3xFubNXIUzVZ7HzL9fRsfCF6oT4nB9/1/4ctQHWF7uSWw89AHa+zjDRTyUC6I34bsPZ2H2BqDJk29j8Qc9oIxR7n65Oib/egtxDafiJXE/H+9sh+vrF+GrV5fiYs2heH/1QoytCjiZfK2QdHABvp+zAEui22PqNzMxqopcUIydowtcXN3gbIWDHJcvX8acOXOwaNEiBASY9Zz+UovaLmp3tD4Zz9rRbM/ExMT7zvqk9tbd3V16qqmPjw/OnTuHEydOoFmzZvIrrJCQj9zsTGSkpSEtIxNZacm4HXIGWzf8gF/W3cBt14fw/Ccz8MSQNqjuFIoTaxbif0//hrPDvsK5z7qqd7Js7GEvdj493J1gVyC+J978AYP7fYLgrp/j46nDMKzJ/Z4GfBjzR72O74IC0WPS8/hgWF15eTF2TnB1c4Gzoz1Sz/yJv+a8g3ePNcLr61fjxVpisabe321cWP0j5r+7CHtrv4ltq59ANXHpPavKikL08W/Ro5u4b8OX4fCXA9G6hsrTfdOjkbLzf6gxehm8p2zCLy90QvvqQfjzrU8xc0US/Ce8jmXP3eMYsXWEs4sLXF0c5G9lxfMs5zZOv9sZI3+pitHzv8Az/ZujRu4pbPhhHmYuC0flqYuw9Jnq/xx4tTJLly6VvjwIDw/X/FTk0oKebpqSkoIpU6ZIObGUNfQ9qf2n/qfevmdCQoJUB7WhWii5oPciLU9ZNc2F1nwalYvbt29LT1AvX768vMQytB+0P1pzQazh2CKpqanSeVKpUiV5iWWUXFAetPZTjDy29OQiIyND6o/QAIgWyudEPbmwhmOL0PkRFRWF6tWry0ssY8RnZqOOLbrCaN68eZg2bRomT54sl/xX7McX/V7GT/GtMPzFp/Fq/3vcU87OGW7uYt/NwQ42t09i87K5mDHnCqq++Te2PSt+jirIQNjfb+Lpj9bjUvUJeH36RAyx2YQlH72DRbGP48dzn6MHVRP6M54Y+SnWOA7H/958/t6/7+hnGPbyjzha8WmxrimY2vles2uO4rvH38KCC9XQ8+VXMf+xhvLyu52cNwzvfxcG12Gv4K1PR+GunpuQK/ahxXYqPQMZmVnIiLuFK8e3YN369dh8LB/eTUdjwZr30bGcLZxtD2Heo6/hu2u10Hvy83hvaB25kmJM+rq2uIXTGxbh7VELcKDlSHw2sgns6FKo1KvYuX4d9l21Re2+E/D8lPHoXd8Pvl5u/9KzRv49O3fuxOzZs6Vzdc2aNfJSy1B7QZ/VPDzu91lEnWkbrrXdUvoHRO9Yn5Y2R2tbK7XytPL9wpRauTmhUCuzJIyqw9rZ2NrDwcUTPhWqIKB6IGo3aIUO/cdj6uezMWPcQ6gWfBT7V+zGOfn1xdm5VkfbvgMwZGh9JJ/djK/m75YuR7xr2NvJH/6e3qiUkYj04JtiU3Q/6UhNTkT4DSc4OtdDY7HPZk9Hj00VNGxYHr4Z8Yi5dQlnwm7hfIgTPDp0QEMaCKVV7euhVRsv+CTfRFTYCZwLu4mIKA/UaNoA/zxdfdGk5xg899bH+Pgj0/hIjCnoV9cLXlqmZSVFIubyMWyIS0J2+B94eWBP9OraBV26dEG3oa9j7trTiIy+jJDT27DjH5Pf2mLwiH7o36s+qlaoizYP9cWEp5shOXgXvnx/BYLScu5+gp5EPIkdXFDOx0+6N6NaeJezzoFQU05OTujevbvFQQ/m6datm/R/tXJzgtY3qg61MnOD1qdLOujnHj163BXFX6sWprnQsj6FUgf9fK91S6qX6lDLZadOnVCz5v1uGFzUIa5Ro4b0IUXrB4R/lY0dHJzd4elXEVWq1UDN+o3RtPtgPPXGj1j8fn9UdziJDXtP4cQ1kxne4jq2Ll7w81U/Z/18xfaHBkLll2ti7wxXDx/1+im8PeAqdQ5pNr43ylcuj6zsSFy6nnPvW4TkxyD05DK8MWgCJv50EQmZ4t9LLvr/lJ+Xi6SoMLH9E1Bd3E5XZ5NvsMSOrpO7mEu1faTwKQf3OwOhxAa29m5oOGoUGjsF48SJUNyIzEZq8FkEnQ9Devm26Ne3stUPhJpycXGRvkCwNGgAlUKtzNxQ1vf29r6zjH4uHvd6Df1sug3FX3+/f5suq1ixotQxV+uLmRMKtTJzwpRauTmhUCuzJBRqZeaGEesTtTJzQ6FWZm4Ysb5CrbykMKVWbk6YUiv/N8OIbdBbhym1cnNDz/qm1MrNCYVamTlhSq3c3DClVm5O6FlXCaPq+M8TP9O5in0y1f4Mhbc7XGggVH75P9i6onLv5/FMn+oICPkVmzZtwvZwuUyD5LhoZGZliH0pT/h6Wj74VRzd+u6efUwbBzhTv7ViVVQLrIW6zTug56ipeOud9/HxE1URfmEl5m+IRGqmyR1AS8xXUV/3DkcPONXtieEjR+DRUY/i0Qkv49N5n+DF/rWQd2AN/v59Ey7mlL6BUFNq58+/FQq1MnND7/oUCrWy+4VW0sxQ+ed7opco33LRSK+WX0ijvPSBmtbVM1pMQR/EtX7LRf7880/rnBmadhn7123EutP5qNTvCUzvUVEuMCFk4+Jf72L+zDU4U+l5zFr3MtqozAyVvl/OScD1/X/gh5mzsPBGAJ57rg02v/Mtcp5dVTgztIaAa6tm4uvZi7HFuT9mLJiHZxvcI6/JF7D39wV47ZPdSOj1GY4uHibNnqRGLO3Ax3jp06O4XbcZWlZOwrE/rsD77VVYPNxLWpUkb5yGZz6/AZe29VDZNhzHjtih15c/4a0ORU8vKZwZehEej76Dl18Yg86+csE9mD8ztACxp1bjz69exZub7dDq0UFoUfzBR7ev4ezpMzie1xAD3lyA38YV3su0cGZofQz95kM8+2i7wvuqZici7PgafP3ODMy5XBePz16Kjx6phcrlCo/rwpmh32J5Qje8uew7PPYfnFipzAxdu3at9G2Vpeg8pXaDzlWtA2fKN1T0zZDWRs70Wy6t6Nt5mtFDszaKb4cZzafU9t3v23lz6jDNp/JNWfH1TLdNrU61fFK9R44ckZ4iT98oqqlQoQI6duyIPn36IDAwEKtWrZKeOE/rWePM0Our38aynQWo2O9R9O/TEtVV/vQF177HM4/NxNHASXjppacxsV1y4czQZ/7E+bHfI3xeDzFH8ovvRevM0JD6eGT6dHw1pr68/D5Sz+HQivl44ZVdyB7zI3aL2+Vn/8+HKOXFncKRFZ9i/HtnUOWNrVg7KRC+dz11/v9jZmgeUiPOYuNLj+CptQF4ceMKTOlcHdVczhbODP07A1UnvY/V01rJrzeH2BvPPItZw0Zgmc3jmPraEDS4+Ru+W3wMUa1fxOIvhyFA10j0v0OZGUpfoowePVpeah46d03bLS1tn/Lt/L3aHHPQ+lq/nTe1e/durFy5Ev369dM0M5TaX6K370kcHbXd4IJyQaG37xkfHy/tA92eRAvqh9PxQdug5X2V1rWGvjxJSkqStkXrzFAlF3Rsajk+jcwF0XpsESNmhtK2aM0FsYZji9DMUOpvab0iScmFnnPVWnJBV+soM0O11GFEu2XUsfXTTz/992eGJnfGY69NwXtD7jHT0ZTazFBJHuLPLsXX736LdcHVUamBJ8onbcXeeEtnhqZg79tD8drSWFR97gO8PGUYOt/zgoOL+PX5VzB3txOaPD8DM1/ugn++NBJrX34SX60vQJ2nZ+DdN/uifMQFnFjxFRaeboYn505Bey8nuBY7DIXUIJzfPBejn1kJu3cOYdtzgahU7ljhzNDQxhg84yV8McqMvq4yM/SJX3ByDPXBe8JB+ZCel4TQQyuxcO4S/HXCDs0em4b3/zccDU0ffloKKDNDqc14UDND9bZbRvQPjOpvWUTc+RKJOyeIjbIU9LMW4o5J64sdW3mJ5cQES3WIfyx5iTZ//PGH0L59e+Gpp56Sl1iJzMvC+s+fErpVbyS0nfCdsDcsUy4wkX5d2DH7SaF/o5ZCt6eWCUHioqzb0cKmCfZCebfBwsyDQUJk4Ssl2XEXhQMLnxN6VnUSApo1FXzt7YU6L28S9oVkSOUZIVuEX17rI7QKbCL0nvGbcCQ6V8gv/ifOCBMurP1SmNqjpVCz4QjhlZ0RcoEsboPw2bh+wpCevYSBw0cKHTtPFH64Lpcpbi4TXn2kh/BIt25C917DhC6DPxK2JshlsohlI4TejRoIw97/TdgfLy+8jyt/vSlMaltX6DB0tnBQXqYqL1I4seJ94dFalYTKHWcIK84GCVeuBglBpnFytfDDK4OFht71hcajfhLOZYvHvbjqrpeqCfX9Hxbe/OuIcKOwNkl24nXh1PKJQkc3e6Fix6nCouNRQry4Dkk88LXw6fAGQoOHnheW3Spc9l9z6dIlYeLEiUKVKlXkJZahc1TvuUptBdVBbYcWRrRbJDMzU7h586b8L8sZ0W4p+aS6tFJyYZrPW7duCR9++KEgvmnR6OldIX4YEUaMGCHMmTNHOHDggHD79m1B/DAvTJkyRXBxcRHOnDkj12JdwpeOEduROkLzMR8KC4/cElL/kbJMIXzDdGFQ4ypCx0k/CH9dzBKX3RSOr/6f0Me3jlD5xZ3i8VL4yvvKF9/Lrn8tDKpbUWjwzBJh1bkUueBeDgnzRnYR6reeKLzy22V5WQnyk4TQg4uEtztVEVzrDhbe3RwuxGXkSW3THVkxwrXtXwuv9qgreNUYLLx/NF1Iyym+A0nC+b+/ECY2rifUHbJE3NvC9u2eMiOFqH3/ExrY2Aj2I5YLx0NuywUK8f08IVg4texFoVsVZ8G901fC5muJQrpU6RnhjzdHCq3rPSIMmXtCerVl0oULMwcL7VoOF2bM/Ep458WhQvce44TX1oQJ2o/+f9eSJUuEJk2aCF988YW8xHylrb+1ePFioUWLFsL06dPlJZYxKhcUWhmVi7i4OKkN1coa3hONOLZIYmKiEBMTI//LckoutL4nGpkLCj1SUlKEyEjTnrtljOgfWEt/Kz09XeqXaKXkQs+5ai25yMrKEm7cuKG5DiPaLaOOrW+++UaoW7eu9P//nn3C531bCbU6TBPeX02fus2QdELYNG+80CCwtdD7h2LHc06EcHLxq8KYti0Ef78AoWbVSkJgk9eFbWKRlOWbC4XH29YUynV+VfhyY/EP0+KxUJAtxO6bJTzdobJQueWzwocrzwmx9/3zJAn7vhgtDGhYW+g44Svh76DCz/+m0i4uFl7t01Co1upJ4dXlZ4VUcVnGzSPC9lcaC/ZODYRBc3cJ5+MyhLu7lrlCevghYfPHfYVqXlWEgb8mCrHpdM4cFOaO6CTUa/Oc8NofZvZ1hVDh1Pr3hH4+tYTyU7YLOXnFjvn0MOHEr/8TxrcJFPwbDxOmrQoWf3vpsmPHDqF///7C4MGD5SWWo/cRej/Rwoh2y4j+gVH9LUvYvS8SP/iWSEyM9H/6ZkjLaLH4u6Q6aF2t3y5RHRRUh5Zv6xQXL16UZjX5+/tLT1K2GvZOsM9JQmLwGRw9fA4hKSmIun4TkQlRuHUjBJdO7cPenWuwet0phNo2RJexozCwiT9ss9NxY8tsrLlUF50eexhNAnzvXH5u5+IBD09PuMefxbqNZ5Ak/g08O4zDkHaBqO7tAIdyYpmjA7JuXsbBfYcQmpaG1JQ85OZnIvV2FG6ePYZ929bi9z924FioO9qOfQaTR7dBedPBemdbxB3fgwtHj+NEvDfcG3THxMdbo5Lpn9nNFtFHtuPMyXM4m1kNge364tnB9e668XPquRVYczAOTo26oUPbJqjmKhfcQ8KlnTh66ASuZPmifIAjUkOu43qxiM92gJAcjPM7V+DPYzaoNfINvD2qCSr5+kqzM+5ERX+4psci/vheHI/Og0eXAeha0QGhW+di43k/NBjQHa0aVYUy19XO2QXlKlSCd/gxrN9xDBFCIOo0CEAlH1fkhx3DiSMHcSjSHn5V/YGYf25XYUQjId0GrhU8YW1fcNEMFjpHgoODIX6IlZeaj851veeq0ubQ+lraHKK33SJiwwyxgy5d+qmFEe2Wkk9aX2sd4puU9H8ln/TvQ4cOSbPjxQ8fUhmhWQh0Of3QoUMxZswYaUZonTp14OzsjMzMTOzZswenT5/GM888I10Ca23cxPYo8toJnDgThJAbUUiMi8TN8GhEh11H8OWT2Ld1Mzb8tRJ702qjy8ChGNCuFvxdkhF55RR2rTqOMO8qaO6bgRDVc/Y6QqPikWLri4oe4t/h9kn88et+hNlWQAX3fOQl3br79Tdu4nos4O3vASf7SBxbuQMnbmbC0dcdXkL83a81icg08X3S2R3lXNzg5OSMco5RCN6/FTuuZyMzLQnZuQXISk9GbMhZnNi9Hiv/3IKd5+3QctzLmDqqEco7iMfaXYd7FmKvnMTR3acR6tMFj41uLt2rufAl4vvH/s3Yvuk4gtMc4FPDH255aUiLPI6lS/Yj0bsWGvvn4XZsWOH2BV/CuROHsGv9amxYvxEbU1pj3BtTMa5lRXg7UaMfg4s79+PQ8Qhk+fggwOn2P/ZPifCkbOQ7lIOPm+kbirgNXgk4uvEQroVcwdnQAnjU7oIxj/dFXf1Xgv0rzp49i8OHD6Np06bSbSgspbfdoraC6qB1H3R/68wZsT9z9Kh0iw1qSyyltFt6c0EedC5o1hvV4epaQufmHpT9UNpwLazh2CJZWVlSPW5ubvISy5jmQuvfxKhcED25ED84SqFlNg+hbaBtMSIXD/LYIuIHYKmfofVey0ou6Pf/13NBbR/NGKa+p5Y6KA9G5MKIY+vUqVPS+0D79u3Rpk0bueS/4hYO/roVp6IL4O7rIvaP4lT7MxRRGfZwcHYTP4PH4NrZI9h2JB7luozCY61Mjmc7D/j5uyIv+TIunjmOS5Fif7BCMwyc1As1xGLb5NNYs2I/rqS4oKKvM5yzYwvrvx6EqxdOYO+WLdj8x0/483oltBg5AeP7tkRD37seslGMWIdtNMKunsGpsyG4EZ+BtIQoxMbcwo2Q8zi6Yxu2//07Vp3KhE/nQRg+sDNaVnCBvZ0NHGxzcO3EJuw+nYCsxHCERkYjMvwWwkIu4eyxA9ixfh027T6FYL8+mDF5OJr62YrrhOHoiu04EZoFJ183eBbcv69rT31d5zREB53GrjXnENXkEUzvV7PwnqEKsZ/o5ekEh6wbOHXwCM5G26Nhxy6oJvbD7bQdllbnxo0bUr+R2gxLryhSUHtBVynQLe600NtuUVtBddC6Wt8TjWi3LMWDodY0GAon8UMz3WvLHok3r+L8wa1Yv/0QzlwVP/AeOohdm9dg06FQ3Hapj16PjsSoEV0Q6CK+Yd5nMJQe+OHi7oGKVVxwa/9uXE7KQ7l2RYOhsHWDd/kKqFrVA+mRQbh0dDt2n7iJm2Hiz6cPYt/mzdh8MAjRttXRafhoPD5xCFp5Fsu9jRNyQw/h6MkjOJZVDc36jcXErlXFvTFh54a8G/tw5NRJXHFtgk5DRmNM07tv9qxtMHQ3Dl6PQ1jweZw8cAAHikW4rT/yo2/i4pbNOGXfAuOmP4+HKosdHLmOO2xc4WqbjPTEE9h6IgIJ5bpjTNcKCN82F5tUBkMpr46O5VC3rgsuHtqCffvCURBQF7VrVoJn4mmcPLIHW05HIFr8O5478s/tKozriMn2RJ1u9aHtQrH/PzwYWqS0DoZGR0dLt0GgS1hpWbVq1dC2bVsMGTIETz/9NAYMGCDdS9T0TfW/MBhq61cDVZ2zYHP7Bs4fP4Cdu/bi8MnzOHdiP/bv2oLVa/YgxK42mgx4Hk8MbIcWVV1gB3kw9LddCEqOxK2rp1TO18I4HhSJJP/26FFHbHzlwdCrobcQEXIOZ44fuvv1h0/gQIgPOnStDV/XGJygwdDTl3Aj+hounTl292tN4lKGP/yr1kS98k6wd/WAV5UaqJybgKgr+7Bt/xlcCwnFtUtncGz3RmzcdhTn4rzQ7JGRmPjyWLQR+9x3D4SS+w2GJuDwdx9j/uytuORQDS37NUMlZTB08T4kZiQg5sZ5HD8q79u+XdixTew8H76GWM/W6DFsEt59pjUquSn3/5QHQ3efwPW4mwgWO+/F90+Jc3G2cKzcWPobmLL1LYfbB9dh/8FTuFzQHB37j8BjfapB27DJv48HQ4vwYGgRHgwtwoOhRXgwtAgPhhbhwVBrIQ+GXgxCaFQQLpy+d9/tcm4AqlQLRC33hHsPhorsylWEj3M6cqKu4MzFHDipDYaK/bzYyKs4f+qoXP9e7KM+7Frxs3xBTTTp8SSmTeiB9nV94FjC4eEufs53Fnu6aTcv4Ozxndi+7zgunD+Owwe2Y+0f63Ag0hWVmg3EhPED0bt1NXiIzZmNkxuc/aujjn0MYm9dwoGdW7D3yFmcPnUCxw/twrat27FH/JybFdgD/ca/iCk9ysPVzkbsV8qDoWcu42Z08P37upnlUT6gFuqWz7r/YKjIoZwPPFzsIFw7hL0HzuOmcwd0bVMBHo52/7h11H8RD4YWMqLdshQPhlrVYKjI0QeVajZE+3Z1UUE8lm3tC5CXlQ+hQICDRwDqdxyKxyaLH+KHdUa9coWrCPm5uH3tCG4UtESnQR1Qp3w53NXVtnOFo3sAGrhdR3CWP2p2EBu7JpVQwUOejePgAZ/qDdHxoTao52eL5IgbCAuLQGRkPNIcyqNB9+F4csqz0u+sS7Oh/sERzvmxSMzMQ0GVtujWtz+60yjtXRzhmBuNuMwCuNfugof79EbTCnfXlR19EUEJrqjcvBNaNa4p7f/9ZMReR3RCApJRDk5ifihHxcOnbgO4icdderiACi2H4vHHGsP/HoeOo/hhXrCzR/zNHPHDeB3071UbmdcPISy7Lpr1ao+Ggf53P/DJzgk2vk3QyPY8IrMzEetQG41qVUc15yTExMUjOssN7rbq21UY5VC+ej20eaghD4aqUNocWl9Lm0P0tlukNA6GUl10L7/Vq1dLHzzo3p8jRozAjBkzMHDgQOl+XWr3QPsvDIYC9vCu0wbNGtVBdT9nsWMm5k38gJVTIP797d1RtXl3DHv+bbw8ugOaV/UQX02ykRofi4jgeNj4OKucq0Vh6+YHvyY90Luu2MZlReL8xUTYip0xRwfxNxV/vdj5FDyaY0CfevBzzUTUxXCkZOfB1lVsa4q/1iScqrdCk0b10aC82AjSFy8elVCrU290r+OG/LQUxEeGi+1zJOIy7FGuThc8MuF5THl2MFre855R4jEcH42Y6HTY1e6IAT1qSwOLhWdEDhKuXxfb5nKo0rot2rarDd8C8cN5WjTOXboN7/Lu0gyBO9snZszVrzoadxuK0U9NwVsT2qK8o63JQ6XSEXs9EgkJGbAt53jXfhUP+4r1UbtxS7Su6iyvK7Pxg3t+MOLzbODevA8e7tsTXQKKv6dYLx4MLcKDoUV4MLQID4YW4cHQIjwYWoQHQ61FMm6dvYU0sc9i62Kv2pdRwqlme7RoVBu1vbKQGCP2KZNdUKPTw+hTr3g7Z4dyFbzh7OiCrGjAt1Fr9BzSGpXFEpvsKFy+kkA3DYezs8nvE8S/o5M3qrXqhYFPTMcbE3uieTUvOJtzaNh7IaB+IzRsVB2+DjnIy8xAeo54jBQ4wSOwJToOfhYvTxuNvq0DxXJ5HdjC3tkLVdr0RdfanrB3soODUIAC8bjMF/uB7uVrovnDo/HEpKmY2j8QLuJxVrgpyQi/IPZ1c8zp67ZGk4b1Ub98AdIS4hB+IwsurXtiVPtKsC1+zNs4opy3B/wrOSMsKAWpt13R/pHmKO/sAHttp5hV4cHQQka0W5biByhZ0wOUGLMSygOU6GmH4eGWP+6QznU65/Wcq9TmUNvzoG9iTx/aYmJipMvHtTCi3VLySW8uWt9g6MMWoW2gDxvffPMNtm/fjt69e0sDoSU9UZ7Qgw3ee+89LFq0SHrTtsYHKDH2oCkPUBo/fjxee+01eal5Slt/a8mSJZg/fz66d+/OD1DiByjdwQ9QKsIPUCrCD1Aqks0PUGKszOAHKBUyqr9liX9nyJUxxpjVoEvke/TogcWLF0uDNeYMhDLGGGOMMcYYY6UBD4YyxlgZExgYiObNm6NyZboohzHGGGOMMcYYKzt4MJQxxsoYutxJ6yVgjDHGGGOMMcbYfxl/EmaMMcYYY4wxxhhjjJUJPBjKGGOMMcYYY4wxxhgrE3gwlDHGGGOMMcYYY4wxVibwYChjjDHGGGOMMcYYY6xMsBFEGRkZ8j/ViS9BXl6e9DM9dMPGxkb62RIFBQXIz8+X1qU6tKD1qR566Ac9AESr1atXY8GCBWjYsCF+/vlneSljTHH58mXMmTMHGzduRHBwsLzUfEacq9TmUNtD62t50I8R7RbJyclBYmIiKlasKC+xjDXkghhRB+Xhs88+w+LFi3H48GE0a9ZMLmGMKZYuXYpZs2Zh1KhRePnll+Wl5ilt/a3ffvsN33zzDbp06YLPP/9cXmoeI3JhWoeDg4P0f0sZkU9y+/ZtqQ5PT095iWX0tuHWcmyR1NRU5ObmwsfHR15imdKUi/T0dGRmZsLPz09eYhkjzlVryCfJyspCcnIyKlSoIC+xTGnKBfU9ExISpL6nljqMyIVR+aQ+I70PvPTSS5g8ebJcwhhT7Ny5E7Nnz5bOtT///FNeapn4+Hi4uLjAzc1NXmI+a3lP1NPmuLq6yj9ZRhoMDQ8Pl/+pjhJEQWgHtSTItA4tby7EiDrIli1bsHDhQjRq1IgHQxlToQyGrl+/HsePH5eXmo8aMoXWc1Wpw4g2R2sdhN4c6IOKh4eHvMQyRrRb1pIL+jBPHdolS5bgyJEjPBjKmAplMHTgwIGYNGmSvNQ8RpyrpnXobXOInv7WmjVrpP5W27Zt8e6778pLzWN0Lh5kPgkN9BBnZ2fp/5ayhvcBo3KRnZ0t7Q99cNPC2nKhtQ5Cg17Uz9D6QU5vLog15JNQHug8cXd3l5dYRtkP8l/vb9GgAE1Wolzo3Y4HlQtCddCXYvQ+MH36dB4MZUyFMhhKbaDWsSlqL2gQ0tHRUV5iPiPaLSPaHD11VK1aVf7JMtJgqPzzPdFL6BtcQt+sa0kQNYb0B6Z1tX47T28MFJQcrSPOhEbc586dyzNDGbsHZTB006ZNKOnLEjV0rtM5r+dcpTaH2h5aX0ujakS7RahjHhMTg+rVq8tLLGNEu6Xkk74l0/rtPH3gIlrzSWiWwnvvvYdFixbxzFDG7kEZDB0/fjxee+01eal5Slt/i744mT9/Prp37y7lxFJKu6U3F0TLBwRiVC5o1gbtg6+vr7zEMtbwnmjEsUWSkpKkbSlfvry8xDJKLrS+JxqZC6L12CI0SzYtLQ2VKlWSl1jGiP6BNRxbhD7MUz8jICBAXmIZJRd6zlVryQV9YRAVFSX1PbXUYUS7ZdSx9dNPP2HevHmYNm0aD4YypkIZDKU2g75E1oLaC/ryRMvkHSPfE2ldqkMLo/pbltD2iZgxxhhjjDHGGGOMMcb+Y3gwlDHGGGOMMcYYY4wxVibwYChjjDHGGGOMMcYYY6xM4MFQxhhjjDHGGGOMMcZYmcCDoYwxxhhjjDHGGGOMsTKBB0MZY4wxxhhjjDHGGGNlAg+GMsYYY4wxxhhjjDHGygQeDGWMMcYYY4wxxhhjjJUJPBjKGGOMMcYYY4wxxhgrE3gwlDHGGGOMMcYYY4wxVibwYChjjDHGGGOMMcYYY6xM4MFQxhhjjDHGGGOMMcZYmcCDoYwxxhhjjDHGGGOMsTJBGgzNy8u7b+Tn50MQBCnoZ7XXlBRKHQUFBarl5gStq7cOCqqDMWYetXOopDDiXFXq0Nvm6KmDQqlHrcycsJa2z6hcMMbMo+V8VdoLPeeqEW2OEXVQUB1ac0Gh5EKtzJwwzadauTlB207r680Fra+nDmU79B4XRtTxoHOh7IfWOozMBYVaublB9ejJBa2rZz8o9NZhmgs926HUo1ZmTij7oSefevfD6FxorcOIXBhVB2PMPHS+qZ1H5gSdaw+y3VLq0NNe6KlDK2kwlH5hSaEkSK3M3LCmOhhjJdN6rinnqZ5zVe/6FEbUQUHUlpsTyjbo2Q4j9sOIOigYY+bRer5Zw/murG/EdhiRCz3boXd9Cmuowxq2gcKa6lBbbm5Y037oqUNZ34g61MrMDSPqoCBqy80JZRuM2Be15eaGEdtAoScXFHq3w4j9UOpgjJXsQZ6vetenMGobtNShlTQYamtrW2LY2NhIoVZmblhTHYyxkmk915TzVM+5qnd9CiPqoCBqy80JZRv0bIcR+2FEHRSMMfOonT/mhDWc78r6RmwH0VqPUdtQGuqwhm2gsKY61JabG9a0H3rqsIZtoDCiDgqittycULbBiH1RW25uGLENFHpyQaF3O4zYD6UOxljJHuT5qnd9CqO2QUsdWklr2tvb3zfs7OzubBj9rPaakkKpgzZWrdycoHX11kFBdTDGzKN2DpUURpyrSh162xw9dVAo9aiVmRPW0vYZlQvGmHm0tBtKe6HnXDWizTGiDgqqg2itx6hcUKiVmxNGtL8UtL6eOpTtMCIXeut40LlQ9kNrHUbmgkKt3NygevTkgtbVkwsKpQ4jcqG1DgqlHrUyc8KIXOjdD6NzobUOI48LvXUwxsxD55vaeWRO0Ln2INstpQ497YWeOrTiFooxxhhjzEBKp5IxxhhjjDFmfcrkYKjyIUW5HwFj7J/o/OBvdFlxygAPtZ10jDDG7sb9CsYYY4wxxqxbmRzpcHR0hIODA3Jzc5GZmSkvZYwp6NzIysqCq6urvISxwoFQOibo/+np6bqe3sdYaZWRkSFd6kN9DcYYY4wxxpj1KZODoZ6envDw8EBqaipiYmLkpYwxBX2YT0hIQOXKleUljEEa4KlYsaI0GBoZGclfJjGmgvoVzs7OUj+DMcYYY4wxZn3K5GCov78/fHx8kJiYiOvXr8tLGWOKlJQUabCrbt268hLGIM2or1mzpjQoGhQUJH2hxBi7W0hICNzc3ODn5ycvYYwxxhhjjFmTMjkY6u3tjapVqyI7Oxvnz5+XlzLGCH1JEBwcLF0G3bJlS3kpY5Ce1hcQECC1n2fPnpVmDzPGitAXrKGhodKsep5ZzxhjjDHGmHUqs/cMrV27NsqVK4djx47xB3rGTNAH+RMnTsDd3R1du3aVlzJWeM9QmvHWsWNHXLp0SRr44UvlGSuyZ88exMXFoVGjRqhevbq8lDHGGGOMMWZNyuRgKGnQoAHq168vfaA/ePCgvJSxso1mg54+fRoXLlxA48aNpS8NGDNFl8gPGjRIuq/sgQMHEB4eLpcwVnbRE+Tj4+Oxfv166Yukhg0bwtfXVy5ljDHGGGOMWZMyOxhKMzbat28vXfa5YsUKREVFQRAEuZSxsunq1avYu3cvcnJy0KtXL+n8YMyUra0tOnXqhObNm+PIkSM4evSodI9Zxsqy3NxcbN26VZpV36pVK9SoUUM6VxhjjDHGGGPWp8z21OlJr23atEHPnj1x6NAhrFq1CmlpaTwgysosurRzy5Yt0mxpOjc6dOgglzB2N09PTzz++OPIy8vD5s2bcebMGWkwiLGyiL48ovss//DDDyhfvjy6d+/O9wtljDHGGGPMipXpaQv0pOwxY8agWrVqmDNnjjTDiQdEWVlETwVfvXo1NmzYID0gZ+TIkXB1dZVLGfunoUOHom/fvtKDlGh2PT1BmwZHGStL6EsAunfu3LlzpS+SnnrqKekWPA4ODvIrGGOMMcYYY9amzF/DVadOHbz88svSIOjUqVN5QJSVOfRhnmZGf//999LDxWjGH10GzVhJnnzySbRu3Vq6T+I333wj3T+U7p3IWFlAxzoNhC5YsAB//PEHxo8fj9GjR0uzQxljjDHGGGPWq8wPhipPzJ43b570VPnnn38eS5Yske4hylhpRwOhM2fOxCeffIJy5cph2rRp6N+/v1zK2P3RrPqXXnoJPXr0wMqVK6WfDx8+LJcyVnrl5+dL98x955138Pfff0tfIr3//vv80CTGGGOMMcb+A2wEkTn3eqOOP6EHAtjY2Eg/W4JmWtIsClpX60MFjKiDJCYmSut7eXlJ/6Y66QEg+/btw9dffy3NbqKHKz366KPSDDk/Pz/pdYyVFnRZ/KZNm/DLL7/g1KlTaNeunXR5Z8eOHeHh4SE9KZzOiYoVK8prWIbOKTpf9ZyrSh1a2xyitFv0BHStsrOzpadEV6lSRV5iGSPaLSNyYUQddBl8ZGQkqlatemdfKD/04C2aXbxmzRo4OTlhxIgRUvtJD5Hhy4VZaUP3yKXBf7pfblZWFoYNG4aJEydK7SWdWzExMdIXrW5ubvIaltHbbhnR5hhRB1m+fLk0c5a+dP7qq6/kpeYrTX3PpKQk6f/e3t7S/y1lRBtuDccWSU5Olt5PtH55YGQutNZhVC7oajTqc2mdUW5ELqzh2CKZmZm4ffs2KlWqJC+xjLIfev4m1nBsEboXdWxsrNTf0sKI49OoY2vhwoWYP3++NOFi8uTJcgljTLFz507Mnj1baj/p85QW1F7QLe6o/6mFNfQP9NSh9fOm3fsiZefvhzaOaG0MlfWJ3jq0rq+gN1tKMH1oJ1Qf/UyDHS1atJA6aMePH5cOTPr/rVu3pM4KvY4uI6YnbOvdBsb+LXR+0+BnaGgojh07Js1i+u6776R7hNK5MHz4cOnyzpYtW0oDoYS+IKFBLq0NqkLPeWLaZmhlRJtB7QHlScmNpYxqt/QyIp/0BkVtIeVC2R9606QP93TLERr8DAsLkwba9+zZIw2S0oO56Hii19EbFbWfjP0X0DlDH0jpy5DLly9LfYJFixZh6dKlOH/+PGrWrCnNCB0yZMhdX5bQOUJ9Ba0dM71thum5rrcOve3WuXPnpPed6tWro3fv3vJS85WmXND7CNVBD/DUwnRftLKGfBLqX1DfxMXFRV5imdKUC3p/pHZG65cnRrCGfBLuexah84MGyUtD3/P06dPSbehoohE9oJUxdrcbN25IV9bR+BQ9t0OL9PT0Mt331DqIK80MpQ+490MbpjwYQ+tAIP0OathpXa0fhml9qocOFK07TOiDjfIBXg09FZYGQanhvnLlijSQRIOlPj4+0hs0HWha/8iM/dvonKHOJX1Ap1nR9IGMjuXGjRujW7duaNKkifQtvPLlAKEGlWZuaH0ishHnKrU51PbQ+pZ+O0SMaLcIzfyiAT16sJQW1pALYkQd9EElIiJCyoXavtBsYnqgErWd9KZOM+Tod9LT5ynogy+tx+0n+y+gY5fOX2ozabYS3exqg+EAAHVnSURBVEqH3v9p0J8+0NGMevoSgNpTU3SbHfoAq+UDvRHtljX1t2jgmK64eeihh6RbsljCyFyQB5lPQscP1VH8eDGX3jbcWo4tQucTvZ/4+/vLSyxTmnJBnzGoz6X1ShwjzlVryCehwT+aQa31SpzSlAvqt1MfivpbWuowIhdG5ZNmhtLt6OhKywYNGsgljDEFXXV34cIFaVIeTVbSIjo6WvpSTcsXKNbynqinzdHSXhNpMFT++Z7oJdRpITTarDVBlGRaV+uINSWIgnZWT8eDBjYowffrkNIACM2ko6fDXrt2TfqZ1qMP+1RGOdGadEL5IFrroN9PQfnU8vdQmP5dtTBiO/TmglAdenNBxyfVQx92tTAiF0odRh5b9H8a6KTBKLoMi+7zSB/gqUNCM5vUfhd1zKlDqvXyHCWXVLfWc5WOTcoFra8lH7Su3naL0PlOHVKa2aSFEe2Wkk9qt7R2SGnmCdGaT0L5pJmflIt7bQdtJ7WTNHMuKChIesAMDQ7R8UTHFdVhxDnyoOsgNEhG55bW49Ma9sOIOgidJ9R2aj226Lh50PtRvA4KOs7psiPqL9AHdGoz6Wnx1Ibe6xY61KmlezBrHQzV225RLq2lv0X3YKfLI7t3745Zs2bJS82ntFt6c0G0vrcblQv6Ip72Qeul4dbwnmjEsUXo/YC2Reul4UoutL4nGpkLovXYIjQYSl9Wa7003Ij+gTUcW4QGQ+lLA61fPiu50HOuWksuaDCU+k7U39JShxHtllHH1k8//YRdu3ZJf1utqI+hdVY9ob8L0fr3IFSH3vWJnjoIHRvU5mitR+t2KK+n9ZVc3KsO5Xfci5G5oPPMknPV9HfS8U3U1i9pHxQl7Ys5OaKf6XV0e8aPP/5YXmoZai+o36l1MFRvu6W8J9K6VIcWRvW3LMGDoWagE406sTTirnygp5xQHVpyQevSfhCt+0H5pKDfr/UNilAHjLaFBsq0oHVpf+hvYklDZIqOC/Ig80moE0Z/a63387LWXNC20Iw82i/qbNNMjJK2jwdDi/BgaBHKZ0mDocXRDGNqO6kNpUFSOsf0tFtGnGdKHVrPM0Lr0/15aGBDy9+V1i9+rlrKiPcBI/JJ6H2V3ke0DApYay6oLtoe6lxSu0kf0OnDWEnHDA+GFuHB0CI8GFqEB0OL8GBoER4MLUJ9pdIyGLp//37pGNeaC9oG6m9Re6H1b0K5oN+vdT9oG5RjS8s2ENoG2hbaBq25INTfos90Wv6uenKhbLOSi/vVQb/nfpRc6MknofaC+lqmVzeWRNkPJRdELZcl7QMxJ5/K7ytOqd/02KIrMrXeSoIHQ7XhwVANrOGN0oh8ErpsmnKq9VKl0pQLGqihjpjWS5WM6DToHbAyIp+EB0OL8GBoEcqnpYOhppRc6DlXjciF3mOL0DbQFQM0W1DLB2FaX2+7ZcSxpeRCTz4J3Vub3ke03ANQyQXRO2D1oI8twoOhRXgwtAgPhhbhwdAiPBhahAdDi5SmwVA9+SS0HdTfolxo2Rcj2i1rOLYUN2/e/MftzcxlRC6s5dgi9NBrGs+hK3gsZcS5quTiQR9bhAdDtdF+JjLGGGOMMcYYY4wxxth/CA+GMsYYY4wxxhhjjDHGygQeDGWMMcYYY4wxxhhjjJUJPBjKGGOMMcYYY4wxxhgrE3gwlDHGGGOMMcYYY4wxVibwYChjjDHGGGOMMcYYY6xM4MFQxhhjjDHGGGOMMcZYmcCDoYwxxhhjjDHGGGOMsTKBB0MZY4wxxhhjjDHGGGNlAg+GMsYYY4wxxhhjjDHGygS790WCIMj/vLeCggLp/7a22sdP9dZB6yvbqmc7MjIypPWdnZ3lJZbJz8+X/m9jYyOFpWgflFzY2dlJ/7cU1UFBv19PLrKysqR6XF1d5SWWUfZDay6I3uNCyQXRk4vs7Gzk5ubC3d1dXmIZa8mF3mOL5OTkSMeGh4eHvMQyyt/EiFxorcM0F3qOi7y8PKSnp8PT01NeYhnaBr3Hp+l+PKhji1AdKSkpUi60/k2U40LPMa7UoTcXeuogycnJ0jmi5VxT9oPoOS6MyoWeY4vQcUHvI/b29vISy+g9Pk2Piwd5bJHU1FQ4OTnB0dFRXmI++v3WkAsjji1y9uxZHD16FIGBgXj44YflpebTmwtiVD6Jnu3IzMyUcuni4iIvsYyRfc8HeWwR6l/Q/ri5uclLLGO6H1qPT2s4tgj1PanP9SD7ntZwbBHqg9N5Uq5cOXmJZUyPT625MCKfRuSC+p5paWnw8vKSl1iGtoFyQbRuhzUcW4T2g/pblAstdZgeF1pzYVqH1v0wIp+EckHtxYPue5IHeWwR6nvSe6qDg4O8xHy0D8p2PMjxGNM69OSC+p7U73zQfU/yII4trbmzEX+hQG/CJbGGBCl16D1YEhMTpYNez+AG0bMd1pBPQg0qvVH5+PjISyxTmnJBnQ7qhPn7+8tLLKNshxG5eJD5JPSFAb3BVKxYUV5imdKUC/qgkpCQgMqVK8tLLGNELqwln9Q5j4qKQpUqVTTlVNkPovd8f9C5oG2IiIhAhQoVNHfCSksuCB0X3t7emr5kNDIX5EHmk8TExEgfVIwY6NHCmnLxyy+/YMGCBejatSu+/PJLean5SlMukpKSpPX1DG4QPdthDfkk1L+ggS9fX195iWVKUy7oy1aK8uXLy0sso2yHEbl4kPkk1AenzyXc9yyclBAXFyf1t7QwIhfWkk/6nEr9LcrFgxoAtJZcEMoFfVbVOuhlDbkwog4SHR0tjedo/ZJR77mq7Ad5kPkksbGxUr+zrPY9tZwPRNuWMsYYY4wxxhhjjDHG2H+MNDOURmDvh8ppRhChS+C0jFrTaLMyVV7LLBpC61M99Pu1XopH4uPjpRFrrbMh6dtsQt9OaRn5NjKfenNBMxVoW7TOhqR1aX+sIRdE67FFaKYCzYjU+o20kgvKg9bp9tZwbBGapXD79m3N30gr56qeXFjDsUXocj76tq1atWryEssY0W5Zw7FFqI7w8HApF1q2w4h2y4hjy4hc0DbcunVLmjGs5dtIJRfkQb4nGnFskbCwMPj5+Wn6dt70XNWaCyOOLaNyERkZKV3mqeWyVyPaLSOPLb25WLp0KebPn4+HHnoIs2bNkpeaTzlXtebCiGPLiPOM0BUGVAf3PSH1L2jmm9bZkMq5ag25IHr6nnRpI12ZVKlSJXmJZZRc6DlXreHYItQHp6v3qlatKi+xjBHtljUcW4SuSqJZb9Tf0lKHEe2WNRxbhLaD+luUCy37YkS7ZQ3HliI0NFSaVU+3JrK0HiPaLWs5tgh9JqH3VC23+zPiXLWWY4vQFVrU79Ryizsjc0EexLGlZZuJdAbRyiWFQq3M3NC7PkVpqUOhVmZuKNTKzA0j1idqZeaGQq3M3NC7vlGhdzsUamXmhkKtzJLQU4cptXJzQqFWZm4o1MosCb116F2fQm8dCrUyS0JPHabUys0JhVqZJWENdehdn0JvHQq1MktCTx2m1MrNCVNq5eaG3vWNCIVambmhd30KhVqZuaFQKzMnFGpl5oQptXJzQ+/6FAq1MnPDiPWJWpm5oVArMzeMWF+hVm5OKNTKzA2FWtm/GUZsg946FGplloSeOkyplZsTCrUyc0OhVmZJ6K1D7/oUpaUOhVqZOWFKrdycUKiVmRuEJjLRF40hISGqrykpiNpyS8Ja6tAbCrUyc8KUWrk5YUqt/N8KhVqZuaF3fQqtdWil/WsJxhhjjDHGGGOMMfb/bteuXVi2bBlOnz4tXcnHGNOOB0MZY4wxxhhjjDHGrBBdyky3dNuwYQMuXLiAbdu24fr163IpY0wLHgxljDHGGGOMMcYYs0J0H9kDBw5IA6H0PIOdO3fixIkTPDuUMR14MJQxxhhjjDHGGGPMytCsUHq42E8//SQ9cI3+ffPmTezfvx/BwcHyqxhjluLBUMYYY4wxxhhjjDErQzNBL1++jM2bN0szRAk9NGbv3r3SbFFlGWPMMjwYyhhjjDHGGGOMMWZloqOj8euvvyI3N1eaFUro/zdu3MCRI0ekJ8szxizHg6GMMcYYY4wxxhhjVoQGQGnQ888//7wzEKqwtbXFwYMHsW7dOnkJY8wSPBjKGGOMMcYYY4wxZkXo3qA02EmXyhdXUFCA8PBwHD58GJcuXZKXMsbMxYOhjDHGGGOMMcYYY1YiPz8fQUFBWLt2rTTwqYZec+7cOfz999/yEsaYuXgwlDHGGGOMMcYYY8xKKE+Mp9mfCnpwEqFL5OlnunQ+MjIS+/btw5UrV6Qyxph5eDCUMcYYY4wxxhhjzArQTNCzZ89i27ZtyMvLkwY+Kfz9/eHg4ICAgAB4e3tLy3JycqSBUJ4dyphleDCUMcYYY4wxxhhjzApERETg2LFj0r1AXVxc0KRJEzz11FNo3749XF1d8cgjj2DixIno1asXKlWqhLi4OGzatEl6svy9LqlnjN2NB0MZY4wxxhhjjDHGHjC69P348eM4c+YMatWqhSFDhuCFF17ABx98gFatWkmDo127dsX06dPx2muv4fHHH0fHjh2RmZmJ1atXSzNJGWMlsxFPNoFOnJIoJ5Wdnd2de1VYgk5qusEvsbe3l/5vKfqWg4J+P22HVklJSdL65cqVk5dYpjTlIiUlRdoWmmavBa1L+0P3LaHQwhrySdLT06U3ET8/P3mJZUpTLigPqampKF++vLzEMtaQC2JEHXTpSUJCgvStqxZGnKvWkk/ajujoaCkXWrajNOWCtiEqKurO5UqWMuJctZZ8Ejou6H3EyclJXmK+0pYLmp3h5uYmzdzQQjk+tebCWvJJfvvtNyxYsED60Pb555/LS82n91y1plzcvn1bqsPT01NeYhkj2i1rOLYI9S9yc3Ph4+MjL7GMEeeqNRxbhPueRehp2cnJyahQoYK8xDJGnKvWkE9C5we9l1SuXFleYpnSlAvaDupvUd9Ty75YSy4sqYPOhcWLF+PIkSPSIOeAAQNQtWpVaf05c+ZI76tffPEFBg8eDEdHR2RkZEgzSDdv3izl6ssvv4S7u7tcWxFan7aDPMj3RCPySWJiYqT3VGdnZ3mJ+UpbLuLj46VBcup/amEN/QM9+aR910IaDL1165b8z3ujDSNa/0iUIAqitw5KEIVW1MDQ+lo+tBElF3q2w6h86s0FDfTQtmhpRIgR22ENxxahjgc1BFpPJiNz8SDzSSgPdGxo/TBvRC6MzKeeXFDDTm2G1jcXa8uF3jqow0W50FJHacoFbQN9iKVzRMvxpewH0dv26d0PvXUQygW9j2jpDCrbQEpDLugcoQFyLYPkRG+7pewHeZD5JPQE3J9//hlt2rTBO++8Iy81X2nKRXZ2tvT/kvqe9LuoP0LHEb330HsxvSdTLpTt0ErJxYOug/aH6tF6jljLfhhRB/UxKGhAQwtrzQX9n845+lBM+0bvD9S/vt9+ct+zCB0TNEiuNqBlDmvLhd7tSEtLk3KhpQ5ryYUldcTGxkpfoNFAn+mXA7T+smXL8O233+LNN99Ev3797npPoXOIJn3ReUeTvor3yZRtIA/yPdGIOgi9T1KbomfwjZSGXFB7QXkoq33PatWqyT9ZRhoMlX++J3oJdcwIJVjLH4oSTCcorav1j6R0GCjBWg96Qt+0UeOg9RtpygXlhLZByx/bWvJJEhMTpZzS7CYtSlMuaJYsNaoVK1aUl1iGtoG2hY4tLQMChDqB5EHmk9DABr2Z0reQWii50HOuWsOxRejDKH3zWL16dXmJZYxot6zh2CKUz7CwMCkXWrZDyYWec9WIXOg9tghtQ2hoKKpUqaLpQyytr7fdMuLYUnKhJ5+EvlSl9xEtXyYpuSBaBwSs5dgi9FRX+hCi5UOsEe2WtRxbZMmSJZg/fz66d++OWbNmyUvNp7RbenNB9B5benNBszZoH3x9feUld6O/PW0vvecEBQVh586d0mWSly9flu4dR+/LVE6vY8za0bni4eEhvUfWr19f+kKEZojTfQ+V997i5zT1welKHHowjBZKG27Ee6KyjZYyog0n9OUJzfCj/paWOoxot4x4TzSiv0XbQf0tyoWWfVHeByiPevsHD/LYIrT+7NmzpaCZocOHD7eo32VELqzl2CL0lH0az9HyBYoR56qSiwd9bBFqL6jfSe2upYzIhbUcW5biwVAN9DZm1pJPwoOhRXgwtAgPhhbhwdAilE8eDC1E28CDoUV4MLQID4YW4cHQIiUNhlIfhB5+sXz5cumhGbTddKsaGkiidoaOJ63tFWP/Njpn6Jimgfzg4GBp0IKO4bZt2+KJJ57Aww8//I/blfFgaBEeDC1C28GDoYVo/blz52LmzJn49NNP8eijj1o0EGhELqzl2CI8GFqEB0O14cFQDfQ2ZtaST8KDoUV4MLQID4YW4cHQIpRPHgwtRNvAg6FFeDC0CA+GFuHB0CL3GwzdsWMHfvrpJ2kQlMppBl23bt3QoEED6fJi2n89xyRj/zZqy+j8o3OY7hF7/fp17N69G7t27ZL62z179pSehN28efM7t+riwdAiPBhahLaDB0ML0frK/UI/+ugjaTDUkr6GEbmwlmOL8GBoER4M1YYHQzXQ25hZSz4JD4YW4cHQIjwYWoQHQ4tQPnkwtBBtAw+GFuHB0CI8GFqEB0OLqA2G0rbRTFDKE/U/aBCUBoloEJTOJy3HEGPWhs5DOr7pPog0eLFq1SrpQS806EmzRPv27SvNgubB0CI8GFqEtoMHQwvR+nS/0M8++0x6svzIkSMtGvwyIhfWcmwRHgwtwoOh2mg7ExljjDHGGGOa0BewS5culWb50AMwnn32WTz33HPSwHGNGjV4IJSVGvTBlo7nmjVrokuXLpg0aRKef/556cM3PWBt5cqV0kApY6xkNHhIA040aESDWIwx7XgwlDHGGGOMsX8JPSV469at0gwfLy8vPPPMM9KDMOrWratpdjVj/xU0iEP3wX3sscek455mEP3999/S+UBPQ2aM3Z8yk5Jm4lEwxrTjwVDGGGOMMcb+BTTgc/r0aWlGHF1SNnnyZPTr10/zrZsY+y+i20AMGTIEY8eOlW6HsWLFCpw8eVIuZYzdC8205pmhjBmDB0MZY4wxxhj7F9A9zuip8ZcvX5YuFR4wYICme3wx9l9H91Z+5JFHpCfL03nx119/SferZ4zdm3KZPM0K5cFQxvThwVDGGGOMMcb+n9FDUc6dOyc9Vbtdu3bSZcLKk7QZK4vowUmDBw9G27ZtcfToURw5ckQuYYypoZmhhC+TZ0w/HgxljDHGGGPs/9mNGzewb98+ZGVl4fHHH9f8xFXGSpMmTZpIT5SnB4nt2LFDun0EY0wdzwxlzDg8GMoYY4wxxtj/s6CgIGlmaIMGDaTL4xljherUqYM2bdrg7NmzuHjxIg/yMHYPygOU6J6hPDOUMX14MJQxxhhjjLH/RzS4ExISgsTERLRv316a2cMYK1S9enXp1hGpqanS7Gke5GFMnfIAJZ4Zyph+PBjKGGOMMcbY/6PY2FhERETA3d1duiyYMVbE1dVVGhCtWLEiTp06xYOhjN2Dvb09D4YyZhAeDGWMMcYYY+z/UUJCghReXl6oVauWvJQxRmi2m6enJypXrizdToIHeRhTpzxAiS+TZ0w/u/dFdDLRm869gk4005NN7TUlhfLtBQV9m2FaZm4U/wakeLm5kZ6eLm0D3ahbrbykoHyZUnvN/cLIfCqKl5sbmZmZUl0uLi6q5SWF3u0wMhcUWo8tCnqgQW5urvTttFp5SaE3FxRKLvScI3rzSUFPvKV80AwWtfKSwqhc0P8VxctLCqNyQccEtRkeHh6q5SWFteVCzzlCDzVISUmRckHUXnO/MDIXFFrr0NuGU9B2JCcnw83NTeqYqr3mfmG6Hw/yPdGIOijouKCnYtO9rNTKSwraDoVaeUlhTbmgyzzpwTgUauX3C9oGo3JBofXYUvqFiuLl5gbd/+/YsWPSjK/evXurvuZeYUQuKIzKp6J4ublB90Gky39pwGfs2LFSH5QxViQpKUmaFUrnyvPPP2/xe6sR56reOmh9vW0OBfU909LS/tN9Twoj+ltUB/W3KBda3tOsJRdG1XHt2jVs3bpVusKgadOmFh0jyjZQlJa+J72X0mxZtfL7BW0DhULtNSWFNeWC+p6Uh/9y31NPLpQvCSxlI64s5OTkyP+8NyVBWn+RsqFEbx2UYAqt6H5N9IGNOqRaKLnQsx3WkE9Cby70JuPj4yMvsUxpygV1Omhw2N/fX15iGWU7jMjFg8wnycjIkN5g6HIlLUpTLmhgmGbz0GwFLYzIhbXkkwZDo6KiUKVKFU05VfaD6D3fH3QuaBvoktcKFSpoeiJ0acoFoePC29tbGhC1lJG5IA8ynyQmJkb6IokGyrXQ225ZUy5++eUXLFiwAF27dsWXX34pLzVfacrFunXrMG/ePAQEBEh50bo9jJVWNCN01qxZWLNmjTTgY+kXBkacq0a8J+pttwh9No+Li5P6W1oYkQtrySd9TqX+FuVCeXiQJZT9IA/yfcCIXNA27NixA1OnTsW4ceMwYcIEVK1aVS4tmbXkwog6SHR0tDSeQ5O6tChNfQy6FQ/1O8tq39PR0VH+yTLSltIGlxTKRlGolZsTRq2vpw4Ko7ZDrcycUNbXUweFNdRh5DZYy3aolZkTyvpG1KFWZk4YsQ1KPOjt0Ls+hRHbQWFuO6kWRmyDkXWolVkSenJBYdR+GFGHWpklURpyQaF3fYoHnQsKI9a3pu1QKzM39NahrG/EdhCt9RixHXrXpzCiDkKdfNN/M8aKKOcYfShXzhNLQjlP9ZyretenMGI7KIjacnPCiG0wsg61MktCTy4ojNoPI+pQK7MkaECY6jEdeLIkjNqPB10HhZb9V8KobdBbh7Vth1qZuWHUNmipQytpZqj88z3RS2i6PqEZMLSBlqI3NppVROtqmUVD6JshCtphmgasFX3TRg2J1tmQlAvKCW2DluRbSz4JzZKlnGqdDVmackEzIWlGpNbZkLQNtC10bGn55pIos7QfZD4JXRZOlytZ8m2jKSUXes5Vazi2CN0ugGZ60WWeWhjRblnDsUUon2FhYVIutGyHkgs956oRudB7bBHahtDQUGmmgpZvI2l9ve2WEceWkgs9+SS3bt2S3ke0fDuv5IJo/WbXWo4tEhkZiXLlykmzQy1lRLtlLccWWbJkCebPn4/u3btLM74spbRbenNB9B5benPx999/Y/bs2QgMDJRmhjLG7hYcHCydIytXrkR4eLjFM0OVNtyI90St/QOj+p50VRJdcUH9LS11GNFuGfGeaER/i7aD+luUCy37YsR7ojUcW4TW37lzJyZNmoRRo0bhmWeekd5TzGVELqzl2CLUTtB4Dt3izlJGnKtKLh70sUWovaB+p3IrM0sYkQtrObYspe1MZIwxxhhjjDHGGGP/CmWgigafaBCLMaYdD4YyxhhjjDHGGGOMWTGaMUcDojQYSsEY044HQxljjDHGGGOMMcasmHKJPV1OzDNDGdOHB0MZY4wxxhhjjDHGrBjdY1OZGcqDoYzpw4OhjDHGGGOMMcYYY1ZMGQylmaF8mTxj+vBgKGOMMcYYY4wxxpgVUy6T55mhjOnHg6GMMcYYY4wxxhhjVowvk2fMODwYyhhjjDHGGGOMMWbFaDCU0GAoXybPmD48GMoYY4wxxhhjjDFmxUzvGcozQxnThwdDGWOMMcYYY4wxxqwYXybPmHF4MJQxxhhjjDHGGGPMipk+QIkvk2dMHx4MZYwxxhhjjDHGGLNSNCOUL5NnzDg8GMoYY4wxxhhjjDFmxXhmKGPGsRFEubm58j/vjb59IMoTzCxF31zQCUvfZCgnsaWMqIMkJiZK63t5eclLLEPbQNtCddC2aGEN+STJycnStvj4+MhLLFOacpGWlobMzEz4+/vLSyxjRC6sIZ8kIyMDKSkpqFixorzEMsrfpDTkIjs7G/Hx8ahSpYq8xDJGHJ9GHlt6cpGXl4fIyEhUrVpV075YWy701EHrh4eHS+eIg4ODvNR8RuTCWvJJ6Lig9xFnZ2d5iWXoXC0tuYiJiYG7uzvc3NzkJZaxhvdEI+ogy5cvx4IFC9C1a1d89dVX8lLzKX8TPe2WNRxbZO3atZg7dy4CAwPxyy+/yEsZY4rg4GDMnj0bK1euxI0bN+Dk5CSXmEc5V/W04Uqbo6cOI/qeOTk5iI2NlfpbWhjRbhmRC6PySf0tyoWWnBqRC6WOB50LQrkYNGgQmjRpgmnTpqFly5ZyScmMzIWeOozKRVRUlDSe4+LiIi+xjDX1t/TmgtoLV1dXqf+pxX+976nlsxiRfgv94pJCoVZmbuhdn0KhVmZJ6K3DiPWJWpm5oXd9o0LvdijUyswNvesbEQq1MktCbx0KtbJ/M4zYBr11KNTKLAm9dSjUyswJhVqZJUGUDojWIGrLzQ0j1idqZZaENdShd30KhVqZuaF3fQo9ddAxqWd9JfTWoVAr+zdDoVZmbuhdn0KhVmZumFIrNyf0rGvksUXUyiwJxljJ1M4dc0Pv+hR661ColVkSeutQqJWZEwq1MkvCGurQuz6FNdVBg0X0/qalT0/UllsSCrUyc0KhVmZJ6K1DoVZmbuhdn8KIOij01KNQKzM39K5PoVAru19oJc0MVUaC74dmBBEaLdYyak0bSb+H1tU64qyc9HrqIAkJCdL6WmeG0n7Q/mjNBVHyaW9vL/3fUkbkk9y+fVuqx9fXV15imdKUi9TUVGlmaPny5eUlllFyQd9kaP1GxKjzjGjNJ6GZoXRsVK5cWV5iGeVc1ZMLazi2CM0MjYuL0/ztvBHtljUcW4TqoG+kq1Wrpmk7jDhXreXYovXDwsJQqVIlzTNDrSkXeuogERER0vuIlpmhSi6I1nNVycWDzieJjo6Gh4eH5pmh1vCeaFQuli1bhq+//hrdunXDzJkz5aXms4b3RCUXevJJ1qxZgzlz5vDMUMbuwXRmaGhoqMUzQ41ot5T3xPu1OdfXf4a/j8cgIkVecBcbCPZuqNigK/o83AH1K3vAVUOzQTND6SqDgIAAeYlljGi3jOgf3J3PGJzfvhM7jybDqcMjmNSzmvyq+6M6qL8VEJCJbfNX46hDc/Ts3QFd6hUg5MQB7NpyAwW9nsSz7T3EVwdj3ed/4ES5Dnikbzu0remJ/Mx43Lp2Axdv2aHTgJbwLqzWIv/WsWUOysWQIUNQr149vPzyy2jTpo1cUjLlPVHPcWEtxxahq5K8vb01zQxVckFKQ3+L2gvqd2qdGfpf73tq/Z3Sb6GV7xe0MbRjys5pCSProP+rlZsberdDWV/rdpjmwog61MrNDb11KOuXhlwo9aiVmRPK+lr3g0LZjwddh95cKNtgRB1a90PZBz11UNC65rST9wplO/Rug946jMqFnjqUbaBQKzcnlPWtIRdEax20nrIdauXmhBF1KOvryQUF56Io9NRhuh9G1KFWbk4YUQcFra/n2LCG/VDq0LoPSlAdjDHzqJ1DJYVyrus535X173e+Rx/+FX8s+h2bDp3B5VvhCL8ToQgNOY8Tm3/Hj999jTnfbMCJkARk2arXc7+g30+0tjtGtFtG1HF3Pm8j9OROrFy+DuvOxP3jtfcKWrcwF5E4tvJXLF19FOcj0sSyVMQEHcLGX1Zhw5UM8d/0O8Jx+LelWLzuFK5E0zI7pIVfwJH1y/Hb1iBkFKvb3FD2g0Kt3Jy4OxfqrzEniPJ/S7dH+Zvq2Q+lDj37YUQdFHrrUHKhtQ5lfQq1cnPCiDooaH2t+6H8PYyqQ63cnNBTh1aFrQtjjDHGGGOMMcZKEIi2Ax/DpLfewlsm8eYbMzDtqRFo53wGmxd9ixX7ruBmivZLOEsXT1Rt3AF9BvVAj4ZarkisiKZ9BmJIr2aoV0lt9ht94VQJLR4ZgmE9GqGWv6u0NCUiCFeO7cGluJKvhP2voMEfmolHwRjTjgdDGWOMMcYYY4wxs3iiSs0GaN6uDdrcifZo33kAhr/0Kb6c1BH1yl3A4fNhCIoselCxkJeNjLgQXDi6D/v27sGePftw6MQlhMSmIsN0rE7IR35GHIJOHcbBfXuxd88e7DtwBKeDIxCblofCIbBc5GRG4dLefTh+MxFxYUE4f/wQ9ov17j98EhdvRCMlp/jTxguQczsCIReP48iBveLv34v9h47jbFAEEnPkl0iSEXbhNM5euoGQsHDcunQSh/aJ2yv+rn2Hz+BKbBZy8k0G4vLSkRQZjHNHD2CfuK2FrzuJy1GpyMxTtsEb1Zs/hEGj+qNfU3pYbT4K8uJwdf8+nLgei6iwa7hy6ggOUF72HcSRs8EIvW36kOfKaD34UYx5pDUaVbnXYGhVtBsxBmP7t0DdSo5IjgjG9ctiPQnpSI+7jKP7D+LYrXREXjqMowfP4UZsCrIKVy4k5CAnLRznpJymITPXOgcblcFQuqSYMaYdD4YyxhhjjDHGGGMGqNysNSq7eyAnNQ2ZWYXDbQU5GUi+dRoH/pqJV54YhdFjx2LMqFEY/+ybmPXbbpwKSykcEBXykZcRjdCjq/Du8+MxfrT4ujGjMGr043jh4x+x4vhNxGfRIF0qkiI34aNevfD43HX4/ZuP8frkpzFu1KMY/cQkvDnrN+y+FI2UwlsBSnKTb+H81p/w1RvP4Ynxo8U6R2HMuIl48f2FWH8mErdzxF8vvfI8Vr7zAqa9PhNf/bAQ338wFU+NFV//6AgMHPEs3v79JK4nZiOXxuKEbKSGncC2xZ/hpQljMXrUGIyVtvcp/G+ZuF/haciQtuEmDv7yGaaMewWv/nFF/HcmstL34Mv+ffDkl39i6Xcz8fH0Z/HEmJEYPlzcrikf4ZvtwUi6Mx56CosmP45RL/2Mv09Ey8tM0cYcx/cTRmHEK79g87kQXN26BL98twirT0Ug7Mh3mPbUc3h1fQR2z30CE4ZOxddbL+CW6SBwbgJiLyzF1N6DMW3VTUSmmiTPitBgKA2E8sxQxvThwVDGGGOMMcYYY0wnoSAPaZfOIjQjEw7uTnBzogeSFCDt2h6sn/UMBr61GjdqPI03Zi3Ags8mo6v3Vax7dxo+mf079kcXAPlxiL60Dp+/MB9rMpph6CtfYea8zzGjXwDyd83E17O+wfKTRSN4Ql4eIhe/jFe/PQ37rs/g9Y/ewoR2Hrj51xy888oXWHlLnnIq5OHar1Pw7Fvz8MeNQHR47D188cVrmNjTFzFr5+KVYc/gx6B8eeCyUNL+37FsySpsy26JJ9/7Ep+9NBhN7c5h3cvjMO9IFMIyxBdlXcS6b77GV1/vR0K94Zj++deY99nLeKJGDPZ/PBIf/HYeF2Puf4l69O/v4v3lp5DWdCxe+eBdTBvWBB7Ba/Hbh2/h+2CtA34eqPnQGAx6fAx6N6yAyk3H48NZM/FBrwCMGDEAfn6XcOx8OK6FFdWfnxSPpIP7cMihFUb0rQZvD8sfkPlv4JmhjBmDB0MZY4wxxhhjjDGthAIUZCYh/vBCvPTpDoSE10WX1rVQt4YLkBuM88e34a+tTmg34y/s/+ttPDvsEQwc9wq+WfUHPnuiEdLO7MP6bWeQmxiNlDMHcdylEWYsWoLXnh2BEUPG4oXZM/HymD4ISI7A5aAgmE5ozE6tgonfL8Nnb07BM49Pwv/mfoYPX3kYLsHH8MPC3cguyAKil+PTeScRXv0FfDr3c8x+60mMGT0Zr301D8sXTUCD5DP45Mu1SMrIlmeH0hOm66HfuDcw56cvMO3xURj3wjv4Y/kMNHSKxqEjt5B4W6w36AQuhibCsfs4sa5P8MLYQRg8+nm8s2opnq3thcgr5xCTmIj7DYfm5LTHSzMX4PMPX8JTj0/Eq++/g49ffwQeKbew+1Ck/CpLOcA3sAGaNm+E+pXKwSOgJbr364lOtZ3h2HUw+vv5IfbMBVy/ESa/Ph+JCbHYs/8c7FoMRu8qjrDSsVDpQTN8z1DG9OPBUMYYY4wxxhhjzCxHseStJ9CvcWM0VqJJUzRt3Qk9nvwU6xIbYvgXH+Lx3i1Qy9kGCL+J8MvncTo/FxWdknHm0EEc2L0P+/YcxOGjkYjPy0ZeRDDCz1/BVSdH2Pu4wzk9BH8tWIzDVxKQWmAPR49G6P/KfCxcNgvvD6mDO+N0tvZAn+cxsk0g6vg4w8nJGS4+zdC4WQt0C4xH4r5TOJ6bg7j9m3HitgM6DeiOVo1rwNvFqfC1XnVRs0lfjOqRhfSNa7DndjZS5AmHQr1GqNesEdr4usLZSXy9hxc869VHI1sg4looMtIzAU8PuLllI/LsAaxfuQOX4/IgvhBuPl0wbeVerPl0FLrV8b7/oEOHbuhUNwC1PGn7neBSviIqBASgcmYmrgXdkF9kORt6kr+9GLY24s/2cHBwgIOd+LNTW3Tq7gO/sBMIvnoNN2h/syMRd+Mgdpx2QrNH+qKKkwNoTq814gcoMWYMHgxljDHGGGOMMcbM4oearbqi99DhGD50AB5uXxsVsiIQfCsZ5fq+jQU/fIZXRndA4wpucLQB0pNiEB8ditiYG9j/8//w2muv4JU78Ra+3XAKlyNjkZQYhfDcKvBr/AjGdXRG2Jav8e7k0Rg+aBjGP/c5ft59CylOXqjg7Sw9LojY2NqiSuPmKF/OBY7KJ3sbJ/j6+6FGgAOybl9EUGQB0qJvIiO/OmrX8YOvl8Od9WHjCFd3X9St6Q2kXEVYQh5ylEvlXd3g5OIK5zv1ims5OsJJ/DE3J6fwMu2KHfFQl7ZoW+4advz4Np4fOwSDBo/HxDd+xd54Z3j5esDN2b7o96kp5w1XRwc4KC+yo0FM8d9CAXKy73qykzFsXNG8c2dU8ryFS8HXcTEMyIkLQ9iZ07ggNMGg/tXh4mh3/21+gPgyecaMwYOhjDHGGGOMlYA+fGZnZ8v/Yndc24CfvnwN7y3chIMRhYsyYkNw6Jun8NRTT+GdtdcRmazyIJKcBMRdWIG3n52Et9eHIy7N5ELa3FREXdqDld+8i9cmF9ZD8ey0dzB75RFciU5HnumkqLRIxOyZh2eefR7fHk1H4l2PiBYJeciMv4Gzm37GZ29MuVPfU89Mwox3ZmPJ5jO4Fm/65Gq66jkPCTs/wdsvv43F+4IQnikXmCoQ14ndjlmvTMXby4/hXFQ20q9sxup5LxX9jvvFG7Mwe7M8800oEBMXjRPrv8est1/AlImFr3nm+Wl4/YtF+Pt4ODJ57MNKVEbTbgMw8mnxb/T0s3h+2mt49c2X8HTTfESf3oaTKW5wc3KEi33hcFpebg5yxKbDu3Iz9H92Gqa9dHe8+eFMzPn2C7z2VG80dPdAuWodMWTSW/jho6cxqJk/hNgLOLBpOX786h3874ufsGj3LZi2RG7ubtKl06bsHRzg5OyAAiET6dmCeKjmiG2YG1yc7WBfbMqjrZ2t+Foa4sxEDj1E6c65JdZJA6D341wFTR+egOn/ewfvPvMwmvnmIvz8LqxdPh+z35uB17/bjVO3UnDfRxHR7yjp9xisXMvuaF7RDckhIbh8PQwJETdw/kwocup3R586jnCw4lESfoASY8bgwVDGGGOMMcZKkJeXh7CwMPz5558IET9A59CoAQPizmL/lpVYd+AcriUVLspJjcO13YuxePES/DD7J2wPikNC8XTlpyMt8gRWL1uO1WeSkJotj/TlRuPCzpX4+cuvMP/nX7Fy5xGcO39WjIPY/tfP+GneF/jk29XYcT4K6cpYQHYyUq7uxFKxrt0hOcgwHdfMjcXNY+ux7MuP8cXXP+GPPacREp+F9HQxYoJwavvvWPr1Z5j5459Ydzq26F6MQgHSL2/C6j9X41BwtMlTrU0IeUDqJWxb8RtWH76B8Nt5yE1LRFToVXF7zxXG2VM4u28Nflm2FKt2HMGRU/JyiqshuBGXLtaTg9zki1g981PMmbMAC//ehr3HToqvOY7Du9dh5cL5mD37a3z163HEiWniMdEHzQVefhVRNbA6qgfWQt0m7dF92GN45tkRaBSxAau+n48/joYiIrVwgN/RyRnOri5wKOeHal0fw5NPPqkSozCga1NUc7aFvYsPqrbuhyeeehaTpr6M1954A6++OA49qqchfM8qrN14BMEmg/O3U9KQl3/3UZGVmYWUlFw4OlZBVW8bOLi4w8YmDkm3c1D8Ox1q21KS0wCbSvDytKWJmRawh0dAM7TvN1bc/ymYOv0VvPnGK5g+sT9qp+7F9l9XYu+lSBT7ruHB822Jzi0C4Jt0E9dPH8KZG1dxNtQG9Xr2Rn0XwM5ap4WK+J6hjBmDB0MZY4wxxhgzQ35+PlasWIHvvvsOq1evRlBQEDIz1aYMskIC4vYtx9J1x3ApKvX+s8Nk6SH7sf2vxVhx8BbQaAjGPTcVL730khhTMWnCMHR0Oo89K37EL1tO4kp8CcOCQhrCT+/C2u+/w5JVRxHl3xaDxk/CyzNexauvvoZXp0/B06N7oYHtVRxb9S1+WrEDZxPkdTVyrtoKHQY9K2+zGC88h6kD68LVyQ7Vu47F2Gfl5RQThmJoqwrIz0hCzKHFmDN3EU4KDdB28FN49gV6zTS8MGkCHu1YBa5X/8S8BQuxKTgfWeYkkv2LbOHkHYDGQ6bgpbEd4HpmFX5ZugWHrsUhVTxEnfwroXxAFbjEh+Po7ou4LS67M4wlHqOhx7Zi3R/rse34LSSkROHW0bVY/fc+XMj2QYXGnTBg9ES8OON1TBrRGc1c4pEQEoxQudkRCgqQePIEQpMzkKGcDjmxiAwNwbkwe7jXa4kW3vbwrNME5R1icO5UCMJj0ooeaJSfguS4azh6NgM2VVuito89nC24WWb6rRPYv341Nh4IRoJHTTTuMgDjJr6M1996A4939od79GXciktS/zLhgfJH066NUds9FuEHN2DL0RBcz6uD7g83gJtYasVjoXyZPGMG4cFQxhhjjDHGSkAP3wgMDJTi559/xocffojvv/8e27Ztw7Vr13hQ9B9oelkV1K6ThsNr/sS2I0F3ZsrdT9zp/bhw6Rbsmg3B0+9+go+mP4/x4x4TYwpe+2wOPnt1KLp4XMfZE2dw7FqavJa63Pjz2Lf6T6zYEwGnbs/h1Y++wEcvPIbB3VqgdevmaN19GMa/9D7enPEE+ldNQeTRHdgZnCGvrY1zxfpo8dBQcXvHF8boRzGuW004O9qhSuv+6D9cXk4xuBd6NPJHTtptXNv8O06kVUGXFz7Au2+9iqkTnxRf8wwmvfQO3vv4Dbw8uDpcgjdg4c4YZGSXnEf2b3OAo0cN9Jg0HY8080TU1j+wesdJXI7NgE2FuqjVtCPauSbh5KqF+HP7MVwMjUB4aBDOHt6AX+d9hC/n/Yp1J2OQmhqO0INLMPfjeViwdj+OXg7FrfAI3Ay+gmthCUiy84ZH+QrwV56gVJCPvEMrsWrzLhy8cB03b17F+UMbsHnbcVzIqYc2g9sj0N4Rni0Ho19jN4TsW4+NW/bh+KUbuHXrGq6c3I6t69dh00UfNBzeCw1cHeEsV22O7PCD2LBwFj774kf8vucULt6IQGREGK5fPo/rcfnI960K/3JucLNotqlxbG1txJYoC1lJoQi6FSPdjqNAHon2bdwR9QLtkHJuN7bvj0dGtQ7o2dBaH5tUhC+TZ8wYPBjKGGOMMcaYGWhAdMKECahatSquXr2KOXPmYMaMGViwYAEOHDiA8PBwvq/oHU6wsemGcc93Q8O8zVi7Zgd2nYtDRgnjeFli/nJyy8HHswKqVbQrmkEncUD5bsPRq0sv1PZyREFOirxcTT4STmzDgePnEVP3IQyY+AT6V3eRy0w5IaBzP/R+dDweqlkNrlnJ8vJ/Dw1spKVnQhBqoU6AK1xdbEz22xYuleuiwYDxGNi4IQoyImg6oFzGrIqtM1BlECaLx3zTCpex5e+12HboGhILAlC7eU+MHFsPvvFr8eZzr+PLn5Zh6Y9z8dGb7+OXk8nw6dYTD/dqgkCfSqjRrhsa+CZg1dvT8encH7Fw8RL8OOsDzFtxCsGe7dGpd1e08JB/p414pLiHYcd3n+Obed/hpx/m4IsvFuLXg9mo3WMIpg6uI26XI+DbF89O7o+OTkfw9w9z8ems77Fw4deY/dkscVvOwr5Nf7z+Qk9UdnGUvsYwl0+91mjWogaEazuw6IP38eW3S7Bs8U9Y8NEMzD/gBP8eg9ClQVVUoVuSPgAu7uXgX05A5pW/8c2iFVh5IgEZOfL5498cTWoHwisrBteTslG5Yzu0fEDbaQmeGcqYMaTBUOWeE/cKU2rl5oRCrczcUKiVWRIKtTJzQ6FWZk6YUis3JxRqZeaGQq3MnFColZkTptTKzQmFWtm/HQq1MnPClFq5OWFKrdzc0LO+KbVyc0KhVmZOmFIrNzcUamXmhkKtzNxQqJWZE6bUys0JU2rlJYUptXJzQqFWZm4o1MrMDVNq5eaEQq3M3FColZkTptTKzQ0965tSKzcnTKmVmxMKtTJLQk8dxam9xpxQqJWZGwq1MnNDoVZmTijUyswJU2rl5oRC+beNjQ0aNWqELl26wMfHRyq7fv065s2bhyeeeAKffPIJzpw5g9u3byM3N/cf9ZRFtR99HxM714Pt9l+xcdMenIwX8yKXqalcoy6qVi1A+PVj2LblKsJj45B4OxXpmdnIzRfz6dQeT81aitU/voYp3arKa6lJxJUzlxF6zQN1a7ZBr7bl5OUqHOqj2/g3MOun9zH1oUryQkU+MpITER8TjejoYhETg+i4FOTkF9x3n0ri5OyKBi3bwMvlKLasO40Ll8MRk3AbyWkZyMrJQ75NeQS2nojv9m3HwVfawM9dmRZYOinnjSVhSq3cnFColSnh4OELX38fuNOgYbEyRcCw/+Hprs3RJH4HTpw5i+MxAtxqdETfKd/gzw9G4KGKIdi1aD6+/vlvnE6ri54vzMZ7Lz6GgbWcIDhXQeXWT+KTryZhdMN83NiyBAu/+RqLtlwDmozHG2/NwGtD6sBe+X229kDvV/HBsBqwv7gWy5duxKmMWug7/X/48N2xaOZStH1VhnyBeR+/imda5yLiwK/48cdV2HnTBc2eexsLfpmDMdUEONnSax3g6uUDPx8PuDkVDrwVho3YBjrDs3wFlPd0gaO9LQSfjhg5eTrem9EfDYWr2L38a8z9dgn+PGWH1s/OxQ9vDEbHOj6wFezg5OYJHz9veLvai3XRM5OcUY7q8hLrsrMx+T22sHdyg7e/H/w9HAv3E45w9/ETt8kdro60TXZwcPaAl5+PeN4o99AUX+MrruPtBheHwmU+tVuhXb+RaOsZhcNLF+CD1WL7nEEPk6LX+6NBwwDUa+CDylWqomP7lnC4sw1FYap4mbmhUCuzJIjpPUMtCYVamblhSq3c3FColf1bYUqtvKQwpVZuTphSK/83wpRauTmhUCuzJBRqZfcLrWzElQVzbgCvfPNQ/El15jLdUL11UEeUQqvExETpGxVPT095iWWUXOjZDmvIJ0lOTpbuf6V06C1VmnKRlpYmXeLm7+8vL7GMsh1G5OJB5pNkZGQgJSUFFStWlJdYpjTlgmb4JCQkoHLlyvISyxiRCyPzqScXdIP9qKgoVKlSRVM9yn4QrdthZC701EHbEBERgQoVKkgzxSxlLbkwog5Cx4W3tzecnS25uK6I3uPTmnIRGxsLNzc3KbQwKhfkQeaT/PLLL9KMya5du+LLL7+Ul5rPiHbr/+vYOnfuHCZNmoQTJ07IS4raFFdXVwwaNAhTp05FgwYNpPNi7dq10oApXWJPeSlVDn+Cx9/+GeerPYuXXnkDTzQGbl8/inWv98CEv4diWfjXeCT7b/xv4iz8Ht4S4199CR8+3RqembdwY/83GDDoG+Dtw9gwuT5q+ortaX4Eji/+EvNmL8TvQQVw862OZt1HYOiAjujYsROaBHjAzbHY3zPhMoJXvo6G03ZiyOJwzHnEG1U9jmPJ0//D/K02qD95Bma/1RuW9GqE/ByEfdcdfT89hSsxOYV/X7nsbgIK8gtQbdIf+PbFR9C/QbFzPzMeeVunouqTq9HivYP4ZExLtKwglymEbGTfPoPfHh+Ct/YkIDbHFYHNeqBHnz7o3bMj2jSpjxqUm1IsODgYs2fPlu7Je+PGDTg5WTZFz4h2y5z+Ad2jU/w1YqNiI/73z9coddBxIY2Q29iK/5kcO0KB+BpxW+V/ii8oLKffKS+hz+b0XlK5UqW7BtltqC5p2+hfiYgNWYfpjV/EuqGLcPCzh9Goirv0emUdW/H1dJn4XcSNL5BzVUj+3abbKNZAnw/pJba2dsXqKDzeBbnuwpLC+oS79qtwO6huyhP9XxD3XZrULK5XmDu1ugop9eWJ+YyOihT7npWl/SkQX1VYH71GqU9cX1q5cLakAPq38hpaRvtCx4bYbohhZ7I/iXu+xJy523DEYzg+XjwJ7VSukpe2RVq/cD+0MOfYMgf1Pd966y3ExcXhxRdfRL9+/eSSkin7QUpDf4u+kKLxHBcXtRn/JTOqf0AedH+rrPc9HR2VL00so21LGWOM/Scpb1SMEWs4HozchtK2P0yf/8+/BQ1ytmvXTvpCROm00++jDxTp6enS4OfQoUMxZcoU7Nq1C6mpqdJryiqbgNGY/FgnPOS5G9s2rcIvR+6TD7uKaDb6f/j8rzVYNXsiBtcGQrZ+jY9enoAhXRujQcMeGPvZWuy9WfIDmWgOaq6PL9zLl0fxr7qjfhuHRzrVQ/Xq1YuicT8Mmr4eUfJrCjmgWquu6DV0BEaMLBaPDsWIvo3g7eqo70OVjSMcPZtj5KKD2LZ6Hj4a1xblE49g7bdvYcqoPujcsgVa9n4Bn+yMBN2EgVuZB8dG/KBva1c42HY/0iCiXeFA4l2vpIE/cTlNzCkMeeBOLlZQu3L36+S67vVrpe2SX0s/U51qr6V6xfKiesXXFt9GGnCUBkFp8FVedIe8XXetQ7+r+H6J69M2yK8gha8p3DZ5iUpdhQr333TgUnwNbbdJDorqK/y3VJ+43aavIdLraLn8u+4oCMeZ40G4mOWPKp3bo4X13y5UQvtB7zfc32BMH2lmaEknEpXTjCBib28vNU6Wos4hfcNEtMyiIbQ+1UO/n7ZDK/omhRoRrbMh6bInIjXyYqNsKSPzqTcXSUlJ0rZonQ1J69L+WEMuiNZji9BMSJoRqXU2pJILpYOhhTUcW4Q+yNElfjQDUIvSlIusrCzp27Zq1arJSyxjRLulN5+mudCaT0J/E7ofHuVCy3ZYQy6I3mOL0H7cunVLmjGs5dtII9ota8knCQsLg5+fn6Zv501zofVctaZcREZGoly5cnB3d5eXmM/0XNWaC2s5tsjSpUsxf/58afaG1jbUmtFxHx8fL83iuhcvLy+pX0HHRExMDDp37lwmZ4YOrOwNl7ij+OuLD/Hj6iiU6zcVb7/dAxXPq8wMlQgoyM1EenIC4mISkJCajozUGISfOYxNq1biRIIDKvWfhkkTxmJUC+97zgz98em38fVOJzR/4RXMe6UbTHv+MVs+wuer6CEvWeK/spF44zpCIjxQdcDrWLV0NKremRkag8YvfoQJ/duinnKfRkV+NhD+G54Y/w3iB3+P2Vpnht5RgNyMJCTGxCHudqrYN01EQthVnN27A1t2HUKYT0s89NKPmDcsAF4u2tspa6TMDF24cCFatmypqf0rLei9gPoq9+9f5CEvOwk3z95Aok8tNK7mDdfiM6ZLCWpjtc78ur9s3I4IR3SKAEe/Kqjpr22G4b+JckHvPfTlzbvvvouBAwfKJSWzlv6BUf0t+kxC4zl0NYaljOhvWVMu6Aot6nd6eBR/kypZaeh7atlmIg2Gyj/fE71E+fBIO6c1QZRkWldPgijoYNF6wBEjBkMpJ7QNtC2WspZ8ErplAOVU62BoacqFEYOhtC10bGltzJQPVA8yn4QGQ2mgnB4QoYWSCz3nqjUcW4QGQ+kDLHU6tDCi3bKGY4tQPpUOmJbtUHKh51w1Ihd6jy1C2xAaGip9YaB1MFRvu2XEsaXkQk8+CQ0M0/uI1sFQygXR+mHHWo4toncwVG+7ZS3HFlmyZAn27t0rvadoQftCLDlPTXNG+aQ6aJkSpqi8JPQaCrX1qT2khyjR++X91KlTRxoMpmODBnnK6mCop5CJmKPL8e2sJfjtcmU89OxjeKH+IYxRHQwtRvwb5OdlIC0+GqFBR7BmwUysvVQNbZ55GW+8/BACVQdDw7Dp3Zcwa2k43Ie9hE9njUEjk0MpO+46QmLEvl82HWe3cXHdL/j9tzNI6Fh8MDQJnT76HlMf7YomxW87mp8J3PwRfXp8hLAB32Cm7sHQu9Gl+tlptxEfHoRT+9bhl7k/YofzW/hzx2R08neH5UMA1ksZDF28eDEeeeQRi9+f73eumsuIOrS0W8VRHdT/vP8gj3hspEfg9OZTiKjaFr2aVYKnS2F7bS25UOooKRf3q5/Wp/cQyoXW7TB9H5BkR+LsgbO4lZQNl+oNUbdOTVT3Lmp76HeaUvbjrjru4V7lynFR0voloc+qdOsVGsd47LHHpPtXm4u2wRr6B0b1t/QOhurtbym50JNPJRd68kn0DoaWpr6nJXgwVAPlwyNtQ0mNuxprySfhwdAiPBhahAdDi/BgaBHKJw+GFqJt4MHQIjwYWoQHQ4scPXpUujxcSy6IclzQ38PcXJi+jvKp1EH7UbwOKi8J5ZOC1jU9LujvNGvWLOzevVvqP5ii11LddevWxUMPPYSOHTtKs2NXr16N2rVrl93BUHptRiiOrvwGc39YjxP2DTHyYT+s/ujXosFQxyvYumIHTqYHoEn3XhjY2Ev6FXcR0nFw1lh8/EM03IZNx/++GIXmqoOhWbj++9v4ZO46nK46Ei99/h6eqHOvNiYRJ5bMxLxZm3G15b88GJqbhISQQ1j20z4kdXke03oFwNet2Hkn5CIhaB/+nD4YL2weIeZ0rphTr8KclhLKYOgff/yBdevWWdx+KecqtVta39up3VPeE4u3F+bS0m4VR+0L3a/+/p9J8pGXnYibZ28iSZoZ6gUXeWbovdotSyi50JNPc3NxvzLaDhroqVSpkqbtoH2gOu7KRV4Sbl29hYT0PDj4VUGliuXh51aUp+LvDZYcW/faF8qF3mOL0HuJr6+vdH7UqFFDulWLuWgfaDvo9z/I/gFtA20L5ULr8Ul4MLQID4ZqJO58icSdE7Kzs6Wgn7UQd0xaX/xALi+xnJhgqQ7xjyUv0SY2NlYQ32Dkf1mO9oG2g/ZJC2vJJ6E8UD60Kk25SE5OFsSGRP6X5ei4pO2g41QrJRcPMp8kLS1NCAsLk/9lOSUXes5Vazi2SGZmpnDz5k35X5Yzot2yhmOL0N/k+vXrmrdDyYWec9WIXOg9tgitGxISItWjBa2vNxdGHFtKLvTkk4SGhgoZGRnyvyyj5EJrLom1HFskIiJCSE1Nlf9lGSPaLWs5toj4oU1ISkqS/2U5o3JBodW9cnHs2DGhQ4cOgvhBjj413wknJyehYcOGwpNPPil8//33wuXLl6X3kVWrVgmdOnUSxo0bJ9dQihz6WHisew2h+ROfCUvOFy5KunZEWDrcVbCxGScsj0gUbhculqTf3CP89d5AoV01T6FGi+ZCBSc3of6H54Tr8eIxm3JY+PapHkKLBr2F0R9vEC7SsuLSg4W/X+8ldGzQU3j8441CCC2LvyQEfT9QsHdyFUb8liiEpUivFDKD1gnfT+kmtGvZRXj0w/XCyWi1YyFfyIg8LPz1zkihffXmQpvHfxduiUsL8rKF0K87Cg0qNRCeWbhXOJdc+Oq75Int3rW5wsPVfIUGk/4QNl5KkwtMZMQJuavHCBW8nIW+c06K2yAvV+TECmFHvhGG+zgLXt3eE34/HiUkZRV7f8q9LUQcWy680d5DsKnymrA5OllQ+U3/aUFBQcLzzz8v+Pn5CVlZWfJS8yltuBHvidR2aGFU35P2/8aNG5rrMKINV/Kp5z1Rbz4Jbce1a9c074sR74lKLvTk04hcEDoutJwfxIhcWMuxReizanp6uvwvyxhxriq5eNDHFomMjBRSUuQ3PgsZkQtrObYspe1rHsYYY4wxxsogscMuPfH65s2b0iwGQjMyGjVqdOehSe+//z6eeeYZ1K9fX7qkkRVxrdYK7fs8isHN/RB3+gzixGV35mF51EHrjq3Q0DEM59cswoLFf+CvNduw5+gRHBFjz9ZV+OuX7/H7jmhkVm6Gxs3q4H7zopxrdUH3gcPRu3IWrq+ch6+X/I4VW/bh5MUb4t/vFq5dPIEDW//GikULsWLXeYS5VEODRlWh7Xm8GjmUQ7mAlhjUvwGcDy7F4sVLsPi3tdi4ay8OiPt8YO92bFq9HL/+uRpbrlZEy1G9UcfFCXxUMcYYY9rxYChjjDHGGGNmKCgowPXr17F582bp4Xp0SRrdE/Thhx/Giy++iC+//BKTJ0/W/KC5MsHGHQFNO+GRCaPRsbKTvFDhizZDRmDE+J4IzDmHDTNfxZRpr+Ktjz7CR2K89eoLePHDv3E2vw56jxqAPp3r3P++mbZeqNt9BEZNfgK9qqfi7O+f4433PsRX8xfi558X4/t5n+PD/72JT5fsxxU0RJ9RIzBhZKu7HrT0/88J5fwbYsTbL2NEtwqI2TgHH702AzPeegfvivv83jtv4JU3P8FXK2/Bq8swvD6tFyq7OYGPLsYYY0w7HgxljDHGGGPMDDk5OVi2bBmSk5Ole7X16NFDeqLvN998g+eeew4BAQHyK8sQZx9UrFoD1Sv4oJx8S05bB2eUq1QbdepWhIe93T8/cLjVRM1Ww/HK0+1Qt05tBPo6wUEZ3fNtiyFT3sbsef/DlKHt0bRiPhKCr+GaGAlCIJr3fwHvfTcXrzzeA02VW4raOcLRqzLqiHVV8rCDvekvdKyExn2fx3s//4bv3nkK/Stm4PLelVjx129Yv/cKEj2boseT72K2+Ddc8O5j6B6o3PvYBvZeAQisGYgK5Vyg+qBuG3Ghgxeq1qiFwPIecHNUudeajR1s3CuiZq06qOrtDGe1UUyHcnCtNxZfr/wRH04dg8HtKsItIw4R4j6Hx+fDtUZvjHzpYyxY9jkerQaUsgfJM8YYY/86foCSBpQLygltQ0k3UVZjLfkk/AClIvwApSL8AKUi/AClIpRPfoBSIdoGfoBSEX6AUhF+gFIRajudnJzg5aXyEBwzKO2W3lwQvccW5YKCZoN269YNDRo0wJNPPik9ydec/uTff/8tPRwmMDCw9D1AiTEDKA9QWrlypfRgFGo7LKG04Ua8J2rtHxjV98zOzpYeiEL9LS11GNGGG/GeaER/i7aD+luUCy37YsR7ojUcWwq6PQs9TMrS84MYkQtrObYIP0CpCD9ASRvtZyJjjDHGGGNlBA1Q0AfRn3/+WYr+/fvD29tbLmWMMcYYY/8VPBjKGGOMMcZYCWgmTtOmTdG6dWtpNorWGRSMMcYYY+zB4sFQxhhjjDHGSkCXbtHlePR0eB4EZez/2ru32MquOs/jy3Vz2S677HK5fKsqJ0GAIghSOhAkHgII8TCMaJB6HnqQELwxT7TEQ/MGyrzQjFCAMIOmJWaAITPTUS4QumHoGSUNzSBBICAgKI3CJL6Xb+V72eVLVU39Vu3VPklXEe//WpW9vM/3Ix3Ztcpne+/fWXvtdf5772MAAA4uiqEAAAAAAAAAmgLFUAAAAAAAAABNgWIoAAAAAAAAgKZAMRQAAAAAAABAU2i5dt3W1lbxz1vb2dnxX48cOWL60Pjrv8bt7u767/XXNy2uXr3qrly54n+/1sNqcXHRHT582J08ebJoKUfboe3RMvRh+mU1ZmHNM1UWKysrfjn6q6gWdcpifX3dbW5uur6+vqKlnNgsJIf9TDY2Ntzq6qobGBgoWsrR66HXRTkoD4sc+pZofLx48aIbGhoqWsrJIQuJ7Vui9bhw4YIbHh42rUeKfTWXPPX8qakp19/fb9rX6pSFqF/09PT4PyxTVuO+WuX8IEWeMjc35zo6OvyjrMYsrPtqTlksLCz4v8De2dlZtJRTp7nnU0895R5++GF3xx13uEceeaRoBRC8+OKL7qGHHnKPPfaYe+mll/zYUUaKcSvFMTHFfGt7e9vNz8/7+ZZFyKLq40CKPLUemm8pC8t6pBjDc8lClIXeqx47dqxo2b+6ZTEzM+PrOW1tbUXL/uUyP0iRpzT73LPs8SLwxdDR0dHin7emkMQSTpDLMlTc0PMtg4jUKQsdsNXprB2oTlloENDD8mZe6pSFBiNNxCwHFwnrINb1yCUL7R+XL1/2f0HYok5ZaBkqlCuLqrYllzxFWWi8sE7k6pSFTiTpmGqdyKVYjxzyFI0XmghaJ4N1ykLzLe0f1jcaOWQhKZbxzDPPuK997WvurrvuohgK3EQohj766KPupz/9aen3aSnGrVzGi9i5p8SuRy5ZaBnMPfdUPfeUVHnGZsHcc0+zzz11otnCF0OL729JP9J4lsuy82lQDxVnaxFSBZpQcbZOrEVn2rTTWK+GVJFIUmSh7bB0mFRZ6CpZLcd6NaT6hfqH8rQMRI19y5pFir4lukpWg6r1asjYLCSHviWXLl1yS0tL7uzZs0VLOVoHrYu2wToo59C3RAeX2dlZNzIyUrSUE/bVXLKw9i3RMiYmJnwWlvVIMW6l7FsxWWgdxsbG/JUKlnEn7Ku5ZGHtW8H4+Lg/jlhOoIQsxLqv5tK3ZHp62l8JabkaMsW4lUvfEo2dOtna3d1dtOxfinErl74lTz75pC/0cGUocHOhGPr444+7ycnJ0hdqpBi3Yo+JKcYt0Ykk3XGh+VbMuBWTRcgzZn4Q+75GtB6abykLy7akGMNz6Fui5yuLwcFB04VMjcfE2HpM1VmI3pP09vaaThrkMj9I0bdE44WuCu3q6ipa9q9x3LJmkUvfKqv0qGQJp1Hs8yXFMmKQwb+Uw/pU/brUIYMc1XGbyqpD30yNfsHrerukWIeD/trk9jrk8Joc9NcUwP7lMObUQQ4Z5PY6xKxPqm2pOpMctqPqDG6HHLbpoOVqO0UDAAAAAAAAAAcMxVAAAAAAAAAATYFiKAAAAAAAAICmQDEUAAAAAAAAQFOgGAoAAAAAAACgKVAMBQAAAAAAANAUKIYCAAAAAAAAaAoUQwEAAAAAAAA0BYqhAAAAAAAAAJoCxVAAAAAAAAAATYFiKAAAAAAAAICmQDEUAAAAAAAAQFNouXbdlStXin/e3PUfceFnDh8+7FpaWvz3ZTQu48iRI/5rWVevXvUP/X6th9XFixfdoUOHXE9PT9FSzu7urv+aIgvrMlJlsby87Lfn9OnTRUs52g5tj/LUo6xc+pasra25jY0N19/fX7SUE5uFpOxbMVlcunTJraysuKGhoaKlnBRZxC6jMQtrnrK1teXm5ubcuXPnipZyUuyrOfQt0TImJyd9FpZtySWLFMvQdkxMTLjBwUF37NixonX/GvtnlcfEFFnI1NSUO3XqlGtrayta9q9uWczMzLgTJ074R1mNWVj31RRZpFiGaOxsbW11J0+eLFrKyeGYmCqL73znO+6LX/yiu+OOO9wjjzxStAIIXnzxRffQQw+5xx9/3I2Njfmxo4wU+2rscSDFGC7b29v+WKL5lmUZOWQhqeaemm8pC8s4nksWKZah52sefubMmdL7hzT2zzrMt6anp113d7drb28vWvavbllovOjo6HCdnZ1Fy/41ZmHdV6vO05q/L4ZqwH0tWjGJ2Xn1kNhlKCDLixQsLi76wKyT85BFzHrkkKeo4KWOqzexFnXKYn193W1ubrq+vr6ipZywHimyqDJPUVF4dXXVDQwMFC3l1CkLFUN1AsVaGE6RRS55akJ64cIFNzw8bMo0bIfE7u9VZ6F1UAFQJ0+OHj1atO5fnbIQ9QudYDx+/HjRsn8ps5Aq85TZ2VlfCNWk1CJ23Mopi4WFBf+GzTI5lzpl8dRTT7kvf/nLFEOBWwjF0Mcee8y9/PLLpYs9KfbVFMfE2HFL9N58fn7ez7csUmSRS556n6r5lrKwFDzCdkiVx4EUWYiy0HtV64n4HLJIsQxRAVD1HMuJeKnTHEMnnzXvbNa5p2V/EF8MDWdt/phQ6dXGWV4obVgI2Vq51fNDQNaQRYUNrYPOJFikzKLKPEVXhmp7ent7i5Zy6pSFrgxVMVRn2yxS9M8c9jNRMVSFcl31ZpFbFtZliIqhmpCePXu2aCknZRZV5ik6VmgSpiws/StkIdb+mUPfEq2Hzs7rhIF1Qhr6Zw5ZxCxD1C90HLEWQ1NlIVXmKZqcq/hnmZA2ZmHtnynzjM1CY6cKGl1dXUVLOSmPA1X2LdGVoV/60pcohgK30Hhl6OjoqOnK0NhxK8X8IMUyVAzViTXNtyzLSJFFTnmGK0MtY3DK40DVWWgdNPfUifiDPPdMsQzRlaE6EW+9KylVFlJlnqLxQvNO611JIQtr/0yZpyUL69WovhhafH9L+pGdnR3/va6AsQSkjdMbaT3XchWNaBDRQ+FYN1g0OdeLZL0aUlkoE62DpdPmkqfoKlllar0ask5Z6EpIFQGtV0NqHbQu6lvWQSBcpV1lnqLb5JeWlswFwJBFzL6aQ9+Sy5cv+wPMyMhI0VJOinErh74lylMTUmVhWY+QRcy+miKL2L4lWgfdxqcrFSwTUj0/dtxK0bdCFjF5yvj4uD+OWCakIQuxntnNpW+JJucq/lknpLHjVi59SzR2qqBhPfkcxq3YLCS2b8Vm8eSTT/pCD8VQ4OYai6Eq+JQthoYxPMUx0To/SDX31Il43XGh+ZZlGSnGrRTHxBTzLa2H5lvKwrItKY6JOfStQCcKdLFK2f1DUmSRS98SjROq51hvk4/dV0MWVfct0Xiheaf1NvnYLHLpW2XZ90QAAAAAAAAAOEAohgIAAACvA12BoQeAm7NclQQAQFkUQwEAAIDbSLfp66HbyPSRPABeSfuGPrvfcssrAABlUQwFAAAAbiN9jpc+z0ufya2/+grglfQZ7fojt0NDQ1wdCgC47SiGAgAAALdRb2+vfywvL7uXXnqpaAUQrK2t+T+I8sY3vpFiKADgtqMYCgAAANxGPT09bnh42P+V6N/85jdFKwBZXV31JwlWVlbcfffdF/XXtgEA2A+ONAAAAMBt1Nra6u6880538uRJ9+yzz7qlpaXifwDoitBf/OIX7vjx4+6BBx6gGAoAuO040gAAAAC32Zve9Cb35je/2f32t791P/vZz4pWoLnps0Kff/5599xzz/n94y1veQu3yQMAbjuKoQAAAMBtdtddd7l3vetd/vtHH33U/7GYa9eu+X8Dzerll192P/rRj/zV0u9///vd0aNHi/8BAOD2oRgKAAAA3Ga6Bfjtb3+7e9/73ueefvpp99RTT/m/Lk9BFM1qfX3dPfPMM/5K6Xvuuce9973vLf4HAIDbi2IoAAAA8DrQbcAf//jH3cDAgHvwwQf9H1PSbcJAs9nd3XXf//73/VXS+izdj370o+7EiRPF/wIAcHtRDAUAAABeJ294wxvcpz/9af8XtD/5yU/6q+I2NjaK/wWaw3e/+1338MMPu+3tbfexj33Mvec97yn+BwCA249iKAAAAPA60dVv7373u90XvvAFNzc35z71qU+5b33rW+7ChQvFTwD1tbOz47761a+6z33uc/4PJX3iE59wH/7wh92RI0eKnwAA4PZruXadblP4Y/RZRlevXvXfHzp0yPQX/hqXcfjwYf+1LD0/fK6SdRmiD6zX87u7u4uWcq5cueK/psjCuoxUWSwvL/vt6e3tLVrKCVloG7QtZeXSt2Rtbc1tbm66M2fOFC3lxGYhOfQt0RUqKysrbnBwsGgpJ/TPFFlYl5Eqi62tLTc/P+/Onj1btJRTpyz0BmZ6etpnYdnXQhZi3VdzyFO0HpOTk/5W12PHjhWt+9f4mhz0LGRqasqdOnXKtbW1FS37l6J/hiykyjxlZmbGF7sst3vWLQuNna2tra6rq6to2b8UWeSSpywuLvrf39PT4/+tfU9tP/jBD9w3vvENPx/TH1f60Ic+5O6//36/PwF1ornlD3/4Q/fEE0+4n/zkJ/4Pin3kIx/xn6Hb19fn5+D6I0pDQ0PFM8pJMW7lNPfUiRLNt6oat1LMD8IyYrJQnULzLWVhKZinyCKHviVaB2Wh96o6tpbV2D9js5Aq+5boPYnqOe3t7UXL/jVmYe2fufQtmZ2ddR0dHZXNPRuXUUUW1pNpvhiq2xNeS2NAFtowPSR2GQrI8iIFmnzqRdLn01iELGLWI4c8RQUvDUjWSXedstCHuGsipgmZRViPFFlUmadowqrb91TosahTFpqQ6gSKdXKeIotc8tSEVFcuDQ8PmzIN2yGx+3vVWWgdVADs7+83/eXbOmUh6hcq8ugPxJSVMgupMk/RhFSTUU1KLWLHrZyyWFhY8G/YOjs7i5Zy6pSFijx6fuOJeC1X87Bf/epX7tvf/rZ77rnnfF76QzL33Xef/3zR8+fPu9OnT/sTDdZtAF5v2nf1x8E0BoyPj7vf//737te//rV/aK6tgv8HPvAB9453vOOf34OoXfsDc0/nPzpAJ5M037JIkUUueep9quZbysJSZAnbIVUeB1JkIcpC71WtJ+JzyCLFMkQnn1XPsZyIl9h9NWyHVJmn6OSJ5p3NOve07A/ii6GhOv/HhKtHNQhZXihtWPg91sqtXiQ99PutFWdRYUMvUjg7X1adskhxZai2R3laO34OeYquDFURUMUNizploRzUN2LOzusRk0XI05qFxOYp4ez8uXPnipZyUuyrOfQt0TJ0Rlpvzi3rkUsWKfqWnj8xMeGvnrYWQ7UeMVnkkqdocq7jiLUYqvWQKo+JqbLQ5FzFP8uEtDELa//MpW9JzJWhksMxMVUWr74y9NWef/559+Mf/9g9++yzbmxszK+73uRpTqKvylHPt+QAvN60z+gPg2kuqTmU3nvpWHnnnXe6Bx54wL3zne90d9xxxyuKGCqGaj+xFgDDvhozhqc4DqSYb6kYqmOJ5lsWKcatXLLQemi+pXm4ZVtSZBGWEZNFijxFWei4YC2G5nBMTJWFrgzVMdV6V1IOWYRlxGYRc2WopJpvpcjCsgzr7/TF0OL7W9KP6PZI0YHMEpA2TCHruZY3jqKA9VBHiSn0aHKuwKxXQyoLZaJ1sHTaXPIUTTqUqfVqyDploSshVQS0npHWOmhd1LesO2S4SrvKPEVn83UVi/XW8JBFzL6aQ98STeZ1gBkZGSlaykkxbuXQt0R5ahKmLCzrEbKI2VdTZBHbt0TroIKF3rRZJqR6fuy4laJvhSxi8hRd+aPjiGVCGrIQ65ndXPqWaHKu4p/1VqXYcSuXviUaO1XEs34sURi3YrOQ2L4Vm4WukNM2/LGTzyoG/eEPf3C//OUv3QsvvODHGM3TdExWFuoflhwCPV+qXoZeEy3H2j/DOoh1PXLJQn1L/bRuWeir9jmNg3q/pfnkW9/6Vnfvvfe6u++++6ZjrObgKppaTz6HMTzFMdE6P9BzY8dw0Yl43XGh+ZZlGSnGrRTHxBTzLa2HxkJlYdmWFMfEHPpWMDo66k/E69haVoosculbogs0NL5Yb5OP3VdDFlX3LdF4ofHWcidOiixy6VtlUQw1iB3McslTKIbuoRi6h2LoHoqhe5QnxdAbtA4UQ/dQDN1DMXQPxdA9+ymGNlIxRPlpzFWBSB/lE/qnJQv1LW2HWLcjLEO/P2Yf0RxDr4v146q0DloXvSbWMTz0i9g8Y7NQAVzzDOvdaimyCMtI2be0LipQqL+ruKk7jV5r/SiG7qEYukfrQTF0D8XQPRRD91AMtaEYahA7mOWSp1AM3UMxdA/F0D0UQ/coT4qhN2gdKIbuoRi6h2LoHoqhe8oWQ18tdtzKpW+J5hdaF+sfrIwdt1JmIda+JfqIJhW6rX+wMsW4lUPfEoqheyiG7tF6UAzdQzF0D8XQPRRDbex7IgAAAAAAAAAcIBRDAQAAAAAAADQFiqEAAAAAAAAAmgLFUAAAAAAAAABNgWIoAAAAAAAAgKZAMRQAAAAAAABAU6AYCgAAAAAAAKApUAwFAAAAAAAA0BQohgIAAAAAAABoChRDAQAAAAAAADSF0sXQa9euFd/ZxD4/BzlsQ2458rrmoQ7b8Gp13KayYjOgX+CgyOF1TbEOB71/5vY65PCaHPTXFDdX9etKv8pTDmNOHeSQQW6vQ8z60KdeiSxfif5RXsv10K5tb28X/7y1q1ev+q+HDtkvJo1dhl5gPVpaWvzDanFx0R0+fNidPHmyaCmnTlmsrKy4K1euuFOnThUt5aRYjxzylPX1dbe5uen6+vqKlnLqlIVyUN8YGBgoWspJkUUueW5tbbmLFy+6oaGhoqWcOmWxu7vrLly44IaHh03LqVMWWoepqSnX39/vjh49WrSWE7seueQp6hc9PT3u+PHjRUs5dcpibm7OnThxwrW3txct5aTonznkKQsLC661tdV1dnYWLeXUKYulpSX//O7u7qKlnByykBTLWF1ddTs7O663t7doKSfFa5JLFpcuXfKPM2fOFC3l1CmLy5cvu+XlZeae1+m9+fz8vJ9vWdQpC71P1XxLWej9e1m5ZJFiGaIs9F712LFjRUs5sa9JTlnMzMz4ek5bW1vRUk6dstDcs6Ojwz8sUuyrVeZp3R/sW1uSNqxuctimqteBDG4PXtd6vq454LXdU+V6kMGelOuQy/ZUuR45ZJCLOmZB38pjPehb6fG61hevLRnUGbke3Az8laGhivvH6AyuHDlyxFS1VkC6qkjP1TIstJ46O6Rqs+XMUKArFfR8XcVioe3Q9sRmITFXFCmLmDxFVypoOadPny5ayglZKE/rWYAc+pasra25jY0Nf6WXhXLU6xKTRaq+FZuFctDZeevVkCGLmH01h74lujJUZ9vOnTtXtJSTYtzKoW+JljE5OenOnz9vWo86ZaHnj4+P+33EMo6n2FdzyVPUL3QcsVwZWrcsdJWsroTU1aEWYdyyzg9yyVM0durKUOudOLH7ak5Z6A4DrYf1TpxUWUiVfUs0v1A/t96Jk2JfzaFvieaeujLUejVkTlmItW+J7krS3XvWqyFDFjH7asgiJs8Uc09dGaqr3jTfskgxbuXQt0TrofmWsrBsS8giZl/NpW+JstB4YbkSLuyrMVnk0rdEV8nqmGq5MjS3LGKWIRovdFWo9U6cHOoxMXla+5Evhhbf35J+pHFybglIGxcCsh4oFU4IyBqy6LYDBWydkCoLZaJ1sASfS56iSYcytU5I65SFbttSEdA6IdU6aF3Ut6yDWfjIiirzFE3MVSg/e/Zs0VJOyCJmX82hb4lu25qdnXUjIyNFSzkpxq0c+pYoz4mJCZ+FZT1CFjH7aoosYvuWaB3Gxsb8mzbLhFTPjx23UvStkEVMnqLJuY4jlglpyEKst7nk0rdkenradXV1mYqhKcatXPqWaOxUMdR6a3gYt2KzkNi+FZuFTsRrG6y3hseOW7n0LdH8QutivTU8dtxKmYVY+5aoGKqPaRocHCxaykkxbuXQt0RzcJ00sJ58DlmkOCZWnYVOxOvEmuZblmWkGLdy6Fui9dB8S1lYtiXFuJVD3wpGR0f9eKFja1kpssilb4lOxKueY/lYohT7asii6r4lGi8077QUQ1NkkUvfKsu+JwIAAAAAAADAAUIxFAAAAAAAAEBToBgKAAAAAAAAoClQDAUAAAAAAADQFCiGAgAAAAAAAGgKFEMBAAAAAAAANAWKoQAAAAAAAACaAsVQAAAAAAAAAE2BYigAAAAAAACApkAxFAAAAAAAAEBToBgKAAAAAAAAoClQDAUAAAAAAADQFCiGAgAAAAAAAGgKLdeu29nZKf55c9d/xIWfOXr0qGtpafHfl3H16lW3u7vrn6tlWFy5csU/Dh065I4cOVK0lnfx4kV3+PBh193dXbSUoyyUidZB61JWLnnK8vKyz7S3t7doKadOWaytrbnNzU135syZoqUcrYPWRX1LD4vYPEMWYs1TNjY23MrKihscHCxayskhixR9S7a2ttz8/Lw7e/Zs0VJOinErNk9loWXE5ClaxtTUlM/Csh45ZCGxfUu0Dsqiv7/fHTt2rGjdv7CvxoxbueQpykLHkePHjxct+9eYhbbDsq/mlMXMzIzr7Ox0HR0dRcv+pRi3culborGztbXVdXV1FS37l2LcyqVvyeLiov/9PT09RUs5ORwTU/Qt0fxC63L69OmipZzYfTWXviXr6+vu0qVL/lhiEZuF5NC3RHPwpaUlNzQ0VLSUk2JfDVnE9K0UWWxvb7vZ2Vk/37IsI0UWOfQt0XpojjE8PGzalhTjVi5Z6PnKoq+vzx9by0qRRS59S6anp/0xta2trWjZv8YstB0HeT8TjRead544caJo2b8U41bVfcv6O30x9OWXXy7+eWsKKbAEFPt8SbEM0QFGLG9gJeW2VJ1FGJjJ4sZgpB3QcnCRlFmIZRkps9DDUtiQHLKQsIyYLNQnNGZYDrSSWxZiXYYOdJcvX/ZZWJZRpyy0DL1x0z5imdTWKQtRFjqOWCZydctC+4gmcdaJcViPOmShk0naP6yT1Nj1yCkL5p57NPfU8YT5FvOtRnWbb8VkEeZb7e3tRUs5uWUhMcvQRRrKwrKMOmUhyoK55w3MPfc0+9zzzjvvLL4rxxdDNeC+ljCJO6jV4kYLCwt+p+HsvPNnYJWp9ex8nbJYXV31g2pdzs5b33CJrlLQlRuxZ+dzycLat0QHF13ddO7cuaKlnBTjVg59S7QeExMT7vz586b1CPtqHbLQ88fHx/3V05Z9LcW4lUvfksnJSX9lqOVNbNhX65LFhQsX/JWhzXp2vtHc3JwveJ08ebJoKSfsq9YsculboruStB6nTp0qWsqJHbdy6Vuiu5K0Lrq6ySLsq9YsJIf3NaK7kjTnGhgYKFrKSTFu5dC3REUevS/RFYAWYV+NySKHviVahu4y0HzLIsW4lUPfEm2H5luxc8+YfTVF30qRhSgLvVflytAbdyWpnmM5adA4blnfM4c8c8hC44WuDNX8s6wUY3jVfcu6T/liaPH9LdUhoEYqbKizMSG9cduWMrVOSOuUhYqhmohVOSENE6gq8xRNzDUhtd4aHrKI2Vdz6FuiYqhuPRgZGSlaykkxbuXQt0R5qhiqLCzrEbKI2VdTZBHbt0TrMDY25t+0HeRiaMgiJk/R5FzHkZhblcQ6Ic2lb4lu29Jt4RRDb9y2pTds1o8lSlWwkti+FZuFTsRrG/hYohsn4rUu1o8lih23UmYh1r4lKobqVnk+luhGMVQnDawnn0MWKY6JVWehq+p1Yk3zLcsyUoxbOfQt0XpovqUsLNuSYtzKoW8Fo6OjfrygGHrjRLzqObHFUOu+GrKoum+JxgvNO5u1GGpl3xMBAAAAAAAA4AChGAoAAAAAAACgKVAMBQAAAAAAANAUKIYCAAAAAAAAaAoUQwEAAAAAAAA0BYqhAAAAAAAAAJoCxVAAAAAAAAAATYFiKAAAAAAAAICmQDEUAAAAAAAAQFOgGAoAAAAAAACgKVAMBQAAAAAAANAUKIYCAAAAAAAAaAot1667cuVK8c9b293d9V8PHz7sWlpa/PdlXP81LvyeI0eO+K9lXb161T/0+7UeVhcvXnSHDh1yPT09RUs5dcpieXnZr0tvb2/RUo6eq+2xZiE55Clra2tuY2PD9ff3Fy3lhCzUt/SwyCUL5aC+MTQ0VLSUE/pnTBY59C3Z2tpyc3Nz7ty5c0VLOSn21Rz6lmgZk5OT7vz586b1SJFFWEbVfUvPn5iYcIODg+7o0aNF6/6FfTVFFlX3LZmamvLHkePHjxct+xeykCqPiamymJmZcZ2dna6jo6No2b8UWeTSt2R+ft61tra6rq6uoqWcHI6JqbJYXFz0y7DOPUP/rDKLFH1LVlZW3M7Ojjt9+nTRUk7IImZfzWW+tb6+7i5dulTp3DMso+osNjc33dLSUhZzz5hlpJhvbW9v+2OJ5lsWKcatXLLQemi+pXm4ZVtSZBGWEZNF7H4WKAuNF8eOHSta9i/FvpoizxR9S6anp/0xta2trWjZv1yyCMuIzWJ2dtbPO0+cOFG0lJPqmJgiC8syrL/TF0M14L4WrZhYXyQFpIfELkMBWV6kQBNSBXby5MmipZyQRcx65JCnaEKqjnvq1KmipZw6ZaEJqSZifX19RUs5YT1SZFFlnqJi6OrqqhsYGChayqlTFiqG6gSKdXKeIotc8tSB8sKFC254eNiUadgOid3fq85C66ACoCak1mJoXbIQ9QtNSK3F0FRZSJV5iiakmoxaiqESO27llMXCwoIvhqo4bFGnLFTk0fO7u7uLlnJS7Ks55CmaX6gYaj0RX6csVAjV48yZM0VLOWE9UmRRZZ6iObjelzD3vFEM1ckkzbcsUmSRS556n6r5lrKwFDzCdkjs/l51FqIs9F7VWgzNIYsUyxCdMFA9x1IMldh9NWyHVJmn6MIdzTubde5p2R/EF0NDJfhWtFKNAVleqMZlxFSLtRyxLkNU2NDzrRPScBYhRRbWZaTKIsWVoaJtsHT8XPqW6MpQTcSsE9LcsrAuQ1QM1YRUV71ZhP5pzUJyyFMuX77s39CfPXu2aCknZCHW/plLFnrzqrOwysKyLSmyyKFvidZDV8nqTZt1Qhpek4OehWhyrpNq1rPzIQtr/wxZSJV5iibnKoZazs7XLYuYK0NTZJFLnpLiylCpQxYprgwVbYOlf+bStyTFlaFizUJy6FuS4spQrUuKLKzLSJVFuCtJ8y3LMkIWYt1Xc+hbojqF5lvKwnIFX4oscuhbonVQFnqvqmNrWY39MzYLqbJvid6TqJ7T3t5etOxfYxbW/plL35KYK0NTZNG4jCqysF7d64uhxfe3pB/RpEV0BYy1s2gw03MtV9GIdhw9FE7MbRianOtFsl4NqSyUidbB0mlzyVM0OVem1qsh65SFrlRQEdB6RlrroHVR37IOAuEq7SrzFE3MNSG1FgBDFjH7ag59S1QM1QFmZGSkaCknxbiVQ98S5anbc5SFZT1CFjH7aoosYvuWaB3Gxsb8lQqWYqieHztupehbIYuYPGV8fNwfRyzF0JCFWM/s5tK3RJNzFf+sE9LYcSuXviUaO/WGzXryOYxbsVlIbN+KzUIn1bQN1pPPseNWLn1LNL/QulhPPseOWymzEGvfEp2IV0HUevI5xbiVQ98SzcF1wYr1Y4lCFimOiVVnoWKo7rjQfMuyjBTjVg59S7Qemm8pC8u2pBi3cuhbwejoqB8vLMXQFFnk0rdEhWHVc6zF0Nh9NWRRdd8SjRead1ruxEmRRS59qyz7nggAAAAAAAAABwjFUAAAAAAAAABNgWIoAAAAAAAAgKZAMRQAAAAAAABAU6AYCgAAAAAAAKApUAwFAAAAAAAA0BQohgIAAAAAAABoChRDAQAAAAAAADQFiqEAAAAAAAAAmgLFUAAAAAAAAABNgWIoAAAAAAAAgKZAMRQAAAAAAABAU6AYCgAAAAAAAKAptFy7bnd3t/jnrV25csV/PXTokGtpafHfl3H917irV6/67w8fPuy/lqXnazn6/VoPq4sXL/p16O7uLlrKySGLFMuQ5eVlvz29vb1FSzmxWUgOecra2prb3Nx0Z86cKVrKSdE/c8liY2PDraysuMHBwaKlnNyysC5Dtra23Pz8vDt79mzRUk7KLKrMU3SsmJqa8llY+lfIQqz9M4e+JVqHiYkJNzAw4I4dO1a07l9j/8whi5hliPqFjiPHjx8vWvYvZRZSZZ4yMzPjOjs7XUdHR9Gyf41ZWPtnyjxjs9DY2dra6rq6uoqWclIeB6rsW7K4uOi3oaenp2gpJ2UWVeYpml/s7Oy406dPFy3lpBi3cuhbsr6+7i5duuT6+/uLlnJC/6xDFpqDLy0tuaGhoaKlnByykBTL2N7edrOzs36+ZVlGiixyylPzrXPnzpn6V4r+mUsWoiw0XhzkuWeKZcj09LQ/pra1tRUt+5cii1zyFI0XmneeOHGiaNm/xu2w9s+qszhy5EjxXTm+GKoB97U0BmShDdNDYpehgCwvUqAJqV6kkydPFi3lhCxi1iOHPEUTUg3Op06dKlrKqVMWmpBqItbX11e0lBPWI0UWVeYpKoaurq76Qo9FnbJQMVQnUKyT8xRZ5JKniqEXLlxww8PDpkzDdkjs/l51FloHFQA1IT169GjRun91ykLULzQhtRZDU2UhVeYpmpBqMmophkrsuJVTFgsLC74YquKwRZ2yUJFHz7eeiE+xr+aQp2h+oWKo9UR8nbJQIVQP64n4sB4psqgyT9EcXO9LmHveKIbqZJLmWxYpssglT71P1XxLWViKLGE7JHZ/rzoLURZ6r2othuaQRYpliE4+q55jKYZK7L4atkOqzFPm5ub8vLNZ556W/UF8MTScqbgVrVT4GQ1ClheqcRnWyq1eJD30+60VZ9HkXM+3np0PV9KmyMK6jFRZ6MpQbU/M2Xltjzq9pePn0rdEV4aqCGg9Ox+bheTQt0QTc01IrQXAFFnELiNVFiqG6gCjM9IWKfbVHPqWaBmTk5Pms/O5ZJFiGdoOnZ3X1dOWA3DIQqo8JqbIQjQ510k169n5sK/WIQtNzlUMtZ6dD1lY99UUWaRYhmjsVDHUevI55TGx6rmnTqppGdaTzznMD1JlofmFij3Wk8+x+2qKLFL0LdHcU3MuawEwNgvJZe6pObhOGlgLgCn6Zw59S7R/6Fii+ZZlGTlkIanmnuHKUMu+ljKLqvPU8zUP18kTHVvLauyfdZhv6cpQnWBsb28vWvavMQtr/8wpC40XKoRaTj6nyKLqvmXN3xdDi+9vST+iM7iiK2CsnUWDmZ5ruYpGFLAe6igxEw+daVNg1gmpslAmWgdLp80lT9FVssrUOiGtUxa6UkETMeuEVOugdVHfsu6Q4SrtKvMUTcw1IbXeGh6yiNlXc+hbcvnyZX+l18jISNFSTopxK4e+JcpTE1JlYVmPkEXMvpoii9i+JVqHsbEx/6bNWgyNHbdS9K2QRUyeMj4+7o8jlmJoyEKsZ3Zz6VuiybluC7cWQ2PHrVz6lmjs1Bs269WQYdyKzUJi+1ZsFjoRr22wXg0ZO27l0rdE8wuti/VqyNhxK2UWYu1bomKo7kyyfixRinErh74lmoPrpIH15HPIIsUxseosdCJed1xovmVZRopxK4e+JVoPzbeUhWVbUoxbOfStYHR01I8XlmJoiixy6VuiwrDqOdZiaOy+GrKoum+JxgvNO63F0NgsculbZdn3RAAAAAAAAAA4QCiGAgAAAAAAAGgKFEMBAAAAAAAANIV9fWYoAAAAAAAAABx0XBkKAAAAAAAAoClQDAUAAAAAAADQFCiGAgAAAAAAAGgKFEMBAAAAAAAANAWKoQAAAAAAAACaAsVQAAAAAAAAAE2BYigAAECN/eM//sh96E8/6BYWFoqWf+mFF15wf/rBD/qvB91nP/sZ9+8+8Qm3sbFRtAAAAAB7KIYCAAAcECrwqdBHsQ8AAACwoRgKAABwQPziFz9309PT/jE2Nla0NqdQGP7mN79RtNzw4IP/3v3nv/5r197eXrQAAAAAeyiGAgAAHBBPP/20+7N/82fu3j+51/3N3/zPohUAAADAflEMBQAAOAD0mZ//7w9/cPff/07353/+b/33N/scUH1m5n1/cq9/6LNC5+bmi//Zo6spw8+89z3vdr/73e+K/7k1fZ6ofjY8bz+36uvzSsPPv/o5jeuph342CJ9z+k//9IL/Gn4mXAWqdfnXH/hX7uc/f9Y9/OUvv+L/tFw9GjVurx6v/v/wnMafe63PWQUAAMDBRDEUAADgAPje9/7OnTjR6UZGRvxD36utkQp6szOz7sf/9yfuuV/+yv3V5/+D+0//8SvF/96ggt+TTzzh/v5//x//M489/oT71n/7pltbWy1+4uZ++A//4H9Wz9Hy5fOf/yv/9Wb0ez77mc+4R/77//jn57ztbW/z/6di5j33vM236/HFL33J/2zjH3CanJx0n/7Lv3T/5b9+3f+MlvONr3/dL/fuu+923/v+/3LveMf97pN/8Rf+/z/2sY8Xz3wlZdK4vVoPZfTqYu7f/e3f+q/hZwYHh9xXvvKwbwMAAEBdOPf/AQ2e07QTVMnRAAAAAElFTkSuQmCC;" vertex="1" parent="1">
          <mxGeometry x="300" y="-670" width="1347" height="591" as="geometry" />
        </mxCell>
        <mxCell id="lsIhl7qGzUJE_njerY9o-8" style="edgeStyle=orthogonalEdgeStyle;rounded=0;orthogonalLoop=1;jettySize=auto;html=1;entryX=0;entryY=0.5;entryDx=0;entryDy=0;" edge="1" parent="1" source="lsIhl7qGzUJE_njerY9o-3" target="lsIhl7qGzUJE_njerY9o-4">
          <mxGeometry relative="1" as="geometry" />
        </mxCell>
        <mxCell id="lsIhl7qGzUJE_njerY9o-3" value="Snowflake" style="rounded=1;whiteSpace=wrap;html=1;" vertex="1" parent="1">
          <mxGeometry x="183" y="-999" width="181" height="60" as="geometry" />
        </mxCell>
        <mxCell id="lsIhl7qGzUJE_njerY9o-9" style="edgeStyle=orthogonalEdgeStyle;rounded=0;orthogonalLoop=1;jettySize=auto;html=1;entryX=0;entryY=0.5;entryDx=0;entryDy=0;" edge="1" parent="1" source="lsIhl7qGzUJE_njerY9o-4" target="lsIhl7qGzUJE_njerY9o-5">
          <mxGeometry relative="1" as="geometry" />
        </mxCell>
        <mxCell id="lsIhl7qGzUJE_njerY9o-10" style="edgeStyle=orthogonalEdgeStyle;rounded=0;orthogonalLoop=1;jettySize=auto;html=1;entryX=0;entryY=0.5;entryDx=0;entryDy=0;" edge="1" parent="1" source="lsIhl7qGzUJE_njerY9o-4" target="lsIhl7qGzUJE_njerY9o-6">
          <mxGeometry relative="1" as="geometry" />
        </mxCell>
        <mxCell id="lsIhl7qGzUJE_njerY9o-4" value="Select.dev" style="rounded=1;whiteSpace=wrap;html=1;" vertex="1" parent="1">
          <mxGeometry x="488" y="-999" width="120" height="60" as="geometry" />
        </mxCell>
        <mxCell id="lsIhl7qGzUJE_njerY9o-11" style="edgeStyle=orthogonalEdgeStyle;rounded=0;orthogonalLoop=1;jettySize=auto;html=1;" edge="1" parent="1" source="lsIhl7qGzUJE_njerY9o-5">
          <mxGeometry relative="1" as="geometry">
            <mxPoint x="1350.2593044704859" y="-977.4444444444445" as="targetPoint" />
          </mxGeometry>
        </mxCell>
        <mxCell id="lsIhl7qGzUJE_njerY9o-5" value="Monitoring Dashboards" style="rounded=1;whiteSpace=wrap;html=1;" vertex="1" parent="1">
          <mxGeometry x="914" y="-1059" width="120" height="60" as="geometry" />
        </mxCell>
        <mxCell id="lsIhl7qGzUJE_njerY9o-12" style="edgeStyle=orthogonalEdgeStyle;rounded=0;orthogonalLoop=1;jettySize=auto;html=1;" edge="1" parent="1" source="lsIhl7qGzUJE_njerY9o-6">
          <mxGeometry relative="1" as="geometry">
            <mxPoint x="1348.7777777777778" y="-884.1111111111111" as="targetPoint" />
          </mxGeometry>
        </mxCell>
        <mxCell id="lsIhl7qGzUJE_njerY9o-6" value="Insights" style="rounded=1;whiteSpace=wrap;html=1;" vertex="1" parent="1">
          <mxGeometry x="917" y="-833" width="120" height="60" as="geometry" />
        </mxCell>
        <mxCell id="lsIhl7qGzUJE_njerY9o-7" value="Actor" style="shape=umlActor;verticalLabelPosition=bottom;verticalAlign=top;html=1;outlineConnect=0;" vertex="1" parent="1">
          <mxGeometry x="1336" y="-972" width="30" height="60" as="geometry" />
        </mxCell>
        <mxCell id="lsIhl7qGzUJE_njerY9o-13" value="Responsibility" style="text;html=1;align=center;verticalAlign=middle;resizable=0;points=[];autosize=1;strokeColor=none;fillColor=none;" vertex="1" parent="1">
          <mxGeometry x="1103" y="-1058" width="92" height="26" as="geometry" />
        </mxCell>
        <mxCell id="lsIhl7qGzUJE_njerY9o-14" value="Responsibility" style="text;html=1;align=center;verticalAlign=middle;resizable=0;points=[];autosize=1;strokeColor=none;fillColor=none;" vertex="1" parent="1">
          <mxGeometry x="1112" y="-833" width="92" height="26" as="geometry" />
        </mxCell>
      </root>
    </mxGraphModel>
  </diagram>
</mxfile>
